<?xml version="1.0" standalone="no"?>
<!DOCTYPE svg PUBLIC "-//W3C//DTD SVG 20010904//EN"
 "http://www.w3.org/TR/2001/REC-SVG-20010904/DTD/svg10.dtd">
<svg version="1.0" xmlns="http://www.w3.org/2000/svg"
 width="2500.000000pt" height="2501.000000pt" viewBox="0 0 2500.000000 2501.000000"
 preserveAspectRatio="xMidYMid meet">

<g transform="translate(0.000000,2501.000000) scale(0.100000,-0.100000)"
fill="#000000" stroke="none">
<path d="M0 12505 l0 -12505 12500 0 12500 0 0 12505 0 12505 -12500 0 -12500
0 0 -12505z m11970 7160 c52 -2 176 -7 275 -10 99 -4 218 -10 265 -14 47 -5
167 -9 267 -10 197 -2 283 -9 456 -40 127 -23 170 -28 312 -36 302 -19 733
-79 1010 -141 191 -42 385 -114 385 -143 0 -5 -7 -14 -15 -21 -18 -15 -197 -8
-274 10 -24 6 -45 9 -47 7 -2 -1 3 -25 12 -52 8 -28 14 -61 13 -75 0 -14 -1
-51 0 -82 l1 -58 33 0 c19 0 36 2 39 5 11 11 -15 111 -34 132 -27 29 -16 63
20 63 39 0 153 -29 169 -42 8 -6 36 -21 63 -34 56 -26 61 -40 25 -74 -24 -23
-24 -23 -5 -40 11 -10 20 -20 20 -24 0 -12 -29 -6 -44 9 -13 14 -25 10 -110
-30 -53 -25 -107 -45 -120 -45 -24 0 -49 -18 -59 -42 -4 -10 -8 -10 -16 2 -9
12 -16 11 -55 -8 -32 -15 -46 -28 -46 -42 0 -11 -4 -20 -10 -20 -5 0 -10 6
-10 14 0 11 -9 13 -36 9 -37 -6 -84 12 -84 32 0 7 7 25 15 42 9 18 17 73 21
139 7 136 10 154 30 154 18 0 18 -3 -6 -183 -6 -49 -10 -91 -7 -93 2 -3 17 1
32 8 26 12 27 14 21 68 -15 123 -26 272 -21 280 6 10 -5 13 -105 29 -413 67
-554 86 -755 106 -205 20 -267 29 -450 64 -113 22 -195 31 -330 36 -99 3 -227
10 -285 16 -226 20 -385 24 -920 24 -494 0 -764 -6 -840 -19 -14 -3 -108 -10
-210 -16 -102 -6 -300 -22 -440 -35 -140 -13 -336 -27 -435 -30 -133 -5 -232
-15 -380 -40 -209 -35 -255 -41 -370 -51 -38 -3 -99 -10 -135 -15 -71 -10
-634 -124 -690 -139 l-35 -10 40 5 c22 2 174 27 338 54 165 28 390 60 500 71
111 12 231 25 267 30 155 22 271 32 525 45 61 4 198 12 305 20 107 8 249 17
315 20 66 3 152 7 190 10 455 31 1794 25 2210 -11 183 -16 345 -27 535 -39
188 -11 610 -55 762 -79 52 -9 87 -10 95 -4 7 5 12 5 15 -3 2 -7 45 -20 95
-30 182 -37 217 -64 81 -64 l-77 1 4 -66 c2 -36 7 -102 11 -147 4 -53 3 -83
-4 -83 -13 0 -18 22 -21 95 -1 33 -5 63 -7 67 -2 4 -7 33 -10 65 -5 56 -21 83
-50 83 -17 0 -26 -79 -22 -198 2 -89 -3 -125 -16 -111 -3 2 -6 73 -8 157 l-3
152 -30 5 c-69 11 -189 25 -216 25 -26 0 -29 -3 -23 -24 5 -23 -21 -271 -32
-301 -12 -29 -26 -16 -19 18 3 17 9 96 12 175 5 133 4 142 -14 142 -10 1 -65
6 -123 13 l-105 13 -3 -201 c-4 -186 -6 -215 -16 -204 -3 4 -15 275 -16 366
l0 41 -47 6 c-72 8 -139 15 -228 21 -44 3 -109 8 -145 11 l-65 5 -3 -283 c-2
-155 -5 -284 -8 -287 -14 -14 -17 35 -18 289 -1 259 -2 280 -18 280 -16 0 -18
-11 -18 -92 -1 -129 -38 -403 -60 -439 -21 -34 -22 9 -1 99 25 106 38 295 27
384 l-7 55 -87 11 c-48 5 -88 9 -88 9 -1 -1 2 -31 7 -67 4 -36 8 -137 8 -225
1 -88 3 -170 6 -183 2 -13 5 -60 7 -104 l3 -81 97 7 c54 3 148 12 210 20 62 8
140 17 173 20 33 4 170 17 305 31 135 13 268 26 295 29 129 13 382 19 389 8
12 -20 -34 -33 -202 -57 -215 -30 -140 -22 -982 -104 -107 -10 -256 -19 -330
-20 -74 -1 -187 -6 -250 -11 -238 -20 -329 -26 -740 -45 -63 -3 -149 -7 -190
-10 -41 -3 -156 -7 -255 -10 -99 -3 -223 -8 -275 -10 -518 -27 -1487 -29
-2005 -5 -110 5 -308 12 -440 15 -132 3 -267 8 -300 10 -33 2 -127 7 -210 10
-185 7 -262 12 -440 30 -195 20 -219 24 -315 45 -113 25 -143 23 -222 -16
-105 -53 -336 -143 -423 -166 -22 -6 -95 -30 -163 -54 -146 -52 -200 -56 -237
-19 -46 46 -30 93 59 168 36 30 75 62 87 71 13 8 20 18 16 22 -3 4 -34 -16
-69 -43 -35 -28 -90 -67 -123 -87 -84 -53 -95 -69 -95 -141 0 -83 24 -128 108
-206 122 -113 449 -326 676 -441 76 -38 156 -80 177 -94 21 -13 93 -51 159
-85 96 -48 129 -71 163 -110 23 -28 72 -73 109 -100 173 -130 294 -321 306
-484 3 -38 10 -73 16 -77 25 -16 7 -175 -64 -588 -27 -157 -68 -400 -89 -540
-44 -280 -168 -1043 -262 -1605 -71 -428 -70 -423 -65 -410 17 36 99 419 121
560 55 360 77 485 120 684 46 217 65 321 116 646 17 110 62 362 99 560 104
546 123 678 123 830 0 192 -27 298 -167 663 -78 204 -83 222 -63 222 41 0 159
-165 256 -357 96 -192 140 -340 156 -519 12 -136 -27 -424 -121 -899 -36 -181
-90 -472 -119 -645 -30 -173 -79 -423 -109 -555 -31 -132 -78 -375 -106 -540
-32 -188 -71 -380 -106 -515 -32 -122 -86 -377 -124 -590 -138 -756 -169 -928
-195 -1085 -14 -88 -55 -311 -90 -495 -35 -184 -80 -420 -100 -525 -95 -497
-263 -1503 -299 -1790 -15 -115 -45 -289 -66 -385 -22 -96 -51 -249 -65 -339
-42 -269 -67 -359 -219 -789 -165 -466 -206 -627 -206 -804 0 -149 34 -249
127 -371 32 -43 50 -74 44 -80 -27 -27 -141 38 -196 113 -82 111 -116 238
-111 410 5 189 51 356 233 850 121 328 160 464 197 680 15 85 45 227 66 315
44 182 70 322 100 545 12 85 48 301 80 480 32 179 81 458 109 620 27 162 93
545 145 850 53 305 107 634 121 730 14 96 45 297 70 445 97 589 116 708 112
718 -3 9 -34 -161 -163 -888 -90 -510 -118 -654 -185 -965 -71 -325 -160 -775
-219 -1095 -92 -508 -121 -644 -234 -1105 -46 -190 -161 -729 -221 -1040 -25
-130 -77 -322 -154 -572 -150 -485 -195 -738 -172 -973 15 -161 45 -211 179
-307 147 -105 271 -148 853 -297 456 -117 817 -197 1639 -361 757 -151 933
-177 1585 -232 255 -22 1743 -13 2115 13 292 20 571 59 1261 180 697 121 1063
210 1848 449 473 144 587 177 706 204 55 13 118 32 140 43 22 11 64 28 94 38
68 22 125 73 148 133 30 79 23 240 -20 452 -20 96 -50 254 -67 350 -18 96 -63
330 -100 520 -42 209 -77 420 -90 535 -26 236 -39 314 -95 568 -25 111 -66
319 -91 462 -25 143 -76 418 -114 610 -38 193 -114 584 -170 870 -55 286 -119
603 -142 705 -22 102 -82 390 -133 640 -51 250 -94 450 -94 443 -1 -17 158
-903 214 -1188 24 -126 61 -324 80 -440 99 -585 142 -827 205 -1150 22 -110
60 -315 84 -455 25 -140 59 -316 76 -390 61 -265 80 -376 105 -596 14 -123 40
-306 59 -406 122 -648 148 -973 93 -1179 -48 -184 -131 -300 -256 -362 -61
-30 -73 -32 -166 -32 -198 1 -244 69 -59 88 119 13 222 71 270 152 25 43 25
44 6 63 -15 15 -22 44 -31 138 -30 313 -108 695 -206 1004 -48 153 -59 206
-47 214 10 6 102 -261 131 -379 52 -214 104 -502 141 -785 25 -186 21 -174 42
-158 31 23 50 124 55 291 5 140 4 157 -10 151 -17 -6 -26 19 -62 166 -10 41
-40 156 -67 255 -27 99 -65 239 -83 310 -19 72 -43 161 -55 200 -21 72 -26
135 -12 135 8 0 78 -239 102 -345 23 -108 92 -378 135 -530 41 -143 45 -153
40 -95 -12 140 -48 406 -85 635 -36 222 -50 331 -65 525 -10 124 -24 215 -66
415 -21 105 -60 312 -85 460 -25 149 -76 430 -114 625 -38 195 -96 497 -129
670 -101 529 -119 622 -141 715 -26 111 -267 1306 -280 1389 -5 34 -18 136
-29 228 -11 94 -44 274 -75 415 -56 251 -74 347 -121 643 -15 91 -44 242 -65
335 -21 94 -62 289 -91 435 -34 169 -55 256 -59 240 -9 -38 -18 -13 -45 122
-13 68 -34 168 -45 223 -15 71 -19 105 -11 116 7 12 1 62 -19 175 -83 459 -94
555 -95 793 0 156 3 225 11 228 16 5 53 -87 81 -202 58 -245 102 -417 98 -380
-10 80 -65 434 -95 610 -48 279 -53 640 -10 640 17 0 54 -101 65 -178 6 -39 9
-46 21 -36 8 6 14 17 14 24 0 8 10 26 23 42 34 41 58 140 67 279 4 67 13 132
20 144 6 12 9 24 6 27 -3 3 -32 -51 -65 -119 -34 -69 -64 -128 -68 -131 -17
-18 -33 19 -33 78 0 207 152 407 405 533 152 76 411 144 598 159 42 3 77 10
77 16 0 53 -107 313 -176 428 -34 57 -44 94 -23 87 34 -11 158 -284 215 -470
l18 -58 60 -1 c34 0 82 -4 109 -8 26 -4 47 -6 47 -5 0 2 -28 63 -61 136 -92
198 -154 408 -121 408 5 0 21 -42 36 -92 56 -192 78 -253 117 -333 58 -117 72
-130 157 -153 39 -10 72 -16 72 -13 0 10 -27 82 -48 132 -26 59 -112 198 -157
253 -19 24 -35 50 -35 60 0 83 175 -195 253 -402 23 -61 24 -63 95 -97 96 -46
184 -106 260 -178 l62 -60 1 54 c1 30 2 59 4 64 1 6 3 16 3 23 1 6 8 12 16 12
8 0 16 7 20 15 9 24 23 17 35 -16 17 -48 27 -249 13 -249 -14 0 -13 -3 -16 70
-1 30 -8 82 -16 115 l-14 60 -8 -40 c-23 -110 -22 -127 12 -170 18 -22 55 -74
82 -115 49 -74 50 -74 43 -35 -18 115 -18 115 -2 115 18 0 25 -29 31 -136 4
-65 10 -80 62 -170 150 -259 222 -439 354 -880 152 -508 229 -797 462 -1744
17 -69 33 -129 36 -135 21 -35 58 346 47 485 -6 72 4 114 22 96 4 -4 8 -63 8
-131 0 -97 3 -121 13 -113 13 11 17 -33 14 -192 -1 -71 1 -81 10 -60 11 24 12
23 18 -20 8 -52 6 -115 -10 -336 -7 -105 -7 -169 -1 -185 7 -17 10 12 10 109
1 85 5 141 13 155 11 20 13 19 19 -23 4 -25 5 -123 3 -219 l-5 -173 37 -142
c20 -77 40 -147 44 -154 3 -8 13 106 20 253 12 241 12 273 -3 338 -9 40 -37
160 -61 267 -67 290 -111 540 -96 540 3 0 43 -161 89 -357 46 -197 88 -377 93
-400 6 -24 14 -40 19 -37 5 3 9 -16 9 -42 0 -27 9 -87 20 -134 10 -47 40 -182
64 -300 50 -238 107 -508 160 -760 39 -184 104 -545 135 -750 44 -294 51 -352
61 -496 6 -82 12 -165 15 -184 2 -19 4 -63 5 -97 0 -52 3 -61 15 -56 14 5 15
-2 9 -43 -3 -27 -8 -51 -9 -54 -2 -3 -6 -60 -9 -125 -10 -193 -17 -271 -27
-286 -7 -9 -8 34 -5 126 4 133 -4 149 -20 40 -6 -41 -19 -64 -30 -52 -6 5 5
64 47 250 7 28 8 93 5 160 -9 170 -18 310 -22 327 -1 8 -3 43 -3 78 -1 39 -5
61 -11 57 -5 -3 -10 -22 -10 -42 0 -20 -5 -63 -11 -97 -6 -33 -16 -121 -22
-194 -7 -78 -16 -131 -22 -130 -5 2 -9 14 -8 28 2 41 24 323 27 350 2 14 4 49
4 78 1 35 8 58 20 70 17 16 17 24 -5 177 -26 192 -53 350 -98 585 -29 151
-100 485 -109 515 -1 5 -2 -49 -2 -120 1 -72 -1 -227 -3 -345 -4 -197 -2 -221
17 -290 l22 -75 -5 165 c-4 149 2 206 20 188 12 -12 17 -195 7 -308 -9 -104
-7 -127 14 -238 13 -68 24 -133 24 -145 0 -15 3 -18 11 -10 6 6 11 73 11 177
1 117 5 171 13 183 11 15 14 9 20 -41 9 -67 1 -191 -21 -345 -8 -58 -13 -124
-10 -146 6 -40 18 -214 33 -475 10 -174 10 -556 0 -685 -20 -252 -80 -584
-142 -790 -105 -346 -278 -665 -463 -853 -84 -84 -203 -182 -223 -182 -26 0 2
56 98 198 126 186 183 288 258 463 156 366 225 665 290 1259 7 58 6 473 0 565
-3 39 -10 169 -15 290 -13 271 -28 382 -90 700 -27 138 -58 320 -70 405 -30
221 -41 271 -146 700 -52 212 -142 576 -199 810 -57 234 -141 587 -185 785
-170 759 -389 1527 -520 1824 -80 184 -274 512 -379 644 -167 208 -373 321
-656 358 -252 33 -662 -52 -882 -184 -46 -27 -56 -40 -92 -117 -23 -47 -41
-90 -41 -97 0 -6 -7 -23 -15 -39 -7 -15 -17 -53 -20 -83 -10 -84 -65 -314 -79
-331 -7 -8 -18 -31 -25 -50 -6 -19 -23 -52 -36 -72 -14 -21 -25 -44 -25 -52 0
-7 27 -121 59 -252 33 -132 78 -331 100 -444 22 -113 52 -257 66 -320 13 -63
61 -311 105 -550 44 -239 95 -513 115 -607 19 -95 48 -269 65 -385 42 -299 45
-319 110 -648 37 -183 69 -382 85 -524 14 -125 41 -312 60 -415 114 -626 218
-1183 240 -1291 14 -69 69 -368 121 -665 52 -297 126 -700 164 -895 38 -195
85 -440 104 -545 59 -318 66 -353 117 -566 52 -223 77 -355 109 -599 22 -161
45 -280 104 -535 19 -82 59 -280 90 -440 31 -159 68 -344 82 -410 31 -145 42
-319 24 -407 -21 -109 -77 -198 -154 -243 -57 -33 -260 -85 -333 -85 -49 0
-76 -7 -144 -39 -278 -128 -963 -355 -1430 -475 -385 -98 -680 -155 -1371
-265 -501 -80 -731 -106 -1033 -116 -266 -9 -1652 -11 -1775 -2 -668 45 -1111
104 -1680 222 -118 24 -377 76 -575 115 -877 172 -1675 364 -1915 461 -69 28
-134 59 -145 68 -11 10 -42 33 -70 51 -168 110 -222 218 -232 465 -10 241 23
443 133 823 150 513 144 492 260 1092 64 336 90 454 193 903 61 263 86 390
146 737 79 457 113 637 215 1138 54 268 119 611 145 762 53 317 111 650 160
930 108 607 169 958 215 1230 75 446 236 1283 311 1615 39 174 121 477 175
652 24 78 44 145 44 149 0 3 -6 4 -14 1 -24 -9 -62 29 -75 75 -18 61 -90 203
-140 277 -23 34 -67 85 -98 114 -74 69 -118 113 -174 173 -25 27 -67 60 -95
73 -27 14 -89 49 -139 80 -49 30 -139 78 -200 107 -60 28 -168 84 -239 124
-70 39 -173 96 -229 126 -178 98 -355 242 -397 325 -24 46 -50 150 -50 200 0
58 27 132 65 176 19 23 70 67 113 97 42 31 113 86 157 122 124 101 307 214
409 252 64 24 118 37 181 42 52 5 140 23 210 44 66 20 212 60 325 90 113 30
248 66 300 80 93 25 437 95 760 155 220 40 268 47 430 56 58 4 173 17 256 30
204 33 340 44 524 44 85 0 243 7 350 15 107 8 319 20 470 26 151 6 280 13 285
16 12 5 973 -4 1115 -11z m1240 -377 c6 -24 13 -49 15 -56 3 -7 7 -79 10 -160
6 -155 -3 -283 -20 -289 -7 -2 -10 52 -8 159 1 90 -3 190 -7 223 -21 140 -23
165 -12 165 6 0 16 -19 22 -42z m230 -239 c0 -188 -3 -240 -12 -237 -10 4 -14
61 -16 233 -3 230 -1 261 18 250 6 -4 10 -96 10 -246z m274 7 c-3 -162 -6
-198 -18 -185 -2 2 -6 88 -9 190 -4 133 -2 190 6 198 21 21 25 -18 21 -203z
m-337 107 c-3 -32 -10 -123 -17 -203 -6 -80 -14 -147 -16 -150 -14 -13 -19 27
-13 92 4 40 8 121 8 180 1 112 13 170 33 150 6 -6 8 -33 5 -69z m726 69 c3 -4
-1 -25 -9 -47 -7 -22 -14 -68 -14 -102 0 -62 -14 -85 -25 -40 -8 31 1 136 14
170 10 26 25 35 34 19z m-138 -92 c7 -33 -22 -250 -36 -264 -17 -19 -22 5 -11
52 7 26 13 90 13 142 0 52 3 98 5 102 9 14 22 -1 29 -32z m1830 -90 c347 -38
554 -83 774 -171 421 -167 702 -434 995 -943 147 -256 201 -380 359 -836 259
-751 251 -725 317 -1039 22 -102 71 -314 109 -471 108 -440 293 -1297 376
-1740 131 -703 192 -1008 266 -1343 109 -491 133 -688 133 -1067 1 -376 -20
-503 -144 -885 -141 -433 -272 -704 -519 -1075 -198 -296 -435 -522 -644 -615
-58 -25 -177 -58 -253 -70 l-41 -6 -23 52 c-39 91 -10 197 63 232 42 21 52 9
33 -38 -9 -21 -16 -55 -16 -77 0 -40 1 -40 30 -34 17 3 64 21 106 40 226 105
435 311 658 649 238 362 340 567 476 957 139 398 180 648 166 1010 -13 316
-39 495 -146 979 -58 268 -182 859 -285 1366 -15 72 -51 234 -80 360 -30 127
-84 361 -120 520 -75 328 -158 662 -216 873 -21 79 -62 246 -90 370 -52 236
-106 407 -261 827 -47 127 -106 291 -133 365 -112 314 -294 656 -482 908 -72
96 -226 256 -318 331 -214 174 -540 315 -920 396 -236 50 -561 133 -614 156
-119 52 72 60 444 19z m-1050 -137 c21 -8 97 -122 89 -134 -10 -16 -24 -9 -30
16 -3 13 -24 40 -45 60 -21 19 -39 42 -39 50 0 17 2 18 25 8z m-33 -83 c12
-56 -1 -71 -22 -25 -24 51 -24 67 -3 63 10 -2 20 -17 25 -38z m647 -17 c15
-32 40 -89 54 -128 31 -85 48 -125 98 -234 45 -96 56 -131 41 -131 -11 0 -40
58 -67 130 -7 19 -33 78 -58 130 -85 178 -117 258 -111 274 3 9 8 16 10 16 2
0 17 -26 33 -57z m430 -13 c64 -97 194 -452 175 -481 -10 -17 -19 4 -43 101
-23 91 -93 251 -148 339 -39 61 -54 96 -46 105 9 9 20 -1 62 -64z m-300 3 c16
-32 51 -114 79 -183 27 -69 73 -174 102 -234 35 -72 49 -111 42 -118 -12 -12
-14 -9 -75 132 -25 58 -80 177 -121 265 -42 88 -76 168 -76 178 0 33 20 17 49
-40z m-170 -228 c67 -134 121 -249 121 -255 0 -31 -24 2 -74 103 -30 61 -85
167 -121 235 -61 114 -77 162 -56 162 5 0 63 -110 130 -245z m-750 181 c13
-30 35 -62 52 -75 31 -23 38 -41 15 -41 -16 0 -80 71 -103 113 -14 29 -12 57
6 57 5 0 18 -24 30 -54z m-71 -3 c5 -16 15 -55 22 -88 6 -33 14 -70 17 -82 10
-42 -16 -23 -27 20 -6 23 -20 68 -31 99 -19 54 -19 78 0 78 5 0 13 -12 19 -27z
m455 -99 c60 -166 104 -264 163 -361 56 -92 76 -155 30 -100 -63 78 -256 497
-256 558 0 46 26 7 63 -97z m186 19 c39 -67 161 -426 161 -473 0 -39 -16 -31
-25 13 -28 126 -103 330 -160 429 -24 42 -33 88 -17 88 4 0 23 -26 41 -57z
m-744 -69 c8 -38 25 -93 36 -123 13 -36 17 -57 10 -64 -11 -11 -11 -13 -69
159 -30 91 -37 125 -29 133 15 15 31 -17 52 -105z m488 -21 c14 -27 37 -82 51
-123 14 -41 46 -122 71 -180 65 -147 80 -188 72 -196 -11 -11 -15 -4 -76 143
-32 76 -82 191 -110 255 -28 65 -51 124 -51 133 0 28 17 15 43 -32z m-739
-113 c19 -74 47 -193 61 -265 24 -118 73 -328 140 -599 26 -104 31 -151 16
-141 -5 3 -24 67 -42 143 -17 75 -76 318 -131 539 -90 369 -114 493 -89 468 6
-6 26 -71 45 -145z m99 33 c37 -123 93 -375 143 -648 3 -16 9 -48 14 -70 13
-53 13 -152 1 -140 -9 9 -18 58 -41 226 -5 36 -21 117 -36 180 -14 63 -35 150
-45 194 -10 44 -34 134 -54 200 -34 117 -43 175 -27 175 5 0 25 -53 45 -117z
m-250 -65 c20 -84 41 -178 47 -208 22 -119 83 -405 125 -587 45 -189 53 -249
36 -239 -8 5 -31 97 -77 316 -9 41 -35 158 -59 260 -106 453 -125 540 -125
574 0 70 17 34 53 -116z m2337 25 c46 -140 69 -189 135 -296 45 -72 51 -114 8
-61 -33 42 -146 267 -177 352 -26 73 -34 132 -17 132 4 0 28 -57 51 -127z
m-1544 45 c9 -18 34 -86 56 -152 22 -65 55 -156 74 -202 19 -46 34 -90 34 -98
0 -32 -19 -15 -36 32 -24 67 -121 318 -145 374 -10 26 -19 54 -19 62 0 26 18
18 36 -16z m-100 -40 c10 -18 47 -116 84 -218 37 -102 83 -220 101 -262 30
-72 34 -98 11 -84 -5 3 -27 52 -47 108 -21 57 -52 137 -70 178 -18 41 -49 116
-69 165 -45 110 -52 193 -10 113z m-1672 -110 c14 -62 30 -149 35 -193 39
-347 54 -523 47 -540 -8 -20 -8 -20 -16 0 -5 11 -13 90 -19 175 -11 167 -28
296 -67 484 -25 123 -30 186 -15 186 4 0 20 -51 35 -112z m-5676 80 c13 -17
57 -158 55 -178 -4 -33 46 -152 135 -325 17 -33 34 -67 37 -75 6 -16 37 -64
103 -162 37 -53 43 -68 38 -97 -8 -51 -21 -59 -51 -31 -67 63 -175 237 -175
282 0 9 -15 49 -34 90 -18 40 -46 109 -61 153 -16 44 -34 89 -42 100 -7 11
-13 29 -13 41 0 12 -10 43 -21 70 -26 58 -30 121 -9 134 20 13 26 12 38 -2z
m655 -160 c50 -159 56 -184 46 -199 -6 -10 -11 -6 -18 14 -6 16 -11 37 -11 47
0 26 -47 153 -82 223 -32 65 -28 96 8 54 12 -14 38 -77 57 -139z m5456 83 c19
-44 38 -78 42 -76 6 5 66 -167 93 -270 26 -99 102 -362 141 -488 21 -65 35
-120 32 -124 -13 -12 -25 12 -51 104 -47 161 -151 492 -154 488 -2 -2 1 -46 7
-99 19 -167 12 -379 -11 -340 -3 5 -5 81 -5 169 0 88 -6 189 -12 225 -23 124
-64 276 -97 362 -55 142 -42 181 15 49z m404 -46 c14 -60 31 -141 37 -180 20
-114 69 -343 96 -445 14 -52 34 -128 45 -169 22 -86 10 -121 -15 -44 -19 58
-106 417 -146 603 -16 74 -36 164 -44 200 -17 71 -22 170 -7 155 5 -6 20 -59
34 -120z m-7031 35 c20 -25 56 -79 81 -121 40 -67 175 -274 243 -371 14 -20
24 -45 22 -55 -3 -12 -33 25 -94 117 -98 147 -231 342 -276 404 -15 21 -28 50
-28 65 0 27 -1 28 52 -39z m181 -52 c30 -62 91 -187 135 -278 45 -91 110 -214
146 -275 63 -105 76 -135 58 -135 -7 0 -102 151 -102 162 0 3 -28 54 -62 114
-88 156 -234 453 -241 492 -12 60 11 32 66 -80z m132 27 c15 -38 43 -114 61
-168 40 -113 125 -298 188 -407 47 -80 63 -120 49 -120 -35 0 -336 641 -343
731 -6 72 6 62 45 -36z m2204 -60 c2 -101 23 -272 41 -335 12 -43 13 -70 1
-70 -14 0 -19 19 -45 187 -33 212 -41 316 -25 345 l13 23 6 -25 c4 -14 8 -70
9 -125z m2950 70 c13 -70 27 -530 17 -569 -3 -14 -11 -26 -16 -26 -6 0 -9 57
-7 148 2 155 -7 318 -24 416 -11 61 -5 116 11 100 4 -5 13 -36 19 -69z m-2726
-40 c9 -38 20 -113 26 -165 6 -52 22 -158 36 -235 40 -218 42 -233 35 -246
-12 -19 -19 2 -35 112 -9 57 -24 147 -35 199 -60 303 -77 443 -50 413 4 -4 15
-39 23 -78z m3791 -15 c3 -25 10 -133 15 -240 9 -171 13 -229 25 -365 2 -16 6
-62 11 -101 5 -47 4 -74 -3 -78 -18 -11 -23 25 -37 259 -3 50 -8 106 -10 125
-10 70 -35 385 -35 435 0 95 20 74 34 -35z m1055 -17 c16 -54 41 -154 56 -223
15 -69 44 -188 66 -266 38 -138 52 -232 27 -190 -6 11 -26 83 -45 160 -19 78
-47 186 -63 241 -83 290 -100 375 -76 375 3 0 19 -44 35 -97z m2193 -43 c87
-181 114 -259 92 -267 -6 -2 -19 23 -28 58 -20 69 -81 190 -132 262 -19 26
-34 57 -34 69 0 21 1 20 31 -8 17 -16 49 -67 71 -114z m-9885 63 c28 -38 64
-90 80 -118 28 -46 66 -104 179 -263 24 -35 44 -68 44 -73 0 -26 -30 6 -104
114 -45 64 -110 158 -146 208 -95 132 -120 171 -120 186 0 26 17 12 67 -54z
m947 -102 c10 -41 29 -103 42 -138 25 -67 30 -93 15 -93 -8 0 -20 29 -60 150
-12 36 -33 99 -48 141 -16 49 -23 84 -18 95 6 16 11 10 30 -31 12 -27 30 -83
39 -124z m579 122 c8 -27 20 -79 27 -117 7 -38 21 -97 31 -130 12 -38 15 -64
9 -70 -9 -9 -30 31 -30 59 0 8 -11 51 -25 97 -50 166 -54 180 -48 194 10 25
21 15 36 -33z m3278 -207 c4 -129 11 -264 14 -300 4 -38 3 -72 -3 -83 -10 -16
-11 -15 -16 7 -3 14 -8 89 -11 168 -4 78 -8 153 -10 165 -8 57 -16 259 -10
278 18 55 28 -14 36 -235z m1404 104 c2 -74 7 -229 10 -345 3 -115 8 -234 11
-262 4 -29 3 -65 -1 -80 -14 -56 -23 3 -29 192 -4 105 -9 213 -11 240 -10 124
-16 365 -10 385 14 45 24 1 30 -130z m215 -30 c5 -41 12 -104 15 -140 2 -36
16 -150 31 -255 14 -104 28 -220 31 -256 l5 -66 117 -11 c359 -37 928 -140
999 -182 29 -16 -24 -12 -113 9 -222 53 -679 131 -910 155 -263 27 -1109 43
-1205 23 -55 -11 -407 -20 -390 -9 8 5 98 18 200 28 266 27 869 26 1212 -2
l77 -7 -9 34 c-5 19 -11 63 -15 99 -5 60 -44 334 -80 572 -16 107 -19 171 -7
182 8 9 27 -69 42 -174z m1417 118 c69 -140 152 -518 113 -518 -5 0 -10 3 -10
8 0 105 -70 373 -126 484 -24 47 -31 88 -16 88 5 0 22 -28 39 -62z m-7897
-118 c32 -41 92 -109 134 -150 69 -67 91 -100 68 -100 -8 0 -82 77 -265 276
-51 56 -79 102 -70 118 7 10 42 -27 133 -144z m838 101 c35 -56 212 -462 212
-485 0 -32 -17 -14 -39 42 -53 134 -67 165 -143 314 -68 132 -84 178 -63 178
2 0 17 -22 33 -49z m913 -40 c6 -31 24 -103 39 -161 17 -62 25 -109 20 -114
-11 -11 -14 -4 -34 69 -7 28 -28 99 -45 158 -32 109 -35 163 -6 123 8 -10 19
-44 26 -75z m2283 -146 c3 -93 9 -209 12 -257 5 -60 3 -88 -4 -88 -14 0 -19
36 -28 190 -9 178 -11 207 -19 282 -4 46 -2 74 6 90 13 23 13 22 20 -12 4 -19
10 -111 13 -205z m496 -6 c5 -123 12 -257 16 -298 6 -61 5 -73 -7 -69 -11 4
-18 65 -32 284 -17 275 -17 338 4 317 6 -6 14 -106 19 -234z m790 21 c5 -102
11 -202 15 -222 4 -23 3 -38 -5 -43 -6 -4 -13 -5 -15 -3 -3 2 -7 49 -10 103
-3 55 -10 138 -15 185 -12 101 -13 184 -3 194 17 17 26 -40 33 -214z m-4711
152 c11 -22 34 -81 52 -133 17 -52 56 -154 85 -228 57 -140 61 -155 43 -149
-11 4 -19 22 -83 183 -19 50 -58 145 -85 212 -43 102 -54 153 -35 153 2 0 12
-17 23 -38z m3005 -82 c64 -445 74 -536 58 -526 -10 6 -17 40 -28 131 -3 28
-12 86 -20 130 -8 44 -19 112 -24 150 -6 39 -15 96 -21 127 -12 58 -5 118 11
102 5 -5 15 -56 24 -114z m526 -158 c6 -97 15 -206 20 -242 14 -93 13 -167 -1
-153 -6 6 -15 60 -19 119 -5 60 -14 147 -19 194 -6 47 -15 123 -21 169 -12
100 -13 175 -2 185 13 14 30 -94 42 -272z m845 221 c19 -64 42 -282 45 -418 3
-119 2 -135 -10 -135 -6 0 -10 38 -10 93 0 78 -8 177 -24 287 -2 14 -12 64
-22 111 -15 75 -15 119 0 119 3 0 12 -26 21 -57z m200 -249 c-4 -314 -2 -291
-14 -278 -12 12 -18 555 -7 573 20 31 24 -34 21 -295z m905 1 c-1 -252 -8
-331 -31 -308 -5 5 -4 49 3 103 8 72 8 143 -1 292 -13 203 -8 262 16 173 9
-34 13 -118 13 -260z m939 195 c17 -52 46 -156 65 -230 19 -74 58 -211 87
-305 66 -216 78 -258 72 -268 -10 -17 -21 7 -48 100 -40 141 -150 504 -196
651 -28 88 -39 177 -20 157 5 -6 23 -53 40 -105z m-7107 -65 c72 -69 135 -125
139 -125 12 0 30 -38 21 -44 -5 -3 -28 13 -53 36 -24 22 -71 64 -103 92 -33
28 -71 62 -85 75 -14 13 -41 35 -58 48 -38 29 -48 72 -13 53 11 -6 79 -67 152
-135z m1543 76 c3 -20 13 -65 21 -101 28 -115 28 -113 13 -108 -8 3 -17 20
-22 39 -5 19 -20 74 -33 122 -27 93 -26 140 2 103 7 -11 16 -36 19 -55z m810
-83 c9 -51 25 -133 36 -181 12 -48 19 -90 16 -93 -12 -12 -26 8 -32 49 -4 23
-22 105 -41 183 -35 144 -39 175 -27 188 13 12 32 -47 48 -146z m1080 90 c8
-29 19 -91 24 -138 6 -47 21 -135 33 -197 12 -62 19 -116 14 -120 -13 -13 -24
18 -36 101 -6 45 -17 108 -25 141 -31 137 -48 243 -41 260 9 25 15 16 31 -47z
m2168 -220 c-2 -112 -3 -211 -3 -220 0 -10 -4 -18 -9 -18 -4 0 -12 110 -16
245 -6 200 -5 249 6 262 12 14 15 11 20 -25 3 -22 4 -132 2 -244z m-3084 220
c5 -29 12 -87 16 -128 3 -41 13 -117 21 -168 9 -51 14 -96 11 -99 -14 -13 -26
12 -32 69 -3 35 -12 99 -20 143 -31 181 -35 216 -30 225 13 21 24 8 34 -42z
m3400 -80 c-7 -40 -13 -135 -13 -211 0 -93 -3 -136 -10 -134 -7 3 -11 71 -10
204 0 181 2 204 20 229 18 28 19 28 22 7 2 -12 -2 -55 -9 -95z m-3745 30 c3
-24 7 -79 10 -123 3 -44 15 -111 26 -148 21 -68 20 -91 -1 -70 -27 27 -81 345
-64 372 13 22 24 10 29 -31z m1044 -25 c6 -38 13 -102 17 -143 3 -41 12 -115
21 -164 8 -49 13 -95 10 -103 -11 -28 -24 -2 -31 59 -3 35 -13 104 -20 153 -8
50 -17 108 -20 130 -3 22 -8 55 -11 72 -4 18 -4 40 0 48 12 32 25 12 34 -52z
m1196 30 c3 -21 6 -78 6 -128 0 -49 5 -139 10 -199 7 -71 7 -113 1 -119 -13
-13 -18 14 -25 118 -3 44 -10 138 -16 208 -7 71 -9 135 -6 143 10 25 23 15 30
-23z m360 20 c4 -14 1 -422 -3 -467 -1 -6 -4 -6 -10 0 -7 7 -18 411 -12 472 2
18 19 15 25 -5z m1319 -10 c6 -34 -1 -415 -8 -421 -3 -3 -7 -3 -9 -1 -7 7 -17
430 -11 440 11 17 22 9 28 -18z m-4116 -49 c84 -254 99 -305 93 -315 -10 -16
-17 -3 -45 84 -13 40 -37 108 -54 152 -32 84 -39 129 -19 123 6 -2 17 -22 25
-44z m8297 -32 c3 -5 8 -23 11 -40 3 -17 10 -43 15 -57 13 -34 13 -35 -5 -35
-8 0 -15 6 -15 14 0 7 -9 34 -21 60 -19 44 -19 66 1 66 5 0 11 -4 14 -8z m114
-149 c6 -43 13 -116 16 -163 3 -47 10 -118 16 -158 12 -75 7 -122 -10 -92 -4
8 -11 51 -15 95 -4 44 -9 89 -11 99 -13 72 -35 270 -30 282 12 32 24 10 34
-63z m78 -113 c6 -47 24 -81 24 -46 0 9 4 16 9 16 14 0 31 -84 43 -209 10
-112 16 -140 25 -113 3 6 11 12 19 12 11 0 13 -21 13 -97 0 -54 5 -114 11
-133 5 -19 10 -43 10 -52 0 -29 -20 -20 -26 12 -4 16 -11 28 -17 27 -12 -2
-11 -5 -59 298 -37 234 -49 232 -23 -3 16 -140 16 -176 -1 -159 -4 3 -10 46
-15 94 -5 48 -18 152 -30 231 -11 79 -18 150 -15 158 11 29 26 12 32 -36z
m-8988 -112 c52 -81 282 -567 282 -597 0 -39 -16 -15 -65 101 -54 127 -146
307 -239 468 -22 38 -35 90 -22 90 2 0 22 -28 44 -62z m236 -30 c19 -35 58
-117 86 -183 54 -126 208 -445 215 -445 2 0 16 5 30 10 32 12 32 12 -35 160
-126 278 -151 342 -148 373 3 30 6 25 44 -53 23 -47 51 -112 62 -145 11 -34
42 -112 67 -175 26 -63 50 -121 53 -129 3 -9 16 -11 45 -7 22 4 44 9 48 12 8
5 -50 134 -88 196 -23 37 -31 78 -15 78 13 0 69 -101 102 -186 l31 -80 50 10
c43 9 49 13 45 31 -3 11 -1 26 3 33 6 10 13 7 28 -13 l20 -28 234 46 c129 26
250 49 269 52 19 3 134 23 255 45 193 35 639 109 1025 170 276 44 460 64 460
50 0 -5 -30 -13 -67 -19 -97 -16 -399 -59 -528 -76 -283 -37 -1225 -210 -1595
-293 -44 -10 -44 -32 0 -126 20 -42 29 -71 23 -77 -10 -10 -13 -6 -64 109 -32
71 -34 74 -62 68 -16 -3 -35 -6 -41 -6 -34 -1 -38 -16 -20 -74 10 -30 15 -59
11 -62 -13 -13 -26 9 -38 62 l-13 56 -39 -6 c-22 -4 -44 -9 -48 -12 -4 -2 3
-28 16 -57 27 -58 31 -81 13 -75 -7 3 -24 32 -38 66 -14 34 -29 62 -33 62 -4
0 -23 -7 -42 -14 -39 -17 -46 -43 -13 -55 18 -7 19 -8 4 -14 -10 -4 -24 1 -36
13 -22 22 -24 29 -11 48 9 15 -66 183 -214 482 -77 154 -110 240 -92 240 3 0
22 -28 41 -62z m-4 -173 c38 -79 165 -446 172 -495 6 -51 -18 -29 -35 32 -39
142 -50 177 -83 258 -19 47 -55 127 -80 178 -24 51 -44 105 -44 120 1 26 1 26
16 7 8 -11 33 -56 54 -100z m9040 -417 c-1 -164 6 -258 26 -354 6 -31 -8 -55
-21 -35 -20 33 -49 533 -32 559 22 33 27 1 27 -170z m95 20 c4 -24 31 -115 61
-203 29 -88 65 -205 79 -260 15 -55 36 -137 48 -183 15 -57 25 -81 34 -78 7 3
13 2 13 -2 6 -118 64 -380 88 -398 12 -9 14 -30 9 -115 -4 -57 -2 -135 3 -174
22 -156 23 -165 12 -165 -5 0 -13 12 -17 27 -11 45 -35 264 -35 323 0 30 -10
98 -22 150 -30 132 -36 98 -33 -186 2 -210 -4 -288 -19 -244 -3 8 -7 173 -9
365 -3 193 -9 364 -14 380 l-10 30 -8 -39 c-4 -21 -5 -103 -2 -181 5 -123 -1
-181 -16 -165 -3 3 -7 124 -10 270 -5 234 -8 272 -26 324 -12 33 -22 69 -23
80 -4 68 -15 -98 -16 -258 0 -120 -4 -192 -11 -199 -11 -11 -12 24 -16 430 -2
155 -16 253 -37 253 -5 0 -7 -3 -5 -7 5 -7 12 -360 8 -410 0 -13 -5 -23 -10
-23 -4 0 -11 93 -15 208 -7 222 -11 280 -26 382 -9 64 -5 110 10 110 5 0 11
-19 15 -42z m-3167 -118 c12 -63 26 -153 33 -200 15 -112 56 -348 75 -430 8
-36 24 -102 34 -147 21 -88 25 -133 12 -133 -12 0 -119 498 -157 725 -8 50
-21 130 -30 179 -14 84 -12 147 5 129 4 -4 17 -60 28 -123z m-5117 21 c18 -36
47 -92 66 -124 33 -55 38 -77 14 -62 -6 3 -18 21 -27 38 -9 18 -41 71 -71 120
-34 53 -53 94 -49 103 10 25 32 1 67 -75z m5037 -32 c36 -115 73 -309 107
-549 9 -63 20 -142 25 -176 13 -82 13 -181 0 -168 -6 6 -17 77 -25 159 -17
169 -28 241 -55 370 -11 50 -22 101 -24 115 -6 37 -26 115 -52 209 -24 84 -32
164 -15 146 5 -6 23 -53 39 -106z m205 -24 c15 -60 34 -153 43 -205 14 -88 69
-352 99 -480 35 -151 43 -196 36 -209 -10 -18 -23 21 -46 139 -15 80 -69 319
-149 672 -36 157 -42 199 -29 212 11 11 19 -11 46 -129z m85 0 c12 -60 26
-150 32 -200 13 -103 57 -365 90 -534 13 -72 13 -118 -1 -104 -5 5 -17 52 -25
104 -9 52 -33 191 -55 309 -81 450 -91 511 -84 538 10 39 19 15 43 -113z
m-689 85 c-28 -17 -333 -89 -609 -144 -383 -76 -1034 -168 -1365 -191 -49 -3
-97 -8 -105 -10 -8 -2 -78 -7 -155 -10 -77 -4 -142 -8 -145 -10 -25 -15 -974
-24 -1129 -11 -31 3 -125 8 -208 12 l-153 6 -1 -58 c0 -33 -2 -72 -4 -89 -2
-16 -7 -59 -10 -95 -6 -65 -40 -245 -51 -274 -3 -8 -12 -17 -21 -20 -18 -7
-15 13 22 169 27 115 34 165 39 286 l3 86 -116 7 c-64 4 -132 9 -151 11 -19 2
-91 9 -160 15 -238 22 -643 90 -627 107 3 2 69 -5 148 -16 140 -19 416 -50
649 -71 115 -10 471 -33 713 -46 322 -17 998 -6 1317 21 30 3 114 10 185 15
152 13 508 54 645 75 52 8 167 26 255 39 163 25 453 83 810 161 205 45 254 52
224 35z m285 -61 c9 -28 29 -133 46 -233 16 -100 41 -236 56 -302 34 -156 40
-204 25 -204 -6 0 -11 2 -11 4 0 6 -84 427 -121 603 -28 134 -32 183 -15 183
3 0 12 -23 20 -51z m-206 -96 c11 -43 23 -95 27 -116 6 -38 49 -181 80 -266
16 -44 15 -58 -3 -47 -22 13 -157 473 -147 499 11 28 22 11 43 -70z m-5192
-126 c-45 -132 -59 -184 -96 -372 -21 -106 -34 -145 -48 -145 -12 0 -3 90 18
175 43 174 133 460 152 483 26 31 18 -13 -26 -141z m4874 103 c6 -11 13 -39
16 -62 3 -24 12 -69 20 -101 16 -66 18 -97 6 -97 -11 0 -75 256 -67 269 9 15
13 14 25 -9z m439 -42 c12 -34 21 -71 22 -82 0 -12 17 -77 38 -146 37 -120 42
-162 15 -126 -6 9 -15 34 -19 54 -4 20 -27 97 -51 171 -43 130 -54 191 -35
191 5 0 19 -28 30 -62z m-5630 -239 c-104 -433 -205 -950 -260 -1329 -5 -36
-15 -105 -23 -155 -8 -49 -17 -112 -20 -140 -28 -263 -44 -365 -65 -415 -10
-24 -10 -24 -10 8 -2 72 49 487 83 687 124 715 299 1536 343 1608 20 32 8 -33
-48 -264z m5385 232 c8 -22 22 -69 30 -105 9 -35 27 -97 41 -137 28 -81 30
-92 14 -87 -13 4 -118 311 -119 346 0 34 16 26 34 -17z m-65 -156 c11 -38 17
-73 15 -77 -11 -18 -22 -6 -28 32 -3 22 -18 60 -32 85 -28 50 -24 79 7 48 11
-10 28 -50 38 -88z m-5199 81 c0 -8 -15 -83 -34 -168 -41 -185 -96 -511 -126
-741 -12 -93 -26 -144 -37 -133 -13 13 5 184 37 346 10 52 33 172 50 265 75
401 85 445 100 445 6 0 10 -6 10 -14z m1017 -131 c2 -53 0 -86 -7 -90 -6 -4
-14 -5 -17 -1 -7 7 -4 166 3 178 12 19 18 -6 21 -87z m179 53 c-7 -37 -19
-117 -36 -253 -15 -123 -18 -135 -35 -135 -20 0 -19 16 9 166 14 71 27 153 31
183 6 59 11 71 27 71 7 0 8 -12 4 -32z m124 -10 c0 -7 -4 -40 -10 -73 -9 -60
-13 -95 -26 -235 -7 -81 -19 -114 -36 -104 -11 7 -5 76 17 189 7 39 16 104 20
145 4 41 9 78 12 83 7 12 23 8 23 -5z m-835 -80 c-4 -18 -19 -71 -32 -118 -23
-78 -80 -295 -153 -577 -31 -118 -44 -153 -60 -153 -6 0 -10 2 -10 5 0 19 46
197 70 270 33 104 86 294 124 445 15 58 32 117 38 133 15 38 31 34 23 -5z
m1500 -30 c-3 -35 -11 -99 -16 -143 -4 -44 -11 -111 -15 -150 -7 -76 -19 -109
-35 -99 -11 6 -5 100 11 164 9 37 16 92 25 180 8 80 15 110 27 110 7 0 8 -21
3 -62z m-1250 -90 c-58 -203 -132 -539 -150 -678 -12 -98 -18 -126 -31 -152
-8 -16 -17 -28 -19 -28 -13 0 19 226 52 365 120 509 160 652 171 603 2 -9 -9
-58 -23 -110z m1105 79 c0 -54 -23 -226 -51 -380 -15 -79 -29 -126 -41 -140
-19 -22 -19 -22 -14 28 4 28 17 95 31 150 29 117 44 220 45 290 0 58 9 95 21
95 5 0 9 -19 9 -43z m-131 -63 c-10 -70 -27 -246 -35 -349 -6 -73 -20 -125
-35 -125 -11 0 -10 68 2 140 17 107 29 196 38 292 5 54 13 102 16 109 15 24
22 -9 14 -67z m-1153 -65 c-13 -52 -32 -121 -41 -154 -19 -71 -66 -297 -100
-480 -30 -167 -34 -182 -52 -196 -12 -11 -13 -5 -8 42 8 65 22 149 35 204 122
514 161 669 173 683 20 25 19 -4 -7 -99z m968 -71 c-4 -101 -7 -200 -6 -222 1
-43 -13 -86 -28 -86 -13 0 -13 85 -1 182 8 58 19 216 21 296 0 6 5 12 11 12 7
0 8 -53 3 -182z m682 70 c-3 -29 -8 -100 -12 -158 -3 -58 -11 -111 -17 -119
-21 -25 -26 35 -11 127 8 48 14 110 14 138 0 50 5 64 23 64 5 0 7 -22 3 -52z
m2593 -112 c22 -68 49 -173 61 -233 11 -59 25 -126 30 -148 25 -112 88 -534
91 -605 5 -144 -17 -85 -36 96 -18 182 -37 299 -75 469 -16 72 -32 146 -36
165 -3 19 -26 104 -50 189 -45 159 -51 191 -34 191 5 0 27 -56 49 -124z m255
-96 c24 -132 31 -182 42 -271 9 -78 73 -479 99 -624 25 -143 32 -237 16 -220
-5 6 -19 73 -31 150 -12 77 -40 246 -62 375 -22 129 -50 305 -64 390 -13 85
-31 188 -39 229 -16 79 -20 153 -8 165 9 9 13 -8 47 -194z m209 -2 c14 -90 31
-206 37 -258 27 -215 85 -519 151 -787 31 -124 36 -201 10 -138 -17 41 -58
225 -125 560 -92 465 -136 785 -107 785 4 0 20 -73 34 -162z m-610 -78 c14
-74 31 -173 38 -220 13 -98 75 -483 88 -550 5 -25 15 -78 22 -118 9 -53 16
-71 26 -68 21 8 16 -48 -6 -68 -18 -17 -19 -14 -36 81 -41 243 -68 397 -89
513 -13 69 -29 157 -36 195 -6 39 -20 115 -30 170 -19 100 -24 148 -21 195 2
48 18 3 44 -130z m-162 34 c15 -81 48 -314 59 -419 13 -133 69 -550 90 -670
13 -78 13 -142 0 -129 -9 9 -41 201 -55 334 -3 36 -17 137 -31 225 -14 88 -29
194 -34 235 -13 101 -25 185 -45 310 -21 136 -7 236 16 114z m978 -61 c16 -57
37 -137 46 -180 61 -296 138 -894 121 -939 -14 -36 -23 6 -30 131 -14 248 -84
668 -156 930 -30 108 -39 189 -21 170 5 -6 23 -56 40 -112z m-5261 45 c-15
-77 -49 -252 -58 -307 -5 -30 -16 -62 -25 -70 -13 -14 -15 -11 -15 24 0 22 9
72 20 110 16 56 60 261 60 281 0 2 6 4 14 4 10 0 11 -9 4 -42z m652 -51 c0 -1
-9 -34 -20 -72 -44 -152 -73 -316 -89 -509 -11 -129 -31 -152 -31 -35 0 113
79 541 111 600 8 15 29 27 29 16z m150 -29 c0 -18 -4 -49 -10 -68 -8 -31 -23
-119 -50 -304 -5 -33 -16 -66 -24 -75 -15 -14 -16 -11 -16 29 0 25 7 70 15
100 12 46 39 185 61 318 3 17 9 32 14 32 6 0 10 -15 10 -32z m4689 -128 c16
-69 35 -153 40 -187 6 -35 16 -91 22 -125 13 -79 78 -401 115 -570 18 -83 33
-128 41 -128 16 0 17 -26 2 -36 -29 -18 -38 11 -104 341 -15 72 -40 191 -56
265 -17 74 -34 158 -40 185 -5 28 -20 97 -34 155 -30 133 -39 195 -31 216 4 9
8 15 10 13 3 -2 18 -60 35 -129z m-1355 -30 c15 -110 25 -206 46 -460 6 -63
12 -140 15 -170 18 -178 26 -253 35 -320 33 -259 42 -359 32 -376 -9 -16 -11
-14 -16 16 -9 52 -25 195 -32 280 -3 41 -14 149 -25 240 -10 91 -30 266 -44
390 -14 124 -29 259 -35 300 -12 95 -13 237 -1 225 5 -6 16 -62 25 -125z
m-225 -55 c6 -77 13 -216 17 -310 3 -93 8 -179 10 -190 6 -29 18 -212 19 -267
0 -88 -20 -56 -27 42 -4 52 -12 160 -17 240 -6 80 -18 245 -27 367 -16 208
-14 288 6 267 4 -5 13 -72 19 -149z m1770 0 c16 -77 35 -174 41 -215 14 -101
87 -482 105 -550 8 -31 18 -85 21 -120 10 -98 -10 -63 -34 60 -40 199 -84 416
-129 630 -45 216 -65 365 -45 345 6 -5 24 -73 41 -150z m-4663 78 c-3 -27 -8
-91 -12 -143 -6 -100 -21 -140 -36 -100 -4 12 -2 58 7 107 8 47 15 105 15 128
0 23 3 45 7 48 17 18 24 3 19 -40z m2555 -15 c22 -133 79 -557 94 -688 41
-365 101 -839 160 -1260 29 -207 41 -363 26 -339 -9 15 -63 392 -75 525 -3 34
-10 90 -15 125 -6 35 -17 116 -25 179 -8 63 -31 230 -50 370 -19 140 -42 309
-51 375 -8 66 -29 219 -46 340 -31 220 -48 446 -34 433 4 -4 12 -31 16 -60z
m2294 -85 c44 -109 70 -208 115 -433 47 -234 60 -311 60 -358 0 -71 -17 -38
-30 55 -27 200 -76 419 -141 621 -30 95 -36 132 -20 132 5 0 12 -8 16 -17z
m-4639 -100 c-3 -32 -7 -78 -8 -103 -1 -48 -13 -80 -28 -80 -12 0 -12 52 -1
105 5 22 11 58 12 80 3 46 6 55 21 55 6 0 8 -21 4 -57z m1178 -2075 c9 -129
15 -247 21 -453 3 -104 13 -314 22 -467 15 -261 13 -335 -6 -298 -5 8 -11 85
-15 170 -13 325 -19 436 -22 452 -1 9 -5 77 -9 150 -3 73 -11 202 -16 286 -11
147 -7 242 10 242 5 0 11 -37 15 -82z m260 -83 c9 -66 20 -178 27 -250 6 -71
17 -170 25 -220 16 -106 18 -185 4 -185 -5 0 -11 11 -11 25 -1 14 -2 28 -3 33
-2 4 -6 39 -10 77 -7 68 -28 233 -61 483 -16 119 -14 185 5 166 5 -5 16 -63
24 -129z m-135 -70 c5 -44 13 -138 16 -210 3 -71 10 -182 15 -245 23 -271 23
-280 12 -280 -15 0 -21 37 -28 175 -3 66 -11 170 -18 230 -7 61 -14 133 -15
160 -1 28 -6 79 -11 115 -9 67 -7 110 5 130 11 17 13 11 24 -75z m3677 -2335
c20 -140 42 -300 49 -355 72 -529 180 -1048 340 -1645 70 -260 80 -300 70
-300 -3 0 -12 15 -20 33 -18 43 -109 381 -145 537 -16 69 -45 195 -65 280 -47
203 -139 640 -159 760 -104 617 -148 959 -129 1006 10 24 12 10 59 -316z
m-6600 -102 c-4 -73 -9 -140 -11 -148 -2 -8 -6 -49 -10 -90 -3 -41 -8 -82 -10
-90 -2 -8 -6 -37 -9 -65 -4 -27 -11 -79 -16 -115 -6 -36 -26 -182 -45 -325
-19 -143 -40 -291 -46 -330 -6 -38 -13 -88 -16 -110 -13 -107 -42 -258 -52
-268 -20 -20 -19 -9 55 448 24 148 98 774 114 965 6 69 13 136 16 150 11 54
27 110 32 110 2 0 1 -60 -2 -132z m-926 -173 c-53 -409 -68 -502 -82 -511 -20
-12 -19 7 6 138 25 131 41 287 53 503 3 61 11 119 17 130 16 30 21 -146 6
-260z m1126 183 c-3 -35 -8 -99 -11 -143 -7 -94 -22 -263 -29 -320 -27 -214
-73 -696 -96 -990 -15 -195 -27 -272 -41 -258 -8 8 6 206 30 418 12 108 26
265 46 515 8 102 21 253 29 335 8 83 18 191 21 240 11 152 32 265 51 265 3 0
3 -28 0 -62z m-942 -140 c-7 -71 -11 -100 -52 -358 -11 -69 -28 -188 -37 -264
-9 -77 -22 -151 -28 -165 l-11 -26 -4 27 c-3 26 0 54 31 258 8 52 18 131 22
175 4 44 10 98 15 120 5 22 13 85 19 140 11 105 26 165 43 165 6 0 7 -28 2
-72z m1152 55 c-2 -10 -8 -52 -12 -93 -4 -41 -8 -77 -9 -80 -1 -3 -5 -34 -9
-70 -4 -36 -16 -119 -27 -185 -29 -175 -94 -619 -114 -770 -29 -225 -45 -319
-57 -330 -16 -15 -2 108 46 420 9 55 30 208 47 340 17 132 35 265 39 295 4 30
18 129 29 220 22 173 45 270 62 270 6 0 8 -8 5 -17z m6372 -95 c6 -29 27 -129
47 -223 33 -159 56 -286 91 -500 24 -150 104 -576 199 -1060 41 -209 50 -275
38 -275 -10 0 -35 111 -72 315 -66 359 -87 472 -256 1335 -48 247 -75 405 -75
446 0 34 18 9 28 -38z m-7005 -70 c-5 -67 -29 -239 -63 -452 -11 -72 -31 -222
-45 -335 -24 -198 -44 -286 -52 -235 -4 19 3 75 37 304 6 36 19 139 30 230 56
479 68 550 90 550 4 0 6 -28 3 -62z m7210 -218 c26 -113 56 -259 68 -325 24
-136 135 -689 174 -870 55 -255 65 -308 65 -333 0 -86 -42 82 -115 458 -14 74
-46 226 -71 338 -25 112 -58 272 -75 355 -17 84 -46 222 -66 307 -34 152 -55
321 -35 290 5 -8 30 -107 55 -220z m-7438 153 c-9 -86 -39 -302 -64 -463 -11
-69 -34 -232 -51 -364 -29 -229 -40 -280 -53 -259 -6 9 17 218 28 253 5 18 41
297 50 390 3 36 10 88 15 115 5 28 16 113 25 190 15 128 34 205 50 205 4 0 4
-30 0 -67z m-169 -54 c-4 -50 -11 -114 -17 -142 -14 -73 -27 -179 -44 -347
-14 -148 -20 -180 -36 -180 -11 0 -11 16 1 105 11 76 33 281 50 465 12 129 25
190 42 190 8 0 9 -27 4 -91z m1199 -22 c-2 -40 -7 -124 -10 -187 -3 -63 -10
-142 -15 -175 -5 -33 -11 -100 -15 -150 -3 -49 -8 -108 -10 -130 -2 -22 -9
-121 -15 -220 -14 -247 -20 -305 -31 -305 -13 0 -11 77 6 284 8 100 19 262 25
361 5 99 12 205 14 235 2 30 7 109 11 175 7 124 21 198 37 189 5 -3 6 -38 3
-77z m6601 -133 c20 -98 51 -273 69 -389 37 -230 82 -488 120 -690 14 -71 38
-201 55 -287 30 -157 38 -241 21 -222 -4 5 -18 61 -30 124 -12 63 -26 135 -31
160 -5 25 -12 65 -15 90 -3 25 -25 151 -49 280 -25 129 -56 298 -71 375 -14
77 -45 248 -70 380 -46 250 -59 341 -49 357 3 5 8 8 10 5 2 -2 20 -84 40 -183z
m-658 25 c16 -52 39 -139 52 -194 34 -154 139 -580 166 -674 25 -86 30 -131
16 -131 -8 0 -55 162 -67 232 -3 14 -23 92 -44 174 -162 608 -167 627 -163
678 3 30 10 16 40 -85z m745 -89 c20 -80 47 -206 62 -280 50 -257 98 -486 161
-768 69 -306 84 -394 65 -377 -11 11 -41 141 -116 495 -20 96 -54 249 -74 340
-21 91 -45 199 -54 240 -9 41 -32 145 -51 230 -39 168 -56 292 -38 275 5 -5
26 -75 45 -155z m-6489 -3 c3 -34 8 -129 10 -212 3 -82 9 -176 12 -209 6 -48
5 -58 -7 -54 -10 3 -16 32 -21 104 -3 54 -11 168 -18 251 -11 147 -8 199 10
188 5 -3 11 -33 14 -68z m5350 -229 c18 -89 39 -201 45 -248 17 -120 88 -550
106 -640 51 -262 65 -359 54 -366 -11 -6 -23 42 -49 197 -12 74 -40 233 -62
354 -22 121 -48 267 -59 325 -10 58 -25 143 -34 190 -45 246 -55 317 -50 339
3 13 8 21 11 18 3 -3 20 -79 38 -169z m-5020 -38 c0 -78 -4 -115 -12 -118 -8
-2 -12 17 -13 65 0 37 -2 88 -4 113 -4 48 1 63 18 57 8 -2 12 -40 11 -117z
m5290 -110 c8 -52 18 -124 21 -160 11 -111 34 -288 61 -458 14 -89 23 -170 19
-180 -12 -31 -22 7 -39 143 -9 72 -28 200 -41 285 -13 85 -33 216 -45 291 -19
126 -19 203 0 182 5 -4 15 -51 24 -103z m-7594 -233 c-12 -67 -37 -186 -56
-264 -33 -138 -97 -431 -114 -523 -46 -253 -78 -373 -87 -330 -3 14 15 109 71
361 14 64 36 174 50 245 59 315 119 602 134 634 25 58 26 11 2 -123z m60 -317
c-15 -122 -59 -381 -104 -602 -16 -83 -38 -135 -43 -107 -2 8 6 56 17 105 20
85 55 282 79 444 6 41 15 130 20 197 5 67 16 132 23 145 12 21 13 19 16 -32 2
-30 -2 -98 -8 -150z m70 -251 c0 -106 -70 -576 -90 -610 -22 -34 -21 11 4 133
24 124 37 232 51 438 7 95 12 120 26 120 5 0 9 -36 9 -81z m160 -206 c0 -42
-19 -154 -47 -280 -5 -23 -30 -50 -38 -41 -2 2 7 39 21 83 18 58 26 107 28
186 2 59 7 113 11 119 13 21 25 -11 25 -67z m1943 -225 c17 -66 27 -213 22
-297 -17 -261 -60 -531 -85 -531 -13 0 -13 13 6 95 42 192 54 392 38 643 -4
75 -3 112 4 112 5 0 12 -10 15 -22z m-509 -602 c-3 -370 -5 -429 -18 -415 -2
2 -6 199 -10 436 -4 318 -3 440 6 460 11 27 12 27 18 -22 4 -27 6 -234 4 -459z
m241 376 c-2 -64 -8 -193 -14 -287 -6 -93 -11 -224 -12 -290 0 -66 -4 -129 -9
-140 -16 -41 -23 14 -16 143 3 70 9 237 11 372 6 286 12 339 35 325 5 -3 7
-58 5 -123z m464 -117 c0 -210 -6 -273 -22 -232 -3 7 -6 102 -6 211 -1 109 -4
202 -6 206 -8 13 14 62 25 55 5 -3 9 -101 9 -240z m395 190 c4 -14 2 -44 -4
-67 -6 -24 -14 -81 -18 -128 -4 -51 -11 -83 -17 -80 -5 3 -9 19 -9 35 6 117
16 238 20 250 9 22 21 18 28 -10z m-1689 -311 c-19 -131 -39 -261 -45 -289
-12 -60 -37 -285 -45 -410 -3 -49 -8 -110 -10 -135 -3 -25 -7 -103 -10 -175
-7 -149 -12 -188 -27 -179 -13 8 7 338 48 779 10 111 74 550 86 585 13 44 28
73 34 67 2 -2 -12 -111 -31 -243z m-650 79 c4 -53 5 -137 2 -187 -4 -50 -13
-199 -22 -331 -18 -289 -24 -358 -35 -376 -18 -29 -21 3 -10 117 25 262 30
369 31 594 0 129 2 245 5 257 12 47 22 20 29 -74z m175 -263 c-20 -162 -35
-275 -75 -569 -9 -63 -22 -128 -30 -145 l-13 -31 -1 36 c-1 19 8 87 20 150 22
125 44 299 54 424 3 44 8 91 11 105 2 14 8 98 14 188 5 96 15 171 22 185 23
39 22 -147 -2 -343z m-340 175 c1 -90 -11 -275 -26 -395 -18 -156 -27 -206
-37 -225 -10 -18 -11 -18 -15 -2 -2 9 2 48 8 85 6 37 15 94 21 127 5 33 12
172 14 308 3 137 8 254 12 260 12 20 22 -51 23 -158z m-598 -27 c-11 -34 -40
-117 -65 -183 -61 -163 -84 -236 -126 -399 -21 -82 -42 -141 -50 -144 -17 -6
-14 9 65 283 100 349 169 533 191 511 3 -2 -4 -33 -15 -68z m438 2 c0 -32 -4
-81 -10 -107 -5 -26 -21 -108 -35 -182 -27 -137 -39 -176 -55 -166 -5 3 2 45
15 93 23 81 34 160 51 337 6 74 10 85 25 85 5 0 9 -27 9 -60z m-123 13 c3 -9
1 -44 -6 -77 -7 -34 -15 -94 -18 -133 -5 -56 -9 -73 -21 -73 -12 0 -13 9 -8
48 4 26 9 83 12 127 5 95 11 125 25 125 5 0 12 -7 16 -17z m824 -165 c-2 -97
-8 -168 -21 -258 -5 -36 -16 -155 -25 -265 -8 -110 -17 -220 -19 -243 -2 -24
-9 -49 -15 -55 -14 -14 -14 57 -1 158 5 39 12 124 15 190 3 66 8 138 10 160 3
22 9 111 15 197 9 140 24 218 38 203 3 -2 4 -42 3 -87z m-1156 -284 c-47 -199
-58 -234 -75 -234 -13 0 -14 -7 15 91 30 98 51 206 66 339 14 119 33 151 37
62 2 -45 -9 -112 -43 -258z m8772 119 c28 -109 59 -234 68 -278 29 -134 114
-502 150 -645 87 -347 105 -424 105 -447 0 -58 -21 -1 -60 165 -44 181 -168
687 -265 1072 -53 213 -74 330 -58 330 5 0 31 -89 60 -197z m197 7 c19 -96 42
-220 51 -275 39 -246 116 -676 155 -865 27 -126 39 -220 29 -226 -12 -7 -27
62 -84 391 -15 86 -65 349 -155 810 -43 218 -61 368 -42 350 5 -5 26 -89 46
-185z m-341 -15 c14 -60 39 -184 57 -275 17 -91 56 -280 87 -420 52 -241 57
-257 87 -284 30 -29 30 -30 9 -35 l-21 -6 34 -130 c42 -163 54 -224 43 -231
-5 -2 -15 19 -23 48 -30 107 -64 244 -70 283 l-7 41 -100 38 c-55 21 -103 35
-106 32 -4 -3 4 -50 17 -104 12 -53 26 -117 31 -142 4 -25 19 -99 33 -165 27
-126 33 -196 16 -179 -5 5 -23 81 -40 169 -34 178 -55 278 -76 376 l-15 66
-80 23 c-44 12 -82 20 -86 17 -5 -6 14 -100 78 -390 11 -49 22 -118 25 -155 9
-111 -14 -50 -46 126 -50 267 -82 416 -94 429 -14 14 -250 63 -254 52 -2 -4
13 -61 33 -126 20 -65 42 -138 49 -163 8 -25 30 -98 50 -163 38 -124 42 -147
27 -147 -6 0 -21 37 -35 83 -40 131 -138 470 -143 495 -7 30 -15 34 -89 41
-64 7 -64 7 -64 -18 0 -56 88 -418 150 -616 36 -115 46 -165 32 -165 -6 0 -21
33 -32 73 -12 39 -23 79 -26 87 -3 8 -42 156 -85 329 -44 173 -82 317 -84 321
-5 8 -233 45 -240 39 -3 -3 9 -43 26 -89 17 -47 36 -107 44 -135 7 -27 50
-171 94 -320 85 -282 104 -365 78 -333 -8 10 -31 82 -52 160 -40 155 -183 590
-221 676 l-23 52 -47 0 c-39 0 -46 -3 -41 -17 12 -43 57 -226 77 -308 25 -108
85 -336 111 -424 20 -68 26 -132 10 -115 -6 5 -30 89 -55 188 -25 98 -62 235
-81 305 -20 69 -50 180 -69 246 -38 136 -34 132 -147 134 l-66 1 28 -97 c15
-54 44 -156 64 -228 20 -71 60 -206 90 -300 62 -200 66 -213 55 -220 -10 -6
-22 24 -55 140 -28 94 -134 437 -190 610 l-32 100 -74 6 c-233 19 -691 24
-1354 15 -520 -8 -895 -30 -1370 -81 -275 -29 -475 -39 -568 -27 -155 20 -120
35 179 76 503 70 761 93 1164 107 162 6 342 8 400 5 58 -3 301 -6 540 -7 239
-1 548 -7 685 -15 138 -7 278 -13 313 -13 l63 -1 -7 45 c-9 62 10 58 31 -5 16
-49 17 -50 58 -51 23 0 68 -2 100 -5 43 -5 57 -3 57 7 0 10 3 10 12 1 15 -15
104 -16 114 -1 5 8 8 8 13 0 6 -9 201 -41 255 -41 21 0 21 -3 -14 187 -12 68
-19 134 -16 149 4 14 9 25 11 22 5 -4 30 -120 55 -257 11 -58 26 -108 32 -113
15 -9 118 -11 118 -2 0 3 -12 45 -26 93 -14 47 -34 118 -46 156 -11 39 -38
126 -60 195 -36 114 -59 230 -45 230 7 0 99 -280 132 -405 15 -55 38 -141 52
-190 l24 -91 131 -22 c72 -12 133 -21 134 -19 3 3 -110 458 -146 587 -11 41
-19 93 -18 115 3 37 6 32 37 -65 35 -112 94 -344 131 -525 13 -60 27 -114 32
-120 8 -9 160 -57 165 -52 4 5 -130 517 -168 642 -35 114 -62 259 -46 245 10
-10 98 -294 131 -425 18 -71 51 -207 72 -302 l39 -172 45 -17 c25 -9 71 -30
104 -46 32 -16 60 -28 61 -26 2 2 -23 114 -55 248 -94 391 -160 714 -159 777
1 72 8 55 42 -92z m-8544 -92 c-4 -27 -18 -86 -32 -133 -14 -47 -30 -118 -37
-158 -13 -69 -24 -92 -37 -78 -4 4 3 48 15 99 12 50 31 135 42 187 28 126 29
130 44 130 10 0 11 -12 5 -47z m87 -210 c-15 -107 -21 -134 -31 -131 -11 3
-11 8 0 103 7 65 11 75 27 75 7 0 9 -16 4 -47z m38 -195 c-3 -29 -17 -107 -30
-173 -42 -205 -84 -436 -84 -457 0 -13 5 -18 14 -15 8 3 64 18 125 33 l110 27
10 66 c15 100 30 253 36 386 7 131 11 155 27 155 19 0 2 -299 -26 -455 -14
-77 -23 -142 -20 -144 4 -4 154 25 160 32 8 8 36 227 43 335 5 68 13 128 19
134 34 34 24 -163 -22 -400 -14 -74 -14 -74 7 -68 12 3 38 6 57 6 19 0 41 4
47 8 8 5 20 71 32 161 14 111 24 158 36 170 16 15 16 10 10 -69 -4 -47 -13
-116 -21 -155 -8 -38 -14 -75 -14 -82 0 -8 25 -10 93 -7 164 9 152 3 166 89 7
43 20 84 31 97 14 16 19 19 20 8 0 -18 -19 -139 -26 -161 -4 -14 2 -15 41 -9
25 4 48 8 50 8 3 1 18 2 34 2 26 0 29 3 34 50 6 49 30 100 40 83 2 -4 1 -34
-2 -66 l-7 -58 55 7 c73 9 91 19 91 52 1 15 7 38 15 52 14 24 14 22 15 -33 l0
-58 48 6 c26 3 70 7 97 9 124 11 297 28 370 37 44 6 143 15 220 19 77 5 192
14 255 20 129 13 317 8 350 -10 20 -11 21 -13 7 -28 -12 -11 -48 -17 -129 -23
-351 -24 -448 -29 -490 -23 -26 4 -82 2 -125 -4 -43 -7 -119 -14 -169 -17 -50
-3 -102 -7 -115 -10 -34 -5 -103 -13 -174 -21 -155 -17 -149 -14 -157 -64 -15
-85 -37 -265 -52 -423 -15 -149 -26 -201 -39 -180 -3 5 -2 45 3 89 5 43 18
171 29 284 11 113 23 220 26 239 6 32 5 33 -19 27 -14 -3 -47 -9 -72 -13 -37
-5 -48 -11 -56 -32 -12 -31 -51 -239 -68 -363 -7 -48 -18 -95 -26 -105 -12
-17 -13 -16 -13 7 0 14 4 48 9 75 12 64 60 377 60 391 0 8 -21 7 -75 -2 -90
-16 -91 -16 -98 -51 -4 -16 -24 -115 -46 -222 -22 -107 -45 -199 -51 -205 -16
-16 -12 40 11 134 21 89 59 284 59 307 0 9 -15 13 -47 13 -51 0 -163 -17 -180
-28 -6 -4 -16 -52 -22 -107 -16 -140 -21 -165 -31 -165 -14 0 -12 46 5 156 9
53 14 99 11 101 -11 12 -139 -12 -146 -27 -5 -8 -20 -61 -35 -118 -15 -57 -36
-113 -46 -125 -27 -33 -24 -8 16 116 19 60 35 115 35 122 0 10 -19 8 -80 -7
l-80 -20 -11 -42 c-43 -161 -59 -200 -74 -184 -2 2 10 50 26 107 16 58 27 106
25 108 -3 3 -93 -15 -213 -42 -16 -4 -25 -17 -33 -45 -13 -50 -34 -54 -24 -5
3 19 3 35 0 35 -22 0 -89 -45 -98 -66 -15 -32 -32 -26 -36 14 -4 38 46 98 112
133 25 13 47 33 50 44 3 11 28 158 56 327 27 169 55 319 60 333 16 43 29 29
24 -27z m-429 -130 c-6 -94 -20 -185 -73 -469 -30 -157 -53 -228 -60 -183 -1
11 9 69 23 129 30 124 62 332 74 487 9 107 14 128 32 128 6 0 8 -34 4 -92z
m200 -20 c-4 -29 -25 -123 -45 -208 -21 -85 -41 -173 -45 -195 -25 -150 -42
-215 -56 -215 -13 0 -12 10 15 134 14 61 39 185 56 276 17 91 33 175 35 187
18 85 51 101 40 21z m1521 -454 c8 -55 0 -186 -21 -369 -27 -225 -38 -285 -56
-285 -12 0 -11 17 5 97 24 116 37 254 37 404 0 151 5 199 19 199 5 0 12 -21
16 -46z m213 -422 c0 -400 -3 -467 -20 -441 -7 11 -14 428 -13 765 0 58 9 88
24 79 6 -4 9 -155 9 -403z m550 -173 c-1 -109 -4 -149 -12 -146 -8 2 -13 50
-15 150 -2 126 0 147 13 147 12 0 15 -23 14 -151z m-213 35 c2 -10 -1 -32 -6
-49 -4 -16 -11 -59 -15 -94 -3 -36 -8 -68 -11 -73 -9 -14 -25 3 -20 20 3 10 8
60 11 112 4 52 9 98 12 103 8 13 26 2 29 -19z m6704 -18 c0 -39 -120 -134
-233 -185 -107 -48 -364 -129 -463 -146 -50 -8 -116 -23 -145 -34 -30 -10 -90
-26 -134 -35 -44 -10 -127 -29 -185 -43 -351 -83 -929 -193 -1020 -193 -30 0
-91 -6 -135 -14 -44 -8 -123 -17 -175 -21 -52 -3 -147 -13 -210 -20 -388 -48
-652 -44 -726 10 -18 13 -18 14 9 24 16 6 59 11 98 11 38 0 135 7 216 15 243
24 482 44 588 50 55 3 128 10 163 16 35 5 129 14 210 19 141 9 252 23 427 55
44 8 158 28 253 45 95 17 203 38 240 46 192 44 313 75 367 94 33 12 103 30
155 41 168 35 454 148 600 237 68 42 100 51 100 28z m-7939 -167 c79 -17 189
-39 244 -49 178 -33 398 -80 490 -105 50 -13 120 -28 157 -34 37 -7 96 -20
131 -31 182 -56 1125 -210 1292 -210 33 0 89 -7 125 -14 36 -8 117 -17 180
-20 63 -4 186 -14 273 -22 213 -19 287 -37 287 -71 0 -14 -17 -15 -147 -10
-215 8 -484 34 -595 57 -53 11 -115 20 -138 20 -22 0 -102 9 -178 20 -75 11
-256 36 -402 55 -458 61 -612 85 -705 110 -49 13 -124 28 -165 34 -41 6 -122
22 -180 36 -58 13 -200 43 -317 65 -116 22 -257 55 -312 74 -102 34 -217 99
-206 116 8 13 3 14 166 -21z"/>
<path d="M11310 19418 c-3 -3 -133 -8 -290 -12 -157 -3 -296 -8 -310 -10 -14
-3 -104 -9 -200 -15 -244 -16 -303 -20 -480 -36 -85 -8 -258 -22 -385 -30
-126 -9 -286 -24 -355 -35 -143 -21 -165 -24 -354 -45 -167 -18 -829 -131
-1063 -180 l-31 -7 14 -42 c10 -27 16 -86 17 -173 l2 -132 113 -3 c62 -2 116
-2 121 0 10 3 2 38 -30 136 -22 69 -24 99 -6 94 13 -5 24 -39 52 -159 l18 -77
191 -7 c105 -4 199 -9 209 -11 31 -5 318 -6 324 -1 2 3 -1 31 -8 62 -9 41 -9
59 -1 67 15 15 32 -29 32 -80 0 -20 4 -42 8 -48 7 -12 238 -26 677 -41 478
-17 1991 -2 2310 22 33 3 143 9 245 15 102 6 253 17 335 25 83 8 188 17 235
19 47 3 89 5 93 5 8 1 5 92 -14 383 -6 86 -10 184 -11 217 -1 56 -2 60 -27 66
-66 14 -1418 45 -1431 33z m1385 -155 c-3 -38 -9 -90 -14 -118 -12 -60 -28
-194 -37 -287 -5 -60 -16 -89 -30 -75 -2 2 2 60 10 128 24 210 36 323 36 346
0 30 17 73 30 73 7 0 9 -24 5 -67z m-144 -30 c3 -76 -3 -388 -7 -392 -2 -2 -7
-1 -11 2 -8 9 -16 374 -8 405 9 35 25 26 26 -15z m-153 -228 c0 -131 -3 -165
-14 -165 -10 0 -14 32 -16 149 -3 167 -2 181 17 181 11 0 14 -31 13 -165z
m-4122 -2 c18 -60 22 -275 7 -280 -10 -4 -13 15 -14 69 0 40 -4 96 -9 123 -23
124 -24 138 -9 133 7 -2 19 -23 25 -45z m123 -5 c5 -29 18 -93 27 -143 9 -49
19 -100 21 -112 4 -16 1 -23 -10 -23 -10 0 -17 15 -22 48 -4 26 -18 94 -31
151 -14 58 -23 110 -20 118 11 27 25 11 35 -39z m270 20 c5 -18 17 -85 27
-148 9 -63 19 -130 21 -147 6 -37 -14 -47 -21 -10 -47 240 -61 317 -58 326 7
21 20 11 31 -21z m-124 -8 c4 -6 15 -63 26 -128 32 -191 32 -192 21 -192 -6 0
-14 17 -18 38 -3 20 -15 74 -25 119 -27 115 -34 173 -21 173 6 0 14 -5 17 -10z"/>
<path d="M14485 19253 c6 -39 13 -160 14 -245 1 -27 5 -48 11 -48 6 0 7 41 3
110 -5 86 -3 113 8 126 13 16 15 15 20 -12 3 -16 4 -70 1 -120 l-5 -91 32 5
c18 2 35 11 38 20 4 8 -2 68 -11 133 -10 65 -15 123 -12 128 4 6 -10 13 -31
16 -21 4 -46 9 -56 12 -15 4 -17 -1 -12 -34z"/>
<path d="M8048 19193 c7 -3 16 -2 19 1 4 3 -2 6 -13 5 -11 0 -14 -3 -6 -6z"/>
<path d="M7988 19183 c7 -3 16 -2 19 1 4 3 -2 6 -13 5 -11 0 -14 -3 -6 -6z"/>
<path d="M14720 19101 c0 -37 13 -81 24 -81 6 0 42 12 81 27 65 25 68 27 42
34 -16 4 -34 12 -40 17 -7 5 -33 12 -59 15 -42 6 -48 4 -48 -12z"/>
<path d="M7438 19063 c7 -3 16 -2 19 1 4 3 -2 6 -13 5 -11 0 -14 -3 -6 -6z"/>
<path d="M7280 19040 c-52 -10 -140 -21 -195 -25 -95 -6 -104 -9 -180 -52 -77
-44 -389 -246 -410 -266 -22 -21 113 60 160 96 67 51 200 117 236 117 32 0 39
-19 15 -40 -8 -6 -13 -17 -11 -23 2 -7 6 -46 9 -88 7 -103 10 -109 47 -96 34
13 36 28 14 136 -16 74 -15 101 4 101 11 0 17 -31 26 -129 3 -36 8 -68 11 -72
2 -4 18 -3 35 3 34 12 34 8 9 125 -8 34 -11 66 -7 70 15 14 29 -17 37 -82 10
-78 17 -89 54 -79 30 7 31 14 11 91 -9 34 -11 61 -6 66 17 17 28 -3 34 -64 8
-71 12 -79 37 -79 17 0 18 6 13 69 -4 48 -2 70 6 76 21 12 26 -4 23 -80 l-3
-73 71 -7 c39 -4 73 -5 76 -3 2 3 -1 28 -7 57 -6 28 -8 60 -4 69 12 32 35 -17
35 -74 0 -54 8 -64 52 -64 19 0 20 4 14 43 -12 85 -17 112 -21 125 -5 15 4 42
16 42 12 0 27 -67 28 -134 1 -32 4 -62 6 -66 3 -4 21 -10 40 -12 41 -5 41 -7
20 111 -11 59 -12 88 -5 95 18 18 27 -10 34 -107 4 -53 12 -95 19 -99 7 -4 38
-8 70 -8 l57 0 0 68 c0 37 -5 94 -12 127 -6 33 -11 74 -12 90 l-1 30 -210 -36
c-226 -40 -467 -64 -492 -50 -23 12 38 33 227 76 91 20 167 39 169 41 8 8 -46
2 -139 -16z"/>
<path d="M7763 19033 c-27 -5 -27 -2 -9 -44 9 -21 15 -82 18 -156 l3 -123 39
0 39 0 -6 113 c-7 135 -25 218 -47 216 -8 -1 -25 -4 -37 -6z"/>
<path d="M6823 18819 c-28 -18 -31 -23 -27 -62 16 -150 17 -152 63 -136 33 12
33 12 28 63 -11 96 -20 146 -26 151 -4 2 -21 -5 -38 -16z"/>
<path d="M6724 18762 c-19 -15 -22 -28 -23 -109 -1 -51 1 -93 4 -93 3 0 24 9
45 20 44 22 49 40 30 109 -5 20 -12 48 -15 64 -6 31 -12 33 -41 9z"/>
<path d="M6607 18693 c-41 -20 -46 -26 -37 -43 5 -10 15 -41 21 -69 10 -48 12
-51 37 -45 40 10 48 19 47 56 -4 110 -6 128 -12 127 -5 -1 -29 -13 -56 -26z"/>
<path d="M6509 18626 c-21 -18 -25 -30 -24 -74 1 -37 -3 -52 -12 -52 -9 0 -13
14 -13 40 0 22 -5 40 -10 40 -14 0 -110 -94 -110 -108 0 -6 10 -16 22 -23 18
-9 36 -5 115 26 l93 38 0 41 c0 23 -8 53 -18 68 l-17 26 -26 -22z"/>
<path d="M14821 16104 c0 -11 3 -14 6 -6 3 7 2 16 -1 19 -3 4 -6 -2 -5 -13z"/>
<path d="M17896 14878 c-4 -35 -14 -99 -22 -143 -14 -67 -14 -87 -3 -133 19
-78 25 -47 34 161 7 179 3 229 -9 115z"/>
<path d="M17930 14739 c0 -23 -5 -92 -12 -153 -10 -96 -6 -197 8 -184 7 7 17
378 11 378 -4 0 -7 -19 -7 -41z"/>
<path d="M18141 14200 c-1 -8 -6 -53 -11 -100 -5 -47 -14 -147 -20 -224 -9
-127 -8 -145 12 -222 11 -47 22 -83 23 -82 17 18 22 529 6 603 -5 22 -9 33
-10 25z"/>
<path d="M18182 13698 l-12 -233 24 -90 c28 -106 28 -110 27 184 0 113 4 210
9 216 9 11 -18 155 -30 155 -3 0 -11 -105 -18 -232z"/>
<path d="M18261 13620 c-1 -19 -6 -120 -12 -224 -10 -168 -10 -202 7 -314 26
-179 36 -127 30 146 -4 140 -2 230 5 245 7 16 5 43 -10 102 -14 61 -19 72 -20
45z"/>
<path d="M7411 13624 c0 -11 3 -14 6 -6 3 7 2 16 -1 19 -3 4 -6 -2 -5 -13z"/>
<path d="M7401 13574 c0 -11 3 -14 6 -6 3 7 2 16 -1 19 -3 4 -6 -2 -5 -13z"/>
<path d="M7391 13514 c0 -11 3 -14 6 -6 3 7 2 16 -1 19 -3 4 -6 -2 -5 -13z"/>
<path d="M7382 13455 c0 -16 2 -22 5 -12 2 9 2 23 0 30 -3 6 -5 -1 -5 -18z"/>
<path d="M7372 13400 c0 -14 2 -19 5 -12 2 6 2 18 0 25 -3 6 -5 1 -5 -13z"/>
<path d="M7362 13345 c0 -16 2 -22 5 -12 2 9 2 23 0 30 -3 6 -5 -1 -5 -18z"/>
<path d="M15441 12774 c0 -11 3 -14 6 -6 3 7 2 16 -1 19 -3 4 -6 -2 -5 -13z"/>
<path d="M15452 12720 c0 -14 2 -19 5 -12 2 6 2 18 0 25 -3 6 -5 1 -5 -13z"/>
<path d="M18542 12125 c0 -16 2 -22 5 -12 2 9 2 23 0 30 -3 6 -5 -1 -5 -18z"/>
</g>
</svg>
