<?xml version="1.0" standalone="no"?>
<!DOCTYPE svg PUBLIC "-//W3C//DTD SVG 20010904//EN"
 "http://www.w3.org/TR/2001/REC-SVG-20010904/DTD/svg10.dtd">
<svg version="1.0" xmlns="http://www.w3.org/2000/svg"
 width="2500.000000pt" height="2501.000000pt" viewBox="0 0 2500.000000 2501.000000"
 preserveAspectRatio="xMidYMid meet">

<g transform="translate(0.000000,2501.000000) scale(0.100000,-0.100000)"
fill="#000000" stroke="none">
<path d="M10808 19673 c12 -2 30 -2 40 0 9 3 -1 5 -23 4 -22 0 -30 -2 -17 -4z"/>
<path d="M11568 19673 c12 -2 30 -2 40 0 9 3 -1 5 -23 4 -22 0 -30 -2 -17 -4z"/>
<path d="M10328 19653 c17 -2 47 -2 65 0 17 2 3 4 -33 4 -36 0 -50 -2 -32 -4z"/>
<path d="M12313 19653 c15 -2 39 -2 55 0 15 2 2 4 -28 4 -30 0 -43 -2 -27 -4z"/>
<path d="M10033 19633 c15 -2 37 -2 50 0 12 2 0 4 -28 4 -27 0 -38 -2 -22 -4z"/>
<path d="M12623 19633 c15 -2 37 -2 50 0 12 2 0 4 -28 4 -27 0 -38 -2 -22 -4z"/>
<path d="M9458 19613 c18 -2 45 -2 60 0 15 2 0 4 -33 4 -33 0 -45 -2 -27 -4z"/>
<path d="M13091 19616 c11 -9 90 -16 84 -6 -3 5 -25 10 -47 10 -23 0 -39 -2
-37 -4z"/>
<path d="M9255 19589 c-5 -7 8 -8 41 -3 64 9 68 14 11 14 -25 0 -49 -5 -52
-11z"/>
<path d="M13235 19590 c17 -4 39 -8 50 -9 16 -1 17 1 5 9 -8 5 -31 9 -50 9
l-35 -1 30 -8z"/>
<path d="M9110 19570 c-12 -8 -10 -10 10 -9 14 0 43 4 65 8 l40 9 -50 1 c-27
0 -57 -4 -65 -9z"/>
<path d="M13335 19575 c25 -9 104 -12 99 -4 -3 5 -29 9 -57 8 -29 0 -47 -2
-42 -4z"/>
<path d="M8910 19550 c-15 -5 15 -6 70 -3 52 3 97 7 99 9 9 8 -145 2 -169 -6z"/>
<path d="M10990 19550 c-243 -14 -590 -40 -870 -65 -151 -13 -365 -28 -475
-34 -140 -7 -250 -19 -366 -40 -91 -16 -239 -37 -330 -46 -106 -10 -276 -38
-484 -81 -505 -102 -513 -108 -43 -29 180 30 416 64 524 75 108 11 266 29 352
40 86 11 244 25 351 30 108 6 286 17 396 25 298 22 744 43 1061 51 360 8 1458
-13 1664 -32 85 -8 263 -21 395 -29 325 -21 782 -67 935 -95 27 -5 50 -5 57 1
7 6 12 6 15 -1 2 -6 55 -22 118 -36 126 -28 154 -39 144 -56 -4 -6 -35 -9 -85
-6 l-78 5 4 -66 c2 -36 7 -103 11 -148 4 -57 3 -83 -4 -83 -12 0 -17 25 -27
130 -4 36 -9 85 -12 110 -4 43 -23 70 -49 70 -18 0 -28 -94 -22 -200 5 -78 -2
-124 -15 -110 -3 3 -7 71 -9 153 -3 81 -8 150 -12 154 -7 7 -184 32 -233 33
-30 0 -32 -2 -27 -27 5 -28 -20 -267 -32 -297 -12 -30 -26 -17 -19 17 3 17 9
96 12 175 5 133 4 142 -14 142 -10 1 -65 6 -123 13 l-105 13 -3 -201 c-2 -110
-6 -202 -8 -204 -10 -11 -13 18 -19 204 -4 110 -8 201 -10 203 -2 3 -157 16
-410 37 l-70 5 -3 -282 c-2 -155 -5 -285 -8 -287 -14 -14 -17 37 -18 289 -1
260 -2 280 -18 280 -16 0 -18 -11 -18 -92 -1 -129 -38 -403 -60 -439 -21 -33
-22 9 -1 98 24 107 38 297 27 385 l-7 56 -67 7 c-37 3 -78 9 -91 12 -21 5 -23
3 -17 -13 6 -15 28 -473 29 -611 0 -32 1 -33 46 -33 26 0 105 7 176 15 702 83
1233 123 1250 96 10 -18 -33 -31 -162 -51 -290 -44 -1194 -130 -1363 -130 -67
0 -197 -7 -289 -15 -202 -18 -779 -47 -1546 -77 -385 -16 -1468 -15 -1870 1
-165 6 -433 16 -595 21 -607 21 -931 47 -1114 90 -110 26 -139 23 -226 -20
-68 -33 -142 -63 -353 -144 -37 -14 -76 -26 -87 -26 -10 0 -73 -20 -140 -45
-143 -53 -198 -58 -235 -20 -46 46 -30 93 59 168 36 30 75 62 87 71 13 8 20
18 17 22 -4 3 -38 -18 -75 -47 -38 -30 -94 -69 -124 -88 -31 -18 -64 -46 -73
-61 -22 -37 -20 -124 3 -175 48 -106 389 -350 771 -550 461 -243 442 -231 500
-293 30 -33 83 -80 116 -105 163 -122 281 -313 292 -472 3 -38 10 -73 16 -77
25 -16 7 -177 -64 -588 -27 -157 -63 -373 -80 -480 -41 -264 -220 -1366 -281
-1729 -27 -162 -48 -296 -46 -297 8 -9 90 367 112 516 49 324 67 428 116 660
28 129 72 375 100 545 27 171 78 463 114 650 105 552 128 711 128 860 0 192
-27 298 -167 663 -36 93 -68 181 -72 196 -10 42 17 32 69 -23 129 -137 290
-467 330 -676 44 -225 26 -417 -103 -1071 -38 -193 -90 -475 -115 -625 -25
-151 -72 -391 -105 -534 -33 -143 -82 -395 -110 -560 -31 -186 -71 -381 -106
-514 -52 -202 -215 -1056 -310 -1626 -19 -115 -64 -361 -99 -545 -108 -565
-152 -806 -190 -1025 -20 -115 -65 -376 -100 -580 -36 -203 -76 -462 -90 -575
-34 -275 -50 -368 -90 -545 -19 -83 -44 -214 -55 -290 -41 -272 -72 -383 -218
-797 -170 -480 -212 -642 -212 -817 0 -152 34 -252 127 -374 32 -43 50 -74 44
-80 -27 -27 -141 38 -196 113 -144 196 -150 456 -20 860 20 63 84 243 142 400
121 329 161 467 203 709 17 96 46 235 65 310 39 154 65 297 95 521 12 85 48
301 80 480 33 179 75 420 94 535 20 116 85 496 145 845 60 349 119 703 131
785 11 83 59 384 106 669 46 285 83 523 81 529 -1 5 -38 -188 -81 -430 -171
-960 -200 -1113 -286 -1513 -105 -491 -119 -566 -205 -1031 -85 -465 -111
-589 -205 -979 -80 -331 -105 -447 -211 -970 -67 -334 -89 -422 -189 -745
-115 -372 -153 -539 -170 -742 -20 -234 12 -397 91 -469 64 -58 182 -130 278
-170 258 -109 1138 -321 2246 -543 725 -145 931 -178 1393 -221 433 -40 625
-44 1448 -32 954 15 1058 22 1549 98 1023 159 1548 274 2330 511 596 180 712
214 832 244 70 17 143 39 163 49 19 9 59 25 88 35 29 9 66 28 82 41 33 28 75
92 66 101 -3 3 -10 -5 -15 -18 -19 -51 -66 -81 -196 -129 -33 -12 -70 -26 -83
-31 -13 -5 -34 -9 -47 -9 -14 0 -45 -5 -70 -12 -40 -11 -47 -10 -62 5 -17 17
-17 18 5 24 13 3 21 11 19 17 -2 6 3 16 12 23 14 11 14 12 -1 13 -10 0 -18 5
-18 10 0 6 25 10 55 10 30 0 55 5 55 10 0 6 6 10 14 10 7 0 19 7 26 15 7 8 28
15 46 15 19 0 34 5 34 10 0 6 15 10 33 10 39 0 57 15 57 46 0 13 5 26 10 29
13 8 13 182 0 190 -5 3 -10 46 -10 95 0 49 -4 92 -10 95 -11 7 -12 126 -1 164
8 28 31 41 31 17 0 -9 15 -37 34 -64 24 -32 40 -72 52 -122 9 -41 20 -82 25
-90 10 -16 9 -13 -11 83 -6 26 -39 206 -75 400 -36 194 -85 451 -110 572 -26
124 -59 326 -75 465 -32 265 -39 302 -99 577 -22 100 -61 300 -86 445 -25 145
-77 421 -115 613 -38 193 -114 584 -170 870 -56 286 -119 603 -142 705 -22
102 -82 390 -133 640 -51 250 -94 450 -94 443 -1 -17 158 -901 214 -1188 24
-126 74 -403 110 -615 83 -489 104 -601 170 -945 29 -154 72 -386 95 -515 23
-129 55 -293 71 -365 60 -261 80 -373 104 -591 14 -123 41 -306 60 -407 120
-636 147 -973 92 -1178 -48 -183 -131 -300 -255 -361 -54 -27 -78 -32 -151
-35 -97 -4 -183 19 -189 49 -4 19 27 29 139 47 117 19 199 68 244 145 26 44
26 45 7 64 -15 15 -22 44 -31 138 -30 314 -109 696 -206 1004 -46 147 -62 220
-48 220 10 0 103 -267 127 -365 50 -202 120 -589 151 -835 9 -74 18 -136 19
-137 1 -2 10 3 19 10 30 22 49 124 54 290 5 140 4 157 -10 151 -17 -6 -26 19
-62 166 -10 41 -40 156 -67 255 -27 99 -65 239 -83 310 -19 72 -43 161 -55
200 -21 72 -26 135 -12 135 10 0 84 -257 108 -370 33 -163 172 -680 173 -646
2 44 -53 458 -89 676 -21 129 -43 289 -50 355 -6 66 -15 170 -21 230 -6 61
-32 220 -59 355 -27 135 -72 378 -99 540 -28 162 -57 328 -65 368 -9 39 -74
378 -146 751 -71 373 -150 770 -174 882 -111 511 -267 1325 -291 1519 -16 125
-47 301 -80 450 -55 248 -73 344 -120 640 -15 91 -46 253 -70 360 -24 107 -65
303 -91 435 -31 155 -50 231 -54 215 -9 -38 -18 -14 -45 122 -13 68 -34 168
-45 223 -16 72 -19 105 -11 117 7 11 3 53 -14 145 -79 431 -97 571 -102 806
-6 237 0 275 31 231 20 -27 60 -164 101 -349 19 -88 42 -182 50 -210 14 -47
15 -48 10 -10 -12 90 -67 441 -95 610 -47 270 -53 629 -12 643 16 5 35 -42 58
-140 10 -43 22 -78 26 -78 5 0 13 12 19 28 6 15 18 36 28 47 28 32 52 138 61
271 4 67 13 132 20 144 9 18 9 21 0 15 -7 -4 -37 -58 -66 -119 -60 -126 -62
-130 -81 -115 -20 17 -16 126 7 200 52 167 182 305 379 404 152 76 415 148
596 161 47 4 85 11 85 17 0 53 -116 332 -179 431 -31 50 -41 91 -20 84 34 -11
158 -284 215 -470 l18 -58 60 -1 c34 0 82 -4 109 -8 26 -4 47 -6 47 -5 0 2
-28 63 -61 136 -92 198 -154 408 -121 408 5 0 21 -42 36 -92 56 -193 78 -253
117 -332 62 -122 66 -127 153 -152 42 -12 76 -19 76 -15 0 10 -27 82 -48 132
-26 59 -112 198 -157 253 -19 24 -35 50 -35 60 0 83 175 -195 253 -402 23 -61
24 -63 95 -97 96 -46 184 -106 260 -178 l62 -60 1 54 c1 30 2 59 4 64 1 6 3
16 3 23 1 6 8 12 16 12 8 0 16 7 20 15 9 24 23 17 35 -16 17 -48 27 -249 13
-249 -14 0 -13 -3 -16 70 -1 30 -8 82 -16 115 l-14 60 -8 -40 c-23 -110 -22
-127 12 -170 18 -22 55 -74 82 -115 45 -67 49 -71 44 -40 -19 100 -19 120 -3
120 18 0 25 -29 31 -136 4 -63 10 -79 62 -169 150 -260 222 -440 354 -881 152
-508 210 -725 400 -1494 50 -201 93 -372 96 -380 21 -51 60 335 49 480 -6 71
4 114 21 97 4 -4 10 -58 12 -120 3 -61 9 -115 15 -118 5 -4 10 -64 10 -144 1
-97 4 -130 11 -113 18 44 28 -85 17 -217 -20 -231 -22 -300 -12 -325 7 -19 10
10 10 111 1 97 5 140 15 154 12 16 14 11 20 -46 4 -35 4 -132 0 -215 l-7 -152
38 -143 c21 -79 41 -147 44 -152 7 -7 31 373 31 479 0 27 -23 149 -51 270 -87
380 -136 644 -119 644 3 0 43 -161 89 -357 46 -197 88 -377 93 -400 6 -24 14
-40 19 -37 5 3 9 -16 9 -42 0 -27 9 -87 20 -134 10 -47 40 -182 64 -300 25
-118 77 -363 115 -545 161 -764 231 -1220 257 -1687 6 -92 10 -115 20 -111 17
6 17 -6 4 -78 -5 -30 -14 -134 -19 -232 -13 -220 -35 -281 -27 -74 2 75 3 137
1 137 -2 0 -9 -31 -15 -70 -11 -65 -23 -90 -37 -76 -3 3 4 49 16 103 12 54 26
121 32 148 7 35 7 106 -1 235 -6 102 -13 231 -17 287 -6 99 -23 135 -23 50 0
-23 -5 -60 -10 -82 -4 -22 -14 -103 -20 -180 -12 -155 -16 -173 -30 -159 -6 6
-6 41 0 94 5 47 15 161 21 254 10 129 16 173 28 185 18 18 18 22 -25 306 -31
205 -80 467 -140 750 -50 236 -56 256 -48 170 3 -33 1 -174 -6 -312 -11 -245
-10 -256 11 -355 12 -57 24 -105 27 -108 2 -3 2 69 -1 160 -6 154 0 206 20
186 8 -8 11 -183 5 -361 -3 -75 2 -131 20 -224 14 -69 28 -120 32 -113 4 6 7
85 8 174 0 96 5 171 11 183 10 19 12 18 18 -10 13 -58 9 -175 -11 -331 -12
-86 -18 -169 -16 -183 3 -14 15 -183 27 -376 24 -389 22 -693 -5 -915 -19
-149 -19 -147 -7 -134 5 5 12 34 15 64 4 30 10 84 14 120 l7 65 7 -55 c11 -78
10 -148 -2 -155 -5 -3 -10 -21 -10 -40 0 -19 -4 -37 -10 -40 -5 -3 -10 -42
-10 -86 0 -46 -4 -79 -10 -79 -5 0 -10 -18 -10 -39 0 -22 -4 -43 -10 -46 -5
-3 -10 -26 -10 -50 0 -24 -4 -47 -10 -50 -5 -3 -10 -28 -10 -56 0 -27 -4 -49
-10 -49 -5 0 -10 -13 -10 -30 0 -16 -4 -30 -10 -30 -5 0 -10 -22 -10 -48 0
-36 -5 -54 -20 -67 -14 -13 -20 -31 -20 -61 0 -24 -4 -46 -10 -49 -5 -3 -10
-15 -10 -26 0 -10 -4 -19 -10 -19 -5 0 -10 -9 -10 -19 0 -11 -4 -23 -10 -26
-5 -3 -10 -15 -10 -26 0 -11 -16 -52 -35 -92 -32 -65 -45 -117 -29 -117 9 0
43 44 44 56 0 6 9 19 20 29 11 10 20 23 20 30 0 7 9 20 20 30 11 10 20 26 20
37 0 10 5 18 10 18 6 0 10 9 10 20 0 11 4 20 8 20 5 0 15 12 22 28 8 15 20 35
28 44 20 24 62 109 62 125 0 7 5 13 10 13 6 0 10 8 10 18 0 11 9 27 20 37 11
10 20 23 20 30 0 7 9 20 21 31 14 13 19 27 16 47 -2 15 0 30 5 33 4 3 8 14 8
25 0 10 5 19 10 19 6 0 10 6 10 14 0 8 14 40 30 71 17 31 30 68 30 81 0 13 9
39 20 59 11 20 20 47 20 60 0 14 5 25 10 25 6 0 10 9 10 19 0 11 5 23 10 26 6
3 10 21 10 40 0 19 5 37 10 40 6 3 10 19 10 34 0 30 20 81 33 81 4 0 7 15 7
33 0 19 8 49 17 67 14 30 17 32 23 14 6 -15 9 -12 15 19 4 21 13 37 21 37 9 0
14 11 14 29 0 18 10 41 24 56 14 15 27 44 30 70 8 49 25 70 27 33 4 -62 -13
-196 -37 -283 -44 -167 -87 -302 -124 -390 -5 -11 -14 -38 -21 -60 -7 -22 -17
-44 -21 -50 -4 -5 -8 -15 -8 -22 0 -7 -9 -33 -21 -58 -11 -24 -19 -50 -17 -57
6 -16 91 202 162 412 115 342 140 500 139 855 -1 354 -25 527 -143 1064 -38
174 -112 525 -165 781 -136 660 -151 730 -205 965 -27 116 -81 350 -120 520
-68 296 -153 638 -220 884 -17 63 -53 214 -81 335 -60 269 -85 351 -204 671
-51 138 -112 304 -135 370 -133 381 -203 534 -372 814 -136 226 -304 431 -453
555 -27 22 7 -15 76 -84 198 -196 341 -404 513 -745 102 -201 112 -224 151
-345 15 -47 32 -89 36 -95 5 -5 9 -17 9 -27 0 -10 9 -37 19 -61 11 -23 25 -60
31 -82 7 -22 16 -44 20 -50 4 -5 10 -21 13 -35 2 -14 17 -56 32 -95 66 -170
111 -294 135 -370 48 -152 60 -196 60 -214 0 -11 5 -33 11 -48 6 -15 15 -37
19 -48 5 -11 11 -38 14 -60 3 -22 10 -60 16 -85 6 -25 15 -70 20 -100 4 -30
13 -68 20 -85 6 -16 21 -64 32 -105 40 -152 47 -176 67 -250 21 -74 44 -174
75 -320 9 -41 21 -83 26 -92 6 -10 10 -29 10 -42 0 -14 7 -51 16 -83 9 -32 20
-80 25 -108 11 -72 20 -105 30 -111 5 -3 9 -24 9 -48 0 -24 9 -69 20 -102 11
-32 20 -71 20 -85 0 -15 7 -46 16 -70 8 -24 21 -73 29 -109 8 -36 23 -103 34
-150 35 -150 64 -290 81 -400 7 -41 16 -84 20 -95 5 -11 11 -40 14 -65 2 -25
9 -65 16 -90 6 -25 14 -74 19 -110 4 -36 15 -85 24 -110 9 -25 17 -58 17 -75
0 -16 4 -46 9 -65 5 -19 12 -61 16 -92 l6 -58 -28 0 c-16 0 -34 -5 -41 -12 -9
-9 -16 -7 -32 7 -15 13 -20 31 -20 67 0 26 -4 48 -10 48 -5 0 -10 18 -10 40 0
22 -4 40 -10 40 -5 0 -10 13 -10 29 0 17 -4 33 -10 36 -5 3 -10 21 -10 40 0
19 -4 37 -10 40 -5 3 -10 26 -10 50 0 24 -4 47 -10 50 -5 3 -10 39 -10 80 0
41 -4 77 -10 80 -5 3 -10 19 -10 35 0 16 -4 32 -10 35 -5 3 -10 21 -10 40 0
19 -4 37 -10 40 -5 3 -10 21 -10 40 0 19 -4 37 -10 40 -5 3 -10 33 -10 66 0
33 -4 59 -10 59 -6 0 -10 28 -10 65 0 46 -6 75 -20 100 -11 20 -20 53 -20 75
0 21 -4 42 -10 45 -5 3 -10 15 -10 26 0 10 -4 19 -10 19 -6 0 -10 33 -10 79 0
44 -4 83 -10 86 -5 3 -10 21 -10 40 0 19 -4 37 -10 40 -5 3 -10 17 -10 30 0
13 -4 26 -9 29 -4 3 -11 38 -14 77 -3 40 -11 77 -17 83 -5 5 -10 40 -10 76 0
46 -6 79 -20 108 -11 22 -20 54 -20 71 0 16 -4 33 -10 36 -5 3 -10 21 -10 40
0 19 -4 37 -10 40 -5 3 -10 24 -10 46 0 21 -4 39 -10 39 -6 0 -10 26 -10 58 0
46 -4 63 -20 77 -14 13 -20 31 -20 61 0 24 -4 46 -10 49 -5 3 -10 19 -10 36 0
16 -4 29 -10 29 -5 0 -10 22 -10 49 0 28 -4 53 -10 56 -5 3 -10 21 -10 40 0
19 -4 37 -10 40 -5 3 -10 17 -10 30 0 13 -4 27 -10 30 -5 3 -10 28 -10 55 0
27 -4 52 -10 55 -5 3 -10 17 -10 30 0 13 -5 27 -10 30 -6 3 -9 33 -9 66 1 34
-4 65 -11 74 -7 8 -9 15 -4 15 4 0 3 5 -4 12 -7 7 -12 29 -12 49 0 21 -4 41
-10 44 -5 3 -10 21 -10 40 0 19 -4 37 -10 40 -5 3 -10 17 -10 30 0 13 -4 27
-10 30 -5 3 -10 24 -10 46 0 21 -4 39 -10 39 -5 0 -10 9 -10 20 0 11 -4 20
-10 20 -5 0 -10 13 -10 29 0 17 -4 33 -10 36 -5 3 -10 17 -10 30 0 13 -4 27
-10 30 -5 3 -10 17 -10 30 0 13 -4 27 -10 30 -5 3 -10 18 -10 33 0 16 -8 34
-20 42 -13 9 -20 26 -20 47 0 18 -9 48 -20 68 -11 20 -20 47 -20 60 0 13 -9
40 -20 60 -11 20 -20 42 -20 50 0 8 -4 15 -10 15 -5 0 -10 13 -10 29 0 17 -4
32 -9 35 -9 6 -25 81 -22 107 1 8 -8 24 -19 34 -11 10 -20 31 -20 47 0 15 -4
28 -10 28 -5 0 -10 13 -10 29 0 17 -4 33 -10 36 -5 3 -10 14 -10 24 0 23 -26
75 -45 91 -8 7 -15 29 -15 49 0 25 -6 41 -20 51 -11 8 -20 20 -20 26 0 6 -18
46 -40 89 -22 43 -40 84 -40 91 0 8 -4 14 -9 14 -5 0 -19 21 -31 48 -12 26
-32 58 -43 72 -29 33 -47 66 -47 85 0 8 -4 15 -10 15 -5 0 -10 8 -10 18 0 10
-13 31 -30 47 -16 16 -30 34 -30 39 0 6 -23 34 -50 63 -28 28 -56 62 -63 76
-15 30 -198 227 -210 227 -9 0 -54 32 -91 65 -28 25 -103 65 -122 65 -7 0 -29
9 -49 20 -20 11 -44 20 -55 20 -11 0 -20 5 -20 10 0 6 -9 10 -20 10 -11 0 -20
5 -20 10 0 6 -18 10 -40 10 -22 0 -55 9 -75 20 -20 11 -53 20 -75 20 -22 0
-40 5 -40 10 0 6 -24 10 -54 10 -30 0 -58 5 -61 10 -3 6 -21 10 -40 10 -19 0
-37 5 -40 10 -3 6 -21 10 -38 10 -54 0 -155 37 -193 69 l-35 31 63 0 c35 0 88
-7 118 -16 30 -8 78 -19 105 -24 94 -17 115 -22 121 -31 3 -5 22 -9 42 -9 26
1 32 3 22 9 -16 10 -229 62 -325 81 -117 23 -501 122 -544 141 -24 11 -46 17
-49 14 -3 -3 -7 -33 -8 -67 -2 -38 -8 -65 -16 -69 -7 -4 -24 -17 -37 -28 -13
-12 -27 -21 -31 -21 -26 0 -5 -56 105 -277 69 -136 125 -254 125 -260 0 -35
-23 -3 -74 100 -30 61 -85 167 -121 235 -36 67 -65 131 -65 142 0 22 -7 25
-29 11 -13 -8 -45 2 -61 19 -3 3 -30 18 -60 33 -70 35 -91 48 -110 68 -8 9
-22 18 -30 22 -8 3 0 6 18 6 37 1 40 10 12 34 -19 16 -24 15 -115 -28 -52 -25
-103 -45 -114 -45 -30 0 -51 -11 -51 -25 0 -20 -21 -30 -31 -14 -12 21 -99
-24 -99 -51 0 -11 -4 -20 -10 -20 -5 0 -10 6 -10 14 0 11 -9 13 -36 9 -37 -6
-84 12 -84 32 0 7 7 26 15 43 10 20 18 74 22 152 4 73 11 127 19 138 12 16 13
16 20 -2 4 -11 2 -51 -4 -90 -17 -108 -25 -186 -19 -186 4 0 18 5 33 12 25 12
26 15 20 68 -15 123 -26 272 -21 280 8 12 6 13 -330 64 -347 53 -330 51 -579
76 -109 11 -266 34 -350 51 -113 22 -199 32 -341 40 -104 5 -278 16 -385 25
-220 18 -1247 28 -1480 14z m2220 -262 c6 -24 13 -49 16 -56 2 -8 6 -80 9
-160 6 -159 -3 -283 -21 -289 -8 -3 -10 33 -7 129 3 75 0 175 -7 228 -23 184
-23 190 -12 190 6 0 16 -19 22 -42z m230 -239 c0 -188 -3 -240 -12 -237 -10 4
-14 61 -16 234 -2 231 0 260 18 249 6 -4 10 -96 10 -246z m275 6 c-2 -119 -7
-181 -14 -183 -8 -3 -11 31 -12 105 0 59 -2 144 -4 188 -3 50 0 84 8 93 20 25
24 -15 22 -203z m-338 108 c-3 -32 -10 -123 -17 -203 -6 -80 -14 -147 -16
-149 -14 -15 -20 25 -13 94 4 44 8 126 8 182 1 108 14 164 33 145 6 -6 8 -33
5 -69z m726 69 c3 -4 -1 -25 -9 -47 -7 -22 -14 -68 -14 -102 0 -64 -14 -84
-26 -37 -8 32 1 130 15 167 10 26 25 35 34 19z m-141 -145 c-3 -101 -24 -209
-41 -215 -11 -4 -12 3 -6 29 3 19 9 84 11 144 6 127 9 144 27 126 8 -8 11 -38
9 -84z m783 -174 c21 -8 97 -122 89 -134 -10 -16 -24 -9 -30 16 -3 13 -24 40
-45 60 -21 19 -39 42 -39 50 0 17 2 18 25 8z m-33 -83 c12 -56 -1 -71 -22 -25
-24 51 -24 67 -3 63 10 -2 20 -17 25 -38z m647 -17 c15 -32 40 -89 54 -128 31
-85 48 -125 98 -234 46 -97 57 -135 40 -130 -7 3 -24 31 -38 64 -14 33 -49
112 -78 175 -103 223 -127 281 -121 296 9 23 14 17 45 -43z m430 -13 c64 -97
194 -452 175 -481 -10 -17 -19 4 -43 101 -23 91 -93 251 -148 339 -39 61 -54
96 -46 105 9 9 20 -1 62 -64z m-300 3 c16 -32 51 -114 79 -183 27 -69 73 -174
102 -234 35 -72 49 -111 42 -118 -12 -12 -14 -9 -75 132 -25 58 -80 177 -121
265 -42 88 -76 168 -76 178 0 33 20 17 49 -40z m-920 -47 c13 -30 35 -62 52
-75 31 -23 38 -41 15 -41 -16 0 -80 71 -103 113 -14 29 -12 57 6 57 5 0 18
-24 30 -54z m-71 -3 c5 -16 15 -55 22 -88 6 -33 14 -70 17 -82 10 -42 -16 -23
-27 20 -6 23 -20 68 -31 99 -19 54 -19 78 0 78 5 0 13 -12 19 -27z m455 -99
c59 -164 102 -259 163 -361 31 -51 54 -100 52 -110 -5 -26 -34 19 -123 190
-75 145 -155 339 -155 378 0 46 26 7 63 -97z m186 19 c39 -67 161 -426 161
-473 0 -48 -15 -28 -34 47 -37 144 -97 301 -151 395 -24 42 -33 88 -17 88 4 0
23 -26 41 -57z m-744 -69 c9 -38 25 -95 37 -127 11 -31 18 -61 14 -65 -10 -9
-36 27 -36 48 0 9 -18 66 -39 127 -30 83 -37 113 -28 122 15 15 31 -16 52
-105z m490 -23 c13 -28 36 -83 49 -123 14 -40 46 -120 71 -178 65 -147 80
-188 72 -196 -11 -11 -15 -5 -77 142 -32 77 -81 192 -109 256 -28 65 -51 124
-51 133 0 30 20 14 45 -34z m-741 -111 c19 -74 47 -193 61 -265 26 -128 92
-408 140 -596 14 -53 25 -109 25 -124 0 -54 -19 -11 -46 100 -25 108 -97 405
-188 777 -44 177 -58 274 -37 253 6 -6 26 -71 45 -145z m99 33 c78 -256 197
-900 158 -858 -5 6 -16 57 -25 115 -9 58 -21 134 -27 170 -15 90 -72 328 -119
495 -39 138 -48 195 -32 195 5 0 25 -53 45 -117z m-250 -65 c20 -84 41 -178
47 -208 22 -119 83 -405 125 -587 45 -189 53 -249 36 -239 -8 5 -31 97 -77
316 -9 41 -35 158 -59 260 -106 453 -125 540 -125 574 0 70 17 34 53 -116z
m2337 25 c46 -140 69 -189 135 -296 24 -38 41 -75 38 -80 -9 -15 -46 36 -99
137 -26 50 -50 96 -54 101 -18 23 -80 207 -80 235 0 58 18 29 60 -97z m-1544
45 c9 -18 34 -86 56 -152 22 -65 55 -156 74 -202 19 -46 34 -90 34 -98 0 -32
-18 -14 -38 37 -11 28 -52 134 -91 234 -39 100 -71 189 -71 198 0 25 19 17 36
-17z m-8524 -61 c-2 -25 2 -48 8 -52 5 -3 10 -19 10 -36 0 -16 5 -29 10 -29 6
0 10 -8 10 -17 1 -10 30 -49 65 -87 36 -39 65 -76 65 -83 0 -16 -101 60 -170
127 l-50 49 0 75 c0 55 4 79 16 91 26 26 39 12 36 -38z m8424 21 c10 -18 47
-116 84 -218 37 -102 83 -220 101 -262 30 -72 34 -98 11 -84 -5 3 -27 52 -47
108 -21 57 -52 137 -70 178 -18 41 -49 116 -69 165 -45 110 -52 193 -10 113z
m-1673 -105 c14 -60 31 -148 36 -198 38 -341 54 -523 47 -540 l-8 -20 -8 20
c-5 11 -13 90 -19 175 -11 167 -28 296 -67 484 -25 122 -30 186 -16 186 5 0
21 -48 35 -107z m-5675 75 c13 -17 57 -158 55 -178 -4 -34 71 -215 123 -295
18 -29 36 -65 40 -80 8 -32 28 -65 97 -161 26 -37 50 -78 53 -90 8 -30 -9 -79
-26 -79 -37 0 -200 241 -200 295 0 10 -15 51 -34 92 -18 40 -46 109 -61 153
-16 44 -34 89 -42 100 -7 11 -13 29 -13 41 0 12 -10 43 -21 70 -26 58 -30 121
-9 134 20 13 26 12 38 -2z m655 -160 c50 -159 56 -184 46 -199 -6 -10 -11 -6
-18 14 -6 16 -11 36 -11 46 0 26 -32 115 -74 205 -20 43 -33 83 -29 89 14 23
52 -46 86 -155z m5456 83 c19 -44 38 -78 42 -76 8 5 72 -182 100 -295 23 -93
77 -280 135 -463 20 -65 34 -120 31 -124 -13 -12 -25 12 -51 104 -47 161 -151
492 -154 488 -2 -2 1 -46 7 -99 19 -167 12 -379 -12 -340 -2 5 -5 79 -5 164 1
210 -35 402 -108 592 -55 142 -42 181 15 49z m404 -46 c14 -60 31 -141 37
-180 20 -114 69 -343 96 -445 14 -52 34 -128 45 -169 22 -86 10 -121 -15 -44
-21 65 -115 456 -176 735 -29 133 -40 242 -21 223 5 -6 20 -59 34 -120z
m-7025 28 c22 -29 55 -79 73 -110 32 -57 175 -275 238 -364 18 -26 31 -55 29
-65 -3 -13 -31 21 -94 116 -98 147 -231 342 -276 404 -15 21 -28 50 -28 65 0
28 0 28 58 -46z m175 -45 c30 -62 91 -187 135 -278 45 -91 110 -214 146 -275
63 -105 76 -135 58 -135 -7 0 -102 151 -102 162 0 3 -28 54 -62 114 -86 152
-234 453 -242 492 -14 63 12 31 67 -80z m132 27 c15 -38 43 -114 61 -168 40
-113 125 -298 188 -407 47 -80 63 -120 49 -120 -35 0 -336 641 -343 731 -6 72
6 62 45 -36z m2206 -83 c5 -86 16 -193 25 -237 24 -118 27 -145 16 -145 -15 0
-19 17 -46 187 -32 206 -41 316 -26 343 6 12 14 19 17 16 4 -3 10 -77 14 -164z
m2949 93 c13 -70 26 -530 16 -568 -3 -15 -11 -27 -18 -27 -8 0 -9 30 -5 108 6
99 -12 399 -29 479 -7 38 3 90 16 77 4 -5 13 -36 20 -69z m-2727 -40 c9 -38
18 -97 22 -130 6 -57 56 -361 74 -455 9 -44 1 -84 -13 -62 -3 6 -13 57 -22
114 -8 57 -25 157 -38 223 -48 243 -67 361 -60 378 10 28 20 9 37 -68z m3797
-95 c5 -69 15 -208 21 -310 6 -102 12 -196 14 -210 16 -162 16 -178 6 -184
-15 -10 -19 17 -36 239 -9 110 -22 272 -30 360 -16 178 -19 268 -8 279 12 12
22 -41 33 -174z m1049 63 c16 -54 41 -153 55 -220 15 -67 44 -187 66 -266 39
-143 53 -235 28 -193 -6 11 -26 83 -45 160 -19 78 -47 186 -63 241 -84 293
-100 375 -76 375 3 0 19 -44 35 -97z m2193 -43 c87 -181 114 -259 92 -267 -6
-2 -19 23 -28 58 -20 69 -81 190 -132 262 -19 26 -34 57 -34 69 0 21 1 20 31
-8 17 -16 49 -67 71 -114z m-9885 63 c28 -38 64 -90 80 -118 28 -46 66 -104
179 -263 24 -35 44 -68 44 -73 0 -26 -30 6 -104 114 -45 64 -110 158 -146 208
-95 132 -120 171 -120 186 0 26 17 12 67 -54z m947 -102 c10 -41 29 -103 42
-138 25 -67 30 -93 15 -93 -8 0 -20 29 -60 150 -12 36 -33 99 -48 141 -16 49
-23 84 -18 95 6 16 11 10 30 -31 12 -27 30 -83 39 -124z m579 122 c8 -27 20
-79 27 -117 7 -38 21 -97 31 -130 12 -38 15 -64 9 -70 -9 -9 -30 31 -30 59 0
8 -11 51 -25 97 -50 166 -54 180 -48 194 10 25 21 15 36 -33z m3278 -200 c4
-125 11 -264 15 -309 4 -55 3 -83 -4 -88 -15 -9 -20 17 -26 154 -3 63 -10 189
-17 279 -11 166 -7 223 13 203 6 -6 14 -100 19 -239z m1409 -90 c5 -175 12
-361 16 -414 5 -67 3 -98 -4 -103 -16 -10 -20 20 -26 184 -3 80 -11 252 -17
383 -11 237 -8 300 13 279 6 -6 13 -129 18 -329z m204 193 c8 -50 18 -127 21
-171 3 -44 18 -163 32 -265 14 -102 28 -215 30 -251 l5 -66 77 -7 c333 -30
922 -134 1026 -181 27 -12 28 -13 7 -14 -12 -1 -82 12 -155 28 -514 114 -835
154 -1375 173 -277 10 -386 9 -565 -1 -492 -29 -676 -21 -332 15 295 30 851
29 1232 -3 l72 -6 -8 30 c-5 16 -12 63 -16 104 -3 41 -19 160 -35 264 -64 430
-69 473 -53 489 9 9 18 -23 37 -138z m1413 105 c34 -59 58 -131 93 -275 35
-145 50 -266 31 -266 -6 0 -11 3 -11 8 0 105 -70 373 -126 484 -40 79 -28 122
13 49z m-7887 -141 c32 -41 92 -109 134 -150 69 -67 91 -100 68 -100 -8 0 -82
77 -265 276 -51 56 -79 102 -70 118 7 10 42 -27 133 -144z m838 103 c34 -54
212 -463 212 -487 0 -32 -17 -14 -39 42 -53 134 -67 165 -143 314 -68 132 -84
178 -63 178 1 0 16 -21 33 -47z m913 -42 c6 -31 24 -103 39 -161 26 -98 29
-133 9 -113 -4 4 -15 33 -23 63 -8 30 -28 104 -46 163 -32 110 -34 163 -5 123
8 -10 19 -44 26 -75z m2283 -146 c3 -93 9 -209 12 -257 5 -62 3 -88 -5 -88
-15 0 -19 26 -25 160 -3 63 -10 175 -16 248 -8 101 -7 139 2 155 11 21 12 21
19 -13 4 -19 10 -111 13 -205z m497 -7 c4 -123 11 -256 15 -297 6 -61 5 -73
-7 -69 -11 4 -18 65 -32 283 -18 274 -17 339 5 317 6 -6 14 -100 19 -234z
m789 22 c5 -102 11 -202 15 -222 4 -23 3 -38 -5 -43 -6 -4 -13 -5 -15 -3 -3 2
-7 49 -10 104 -4 54 -10 137 -16 184 -11 101 -12 184 -2 194 17 17 26 -40 33
-214z m-4686 94 c20 -47 36 -92 36 -98 0 -7 29 -86 65 -176 68 -170 72 -184
54 -178 -10 3 -22 28 -72 158 -14 36 -53 131 -86 212 -34 81 -58 154 -55 162
10 25 20 11 58 -80z m2979 -14 c9 -52 18 -126 22 -165 3 -38 16 -131 29 -206
12 -75 19 -145 16 -155 -11 -30 -19 -2 -35 113 -8 59 -21 146 -29 193 -41 233
-47 283 -41 307 10 42 22 15 38 -87z m527 -168 c6 -97 15 -206 20 -242 13 -92
13 -167 -1 -153 -6 6 -15 59 -20 119 -8 102 -14 155 -39 363 -12 100 -13 175
-2 185 13 14 30 -94 42 -272z m845 221 c25 -85 61 -483 48 -532 -13 -49 -20
-13 -26 122 -5 121 -16 204 -53 404 -6 30 -1 63 10 63 3 0 12 -26 21 -57z
m200 -249 c-3 -312 -2 -291 -14 -278 -12 12 -18 555 -7 573 20 31 24 -33 21
-295z m905 -13 c0 -216 -10 -315 -31 -294 -5 5 -4 47 3 103 8 72 8 143 -1 292
-13 203 -8 262 16 173 9 -34 13 -121 13 -274z m939 209 c17 -52 46 -156 65
-230 19 -74 58 -211 87 -305 66 -216 78 -258 72 -268 -10 -17 -21 7 -48 100
-40 141 -150 504 -196 651 -28 88 -39 177 -20 157 5 -6 23 -53 40 -105z m2508
75 c34 -17 57 -53 26 -40 -10 4 -27 10 -38 13 -33 8 -48 24 -33 33 7 5 13 9
14 9 0 0 15 -7 31 -15z m-9615 -140 c72 -69 135 -125 139 -125 12 0 30 -38 21
-44 -5 -3 -28 13 -53 36 -24 22 -71 64 -104 92 -33 28 -64 56 -70 62 -5 6 -31
28 -57 49 -27 21 -48 46 -48 57 0 30 26 11 172 -127z m1543 76 c3 -20 13 -65
21 -101 28 -115 28 -113 13 -108 -8 3 -17 20 -22 39 -5 19 -20 74 -33 122 -27
93 -26 140 2 103 7 -11 16 -36 19 -55z m810 -83 c8 -51 25 -132 37 -180 12
-48 19 -90 15 -94 -12 -12 -25 7 -32 49 -4 23 -22 105 -41 181 -35 142 -40
177 -27 190 13 12 32 -47 48 -146z m1080 90 c8 -29 19 -91 24 -138 6 -47 21
-135 33 -197 12 -62 19 -116 14 -120 -13 -13 -24 18 -36 101 -6 45 -17 108
-25 141 -31 137 -48 243 -41 260 9 25 15 16 31 -47z m2169 -222 c-2 -116 -4
-217 -4 -223 0 -7 -4 -13 -9 -13 -4 0 -12 110 -16 245 -6 200 -5 249 6 262 12
14 15 12 20 -22 4 -21 5 -133 3 -249z m-3085 222 c5 -29 12 -87 16 -128 3 -41
13 -117 21 -168 9 -51 14 -96 11 -99 -14 -13 -26 12 -32 69 -5 57 -14 114 -46
295 -6 34 -8 67 -4 72 13 22 24 9 34 -41z m3399 -86 c-7 -48 -12 -145 -12
-215 1 -90 -2 -127 -10 -124 -8 3 -11 65 -11 204 1 181 3 203 20 229 27 40 30
16 13 -94z m-3744 36 c3 -24 7 -79 10 -123 3 -44 15 -111 26 -148 21 -67 20
-91 -1 -70 -26 26 -80 329 -66 368 11 28 26 15 31 -27z m1044 -25 c6 -38 13
-102 17 -143 3 -41 13 -117 21 -168 12 -67 13 -97 5 -105 -14 -14 -17 -3 -35
133 -9 63 -23 161 -32 218 -8 57 -13 110 -10 118 12 31 25 11 34 -53z m1196
30 c3 -21 6 -79 6 -129 0 -50 5 -139 11 -198 7 -76 8 -111 0 -119 -7 -7 -12
-6 -15 4 -8 29 -37 459 -31 469 12 20 22 10 29 -27z m360 20 c4 -14 1 -423 -3
-467 -1 -6 -4 -6 -10 0 -7 7 -18 421 -12 472 2 18 19 15 25 -5z m1319 -10 c3
-16 3 -109 1 -208 -2 -99 -4 -188 -4 -197 0 -10 -4 -18 -9 -18 -10 0 -26 424
-16 439 11 19 22 12 28 -16z m-4116 -49 c84 -254 99 -305 93 -315 -10 -16 -17
-3 -45 84 -13 40 -37 108 -54 152 -32 84 -39 129 -19 123 6 -2 17 -22 25 -44z
m8297 -32 c3 -5 8 -23 11 -40 3 -17 10 -43 15 -57 13 -34 13 -35 -5 -35 -8 0
-15 6 -15 14 0 7 -9 34 -21 60 -19 44 -19 66 1 66 5 0 11 -4 14 -8z m115 -141
c6 -39 11 -92 11 -120 0 -27 7 -103 15 -167 16 -116 14 -164 -5 -134 -5 7 -11
41 -15 74 -3 34 -15 134 -26 224 -11 90 -18 170 -15 178 12 30 24 11 35 -55z
m76 -113 c8 -49 24 -85 25 -55 0 9 4 17 9 17 14 0 31 -84 43 -209 10 -112 16
-140 25 -113 3 6 11 12 18 12 10 0 14 -30 18 -117 3 -65 9 -133 13 -150 4 -22
2 -33 -5 -33 -6 0 -14 13 -17 30 -4 16 -11 28 -18 27 -6 -1 -15 23 -20 58 -5
33 -23 148 -41 255 -36 213 -44 201 -19 -26 15 -133 15 -168 -2 -151 -4 3 -10
46 -15 94 -5 48 -18 152 -30 231 -11 79 -18 150 -15 158 10 27 24 14 31 -28z
m-8987 -120 c52 -81 282 -567 282 -597 0 -39 -16 -15 -65 101 -54 127 -146
307 -239 468 -22 38 -35 90 -22 90 2 0 22 -28 44 -62z m236 -30 c19 -35 58
-117 86 -183 54 -126 208 -445 215 -445 2 0 16 5 30 10 32 12 32 12 -35 160
-126 278 -151 342 -148 373 3 30 6 25 44 -53 23 -47 51 -112 62 -145 11 -34
42 -112 67 -175 26 -63 50 -121 53 -129 3 -9 16 -11 45 -7 22 4 44 9 48 12 8
5 -50 134 -88 196 -23 37 -31 78 -15 78 13 0 69 -101 102 -186 l31 -80 50 10
c43 9 49 13 45 31 -3 11 -1 26 3 33 6 10 13 7 28 -13 l20 -28 234 46 c129 26
250 49 269 52 19 3 121 21 225 40 445 81 1215 204 1409 225 92 10 118 8 104
-6 -6 -5 -458 -73 -593 -89 -108 -12 -646 -104 -875 -149 -124 -25 -319 -63
-435 -86 -322 -63 -320 -63 -318 -92 1 -13 16 -55 33 -92 23 -49 29 -71 21
-79 -8 -8 -15 0 -26 29 -8 21 -27 64 -42 94 -16 30 -28 56 -29 58 -2 5 -81
-10 -94 -18 -9 -6 -8 -20 6 -64 10 -30 15 -59 11 -62 -13 -13 -26 9 -38 62
l-13 56 -39 -6 c-22 -4 -44 -9 -48 -12 -4 -2 3 -28 16 -57 27 -58 31 -81 13
-75 -7 3 -24 32 -38 66 -14 34 -29 62 -33 62 -4 0 -23 -7 -42 -14 -39 -17 -46
-43 -13 -55 18 -7 19 -8 4 -14 -10 -4 -24 1 -36 13 -22 22 -24 29 -11 48 9 15
-66 183 -214 482 -77 154 -110 240 -92 240 3 0 22 -28 41 -62z m-4 -173 c38
-79 165 -446 172 -495 6 -51 -18 -29 -35 32 -39 142 -50 177 -83 258 -19 47
-55 127 -80 178 -24 51 -44 105 -44 120 1 26 1 26 16 7 8 -11 33 -56 54 -100z
m-775 45 c33 -33 63 -60 68 -60 9 0 15 -6 170 -171 64 -70 117 -130 117 -134
0 -5 12 -24 28 -44 35 -46 72 -119 72 -142 0 -10 5 -21 10 -24 15 -9 12 -82
-5 -115 -17 -32 -49 -40 -59 -14 -3 9 -6 36 -6 60 0 96 -117 294 -237 401
-148 133 -263 254 -263 278 0 13 14 23 35 24 6 1 37 -26 70 -59z m9712 -250
c7 -10 10 -25 7 -33 -3 -8 2 -20 11 -27 19 -16 20 -40 0 -40 -19 0 -33 27 -41
79 -7 44 3 53 23 21z m106 -262 c3 -128 10 -253 16 -277 12 -47 7 -81 -9 -65
-21 21 -57 505 -40 548 5 15 14 26 19 26 5 0 11 -104 14 -232z m-85 100 c-3
-49 -18 -56 -32 -16 -7 19 -6 31 4 42 22 27 31 18 28 -26z m177 -30 c4 -24 31
-115 61 -203 29 -88 65 -205 79 -260 15 -55 36 -137 48 -183 14 -53 25 -81 33
-78 13 5 24 -37 24 -93 0 -53 62 -294 79 -307 11 -9 13 -31 8 -115 -3 -57 -2
-135 4 -174 5 -38 12 -91 15 -117 7 -50 -9 -69 -20 -24 -13 52 -36 255 -36
321 0 39 -11 109 -24 160 l-23 90 -7 -65 c-4 -36 -5 -150 -2 -255 3 -109 2
-196 -4 -205 -8 -13 -10 -13 -14 0 -3 8 -7 173 -9 365 -3 193 -9 364 -15 380
l-9 30 -8 -39 c-4 -21 -5 -103 -2 -181 5 -123 -1 -181 -16 -165 -3 3 -7 124
-10 270 -5 232 -8 272 -26 324 -12 33 -22 69 -22 80 -5 72 -18 -138 -17 -277
0 -98 -4 -173 -9 -178 -12 -12 -29 533 -18 552 8 12 -24 129 -35 129 -4 0 -6
-10 -4 -22 6 -41 11 -369 6 -394 -12 -63 -20 -7 -26 184 -7 222 -11 280 -26
382 -9 64 -5 110 10 110 5 0 11 -19 15 -42z m-3167 -118 c12 -63 26 -153 33
-200 15 -112 56 -348 75 -430 8 -36 24 -102 34 -147 21 -88 25 -133 12 -133
-12 0 -118 491 -157 725 -8 50 -21 130 -30 179 -14 84 -12 147 5 129 4 -4 17
-60 28 -123z m-5117 21 c18 -36 47 -92 66 -124 33 -55 38 -77 14 -62 -6 3 -18
21 -27 38 -9 18 -41 71 -71 120 -34 53 -53 94 -49 103 10 25 32 1 67 -75z
m5038 -36 c17 -55 36 -125 41 -155 20 -101 48 -274 65 -390 9 -63 20 -142 25
-176 14 -85 13 -181 -1 -167 -6 6 -17 76 -24 157 -21 213 -74 497 -131 695
-24 84 -32 164 -15 146 5 -6 23 -55 40 -110z m204 -20 c15 -60 34 -153 43
-205 16 -94 55 -283 94 -455 43 -192 50 -227 44 -237 -11 -17 -22 12 -44 118
-11 54 -25 124 -31 154 -7 30 -29 129 -50 220 -117 511 -118 517 -102 534 11
11 19 -11 46 -129z m85 0 c12 -60 24 -135 28 -165 10 -93 63 -409 94 -569 5
-29 10 -68 10 -84 0 -57 -20 -14 -35 74 -13 78 -40 227 -101 569 -41 232 -47
277 -40 296 11 29 21 4 44 -121z m-688 84 c-53 -22 -350 -91 -612 -143 -993
-199 -2142 -279 -3140 -220 l-118 7 0 -59 c0 -107 -41 -394 -66 -457 -3 -9
-12 -18 -21 -21 -18 -7 -13 33 22 172 26 100 34 161 39 290 l3 82 -51 0 c-66
0 -446 35 -601 55 -108 14 -342 57 -388 71 -49 15 4 13 134 -5 638 -88 1491
-137 2104 -120 924 25 1523 104 2610 344 33 7 71 13 85 14 l25 0 -25 -10z
m299 -119 c11 -52 25 -131 31 -175 7 -44 28 -159 47 -255 44 -212 49 -250 34
-250 -6 0 -11 2 -11 4 0 6 -84 427 -121 603 -29 139 -32 201 -10 177 5 -5 18
-52 30 -104z m-221 -37 c11 -43 23 -96 27 -118 4 -22 27 -100 51 -174 24 -74
42 -136 40 -139 -13 -12 -29 23 -74 166 -72 231 -94 315 -87 335 11 28 22 11
43 -70z m-5192 -126 c-45 -132 -59 -184 -96 -372 -21 -106 -34 -145 -48 -145
-12 0 -3 90 18 175 43 174 133 460 152 483 26 31 18 -13 -26 -141z m4889 54
c3 -20 11 -61 17 -91 18 -93 21 -120 11 -120 -13 0 -77 256 -67 271 10 17 32
-16 39 -60z m423 7 c11 -35 23 -80 27 -100 3 -21 21 -86 40 -145 19 -61 30
-112 26 -116 -11 -11 -26 16 -36 63 -4 19 -27 95 -51 169 -43 130 -54 191 -35
191 5 0 18 -28 29 -62z m-5629 -239 c-135 -558 -239 -1128 -304 -1654 -30
-243 -44 -328 -61 -375 l-13 -35 0 31 c-1 37 23 270 44 434 62 468 322 1748
378 1855 25 48 14 -18 -44 -256z m5385 232 c8 -22 22 -68 30 -104 8 -35 27
-99 42 -141 14 -42 24 -80 21 -83 -11 -10 -24 7 -36 49 -7 24 -31 94 -52 156
-38 111 -48 162 -30 162 5 0 16 -18 25 -39z m-65 -156 c11 -38 17 -73 15 -77
-11 -18 -22 -6 -28 32 -3 22 -18 60 -32 85 -28 50 -24 79 7 48 11 -10 28 -50
38 -88z m-5199 81 c0 -8 -15 -83 -34 -168 -19 -84 -44 -211 -56 -283 -11 -71
-27 -170 -35 -220 -8 -49 -21 -142 -29 -205 -15 -116 -31 -178 -43 -166 -13
13 5 185 37 346 10 52 33 172 50 265 70 377 85 445 100 445 6 0 10 -6 10 -14z
m1018 -135 c2 -75 -1 -91 -13 -91 -9 0 -15 9 -16 23 -2 52 3 152 7 159 13 21
20 -9 22 -91z m178 57 c-7 -37 -19 -117 -36 -253 -15 -123 -18 -135 -35 -135
-20 0 -19 19 4 137 11 54 24 136 30 181 11 88 16 102 33 102 7 0 8 -12 4 -32z
m120 -35 c-3 -21 -13 -108 -21 -193 -17 -161 -27 -206 -46 -194 -12 7 -5 109
11 165 5 17 14 76 20 132 13 118 15 127 31 127 8 0 10 -12 5 -37z m-831 -55
c-4 -18 -19 -71 -32 -118 -23 -78 -80 -295 -153 -577 -31 -118 -44 -153 -60
-153 -6 0 -10 2 -10 5 0 17 45 194 66 260 33 101 94 319 128 455 15 58 32 117
38 133 15 38 31 34 23 -5z m1505 -1 c0 -19 -4 -58 -9 -88 -6 -30 -15 -108 -21
-174 -12 -128 -23 -170 -41 -159 -12 7 -6 98 11 164 5 19 14 82 20 140 6 58
14 115 17 128 8 33 23 26 23 -11z m-1255 -119 c-63 -221 -118 -474 -159 -737
-9 -58 -21 -100 -31 -110 -15 -15 -16 -12 -10 44 12 120 26 202 52 310 120
509 160 652 171 603 2 -9 -9 -58 -23 -110z m1105 79 c0 -124 -65 -490 -93
-521 -18 -21 -18 -21 -13 29 4 28 17 95 31 150 29 117 44 220 45 290 0 58 9
95 21 95 5 0 9 -19 9 -43z m-135 -107 c-7 -58 -18 -166 -25 -240 -12 -133 -24
-190 -41 -190 -12 0 -11 72 2 145 19 111 28 179 38 282 10 104 17 132 31 116
4 -4 2 -55 -5 -113z m-1149 -21 c-13 -52 -32 -121 -41 -154 -18 -68 -63 -285
-99 -480 -31 -168 -35 -182 -53 -196 -12 -11 -13 -5 -8 42 11 91 33 200 69
351 19 78 56 228 81 332 42 173 64 235 73 208 1 -5 -8 -52 -22 -103z m968
-111 c-7 -218 -13 -268 -34 -268 -13 0 -13 85 -1 182 8 58 19 216 21 296 0 6
5 12 10 12 7 0 8 -73 4 -222z m682 100 c-3 -35 -8 -107 -12 -160 -4 -59 -11
-102 -19 -108 -21 -17 -24 34 -9 129 8 47 14 109 14 137 0 50 5 64 23 64 5 0
7 -26 3 -62z m2594 -104 c62 -196 175 -808 181 -984 5 -144 -17 -85 -36 96
-18 182 -37 299 -75 469 -16 72 -32 146 -36 165 -3 19 -26 104 -50 189 -24 85
-44 165 -44 178 0 48 20 9 60 -113z m243 -29 c14 -71 33 -184 42 -250 29 -218
76 -518 105 -685 30 -165 38 -263 21 -245 -5 6 -19 73 -31 150 -12 77 -40 246
-62 375 -22 129 -50 303 -63 385 -13 83 -31 186 -40 230 -16 84 -20 157 -8
168 3 4 7 6 9 5 1 -2 14 -61 27 -133z m220 -67 c14 -90 31 -206 37 -258 27
-215 85 -519 151 -787 31 -124 36 -201 10 -138 -17 41 -58 225 -125 560 -92
465 -136 785 -107 785 4 0 20 -73 34 -162z m-610 -78 c14 -74 31 -173 38 -220
14 -104 76 -488 88 -550 5 -25 15 -78 22 -118 9 -53 16 -71 26 -68 21 8 16
-48 -6 -68 -23 -21 -18 -41 -61 229 -17 105 -44 260 -60 345 -16 85 -34 184
-40 220 -7 36 -20 110 -30 165 -30 161 -30 166 -24 192 10 40 20 15 47 -127z
m-153 -18 c10 -54 25 -161 34 -238 47 -394 73 -590 102 -768 16 -105 18 -166
4 -166 -5 0 -10 4 -10 9 0 5 -9 67 -19 137 -10 71 -22 158 -26 194 -3 36 -19
153 -35 260 -16 107 -34 231 -40 275 -6 44 -18 121 -25 170 -25 162 -27 184
-21 211 4 15 10 24 13 21 3 -3 13 -50 23 -105z m969 -9 c35 -118 52 -199 85
-397 53 -311 95 -687 82 -722 -14 -37 -23 8 -35 176 -17 255 -74 589 -147 866
-54 207 -43 271 15 77z m-5261 45 c-15 -77 -49 -252 -58 -307 -5 -30 -16 -62
-25 -70 -13 -14 -15 -11 -15 24 0 22 9 72 20 110 16 56 60 261 60 281 0 2 6 4
14 4 10 0 11 -9 4 -42z m648 -65 c-9 -29 -37 -134 -51 -193 -19 -78 -55 -340
-55 -403 0 -31 -6 -61 -15 -73 -13 -17 -14 -11 -15 66 0 47 9 135 19 195 26
148 79 383 92 406 12 24 32 25 25 2z m154 -15 c0 -18 -4 -49 -10 -68 -8 -31
-23 -119 -50 -304 -5 -33 -16 -66 -24 -75 -15 -14 -16 -11 -16 29 0 25 7 70
15 100 12 46 39 185 61 318 3 17 9 32 14 32 6 0 10 -15 10 -32z m4689 -125
c16 -71 41 -195 56 -276 22 -126 92 -474 137 -679 7 -34 17 -58 25 -58 16 0
17 -26 2 -36 -6 -3 -17 0 -25 7 -13 14 -24 59 -79 334 -15 72 -40 191 -56 265
-17 74 -34 158 -40 185 -5 28 -20 97 -34 155 -37 163 -43 230 -21 230 2 0 18
-57 35 -127z m-1355 -33 c16 -114 27 -229 46 -450 14 -166 39 -414 49 -495 31
-234 44 -376 34 -386 -8 -8 -13 -3 -17 18 -7 37 -33 276 -41 378 -4 44 -17
166 -30 270 -13 105 -29 242 -35 305 -6 63 -17 164 -25 223 -17 120 -20 276
-6 262 5 -6 16 -62 25 -125z m-225 -70 c6 -85 15 -238 21 -340 5 -102 15 -243
21 -314 5 -70 8 -135 4 -144 -15 -39 -24 17 -35 198 -6 107 -15 236 -20 285
-18 184 -32 434 -26 460 14 54 25 9 35 -145z m1770 15 c16 -77 35 -176 42
-220 12 -88 89 -482 113 -585 17 -72 21 -150 7 -135 -5 6 -18 57 -29 115 -37
185 -83 409 -129 630 -45 216 -65 365 -45 345 6 -5 24 -73 41 -150z m-4663 68
c-3 -32 -8 -97 -12 -145 -4 -51 -12 -92 -19 -98 -21 -18 -25 28 -10 115 8 44
14 101 15 126 0 46 5 59 23 59 5 0 7 -25 3 -57z m2555 -5 c22 -133 79 -557 94
-688 41 -371 104 -859 161 -1262 29 -206 41 -361 25 -337 -9 14 -35 198 -86
604 -22 177 -72 546 -89 660 -8 55 -22 156 -30 225 -8 69 -27 211 -41 315 -14
105 -33 237 -40 295 -23 169 -17 335 6 188z m2294 -85 c44 -109 70 -208 115
-433 47 -235 60 -311 60 -360 0 -78 -19 -30 -35 85 -24 182 -68 377 -131 578
-19 60 -34 117 -34 128 0 24 15 25 25 2z m-4639 -100 c-3 -32 -7 -78 -8 -103
-1 -50 -13 -80 -30 -80 -7 0 -9 18 -4 58 4 31 10 80 12 107 7 63 11 75 25 75
7 0 9 -18 5 -57z m7824 -303 c0 -5 -4 -10 -10 -10 -5 0 -10 5 -10 10 0 6 5 10
10 10 6 0 10 -4 10 -10z m-6647 -1757 c4 -38 11 -196 16 -353 6 -157 18 -417
27 -578 13 -214 14 -296 6 -304 -17 -17 -21 14 -32 292 -5 140 -14 325 -20
410 -5 85 -14 237 -21 337 -10 173 -7 263 11 263 4 0 10 -30 13 -67z m261 -93
c8 -63 20 -171 26 -240 9 -108 31 -286 45 -370 4 -26 -9 -59 -19 -49 -3 2 -10
47 -16 99 -13 118 -46 378 -67 528 -14 109 -12 175 7 156 5 -5 16 -61 24 -124z
m-135 -75 c5 -44 13 -138 16 -210 3 -71 10 -179 15 -240 21 -235 23 -285 12
-285 -14 0 -21 37 -27 160 -3 58 -12 173 -20 255 -8 83 -20 198 -26 257 -8 79
-8 112 1 128 6 12 13 20 15 18 2 -2 8 -39 14 -83z m3660 -2225 c135 -982 217
-1405 406 -2110 74 -273 80 -300 68 -300 -15 0 -104 312 -163 570 -16 69 -45
195 -65 280 -50 214 -140 644 -159 765 -9 55 -23 138 -32 185 -69 401 -113
767 -98 811 7 22 9 20 16 -16 4 -22 16 -105 27 -185z m-6589 -290 c-6 -85 -22
-231 -35 -325 -13 -93 -40 -287 -59 -430 -71 -516 -99 -692 -115 -708 -16 -16
-14 19 14 193 43 270 74 481 90 625 8 77 24 212 35 300 10 88 22 196 25 240
10 123 25 236 38 280 12 40 12 40 16 10 1 -16 -2 -100 -9 -185z m-920 -95
c-58 -460 -72 -536 -97 -512 -2 3 5 52 16 109 11 57 25 150 31 206 5 56 15
147 20 202 6 56 10 130 10 166 0 36 6 75 13 87 10 19 12 9 15 -73 2 -52 -2
-135 -8 -185z m1125 173 c-18 -247 -28 -357 -41 -468 -19 -161 -61 -582 -69
-685 -3 -44 -10 -123 -15 -175 -5 -52 -15 -151 -21 -219 -11 -125 -21 -173
-32 -154 -6 9 16 306 28 378 6 37 30 299 50 550 8 105 21 258 29 340 8 83 17
191 21 240 11 150 32 265 50 265 3 0 3 -33 0 -72z m-941 -130 c-7 -71 -11
-100 -52 -358 -11 -69 -28 -188 -37 -264 -9 -77 -22 -151 -28 -165 l-11 -26
-4 27 c-2 15 1 57 7 95 28 185 40 274 46 343 4 41 11 93 15 115 5 22 13 85 19
140 11 105 26 165 43 165 6 0 7 -28 2 -72z m1150 40 c-2 -18 -13 -105 -24
-193 -11 -88 -27 -198 -35 -245 -16 -98 -88 -581 -110 -750 -31 -230 -46 -315
-55 -324 -20 -20 -15 26 45 424 8 58 29 209 45 335 16 127 34 259 40 295 5 36
19 137 30 225 21 164 44 265 60 265 5 0 7 -15 4 -32z m6366 -34 c0 -3 11 -60
26 -127 39 -187 72 -356 83 -422 55 -339 122 -701 236 -1280 41 -208 50 -275
37 -275 -5 0 -19 46 -30 103 -20 97 -28 140 -87 462 -14 77 -55 291 -91 475
-156 797 -173 889 -183 963 -13 97 -14 107 -1 107 6 0 10 -3 10 -6z m-6997
-116 c-5 -63 -26 -212 -63 -453 -11 -71 -31 -224 -46 -340 -24 -198 -44 -283
-52 -229 -3 19 4 75 38 304 6 36 19 139 30 230 55 469 68 550 90 550 4 0 6
-28 3 -62z m7210 -218 c26 -113 56 -259 68 -325 26 -145 138 -703 174 -870 56
-261 66 -316 62 -338 -3 -22 -4 -22 -14 3 -6 14 -27 109 -48 210 -20 102 -59
291 -86 420 -28 129 -74 352 -104 495 -30 143 -66 312 -80 375 -28 119 -44
278 -27 250 5 -8 30 -107 55 -220z m-7443 105 c-6 -59 -17 -146 -25 -194 -7
-47 -22 -144 -34 -216 -11 -71 -34 -237 -51 -369 -29 -229 -40 -280 -53 -259
-6 10 5 110 37 323 9 58 25 177 35 265 51 418 63 500 76 533 9 19 18 33 21 30
3 -3 0 -54 -6 -113z m-160 43 c-1 -45 -9 -114 -34 -283 -9 -55 -22 -168 -30
-250 -15 -154 -21 -185 -37 -185 -12 0 -12 -2 11 195 29 246 39 340 46 425 6
83 21 140 35 140 5 0 9 -19 9 -42z m1189 -193 c-5 -104 -11 -196 -14 -203 -6
-16 -41 -457 -50 -622 -8 -161 -15 -220 -26 -220 -13 0 -11 78 6 280 8 96 19
263 25 370 25 481 39 616 61 593 4 -4 3 -93 -2 -198z m6610 -25 c21 -107 49
-258 61 -335 29 -188 94 -570 125 -730 14 -71 38 -201 55 -287 31 -161 38
-240 21 -222 -10 9 -50 210 -76 379 -8 50 -32 185 -54 300 -42 223 -82 439
-106 570 -8 44 -28 150 -44 235 -35 186 -46 265 -36 280 4 6 9 10 11 8 2 -2
21 -91 43 -198z m-661 39 c16 -52 39 -139 52 -194 34 -154 139 -580 166 -674
25 -86 30 -131 16 -131 -8 0 -29 74 -93 335 -11 44 -38 145 -59 225 -48 180
-117 446 -124 482 -6 24 2 64 10 55 2 -2 17 -46 32 -98z m745 -89 c20 -80 47
-206 62 -280 49 -254 87 -435 156 -744 74 -333 89 -418 70 -400 -6 5 -27 82
-46 170 -19 87 -57 263 -85 389 -27 127 -61 280 -75 340 -13 61 -31 142 -39
180 -8 39 -31 140 -50 225 -39 168 -56 292 -38 275 5 -5 26 -75 45 -155z
m-6482 -147 c4 -109 11 -229 15 -267 6 -57 5 -68 -7 -64 -10 3 -16 32 -21 104
-3 54 -11 168 -18 251 -11 153 -8 205 12 185 6 -6 14 -97 19 -209z m5348 -103
c16 -85 34 -189 40 -230 17 -117 90 -556 106 -640 55 -283 65 -358 50 -362 -9
-3 -43 167 -74 367 -7 44 -32 186 -56 315 -25 129 -49 264 -55 300 -6 36 -22
121 -35 190 -31 167 -37 213 -29 235 7 18 8 18 15 -1 5 -10 21 -89 38 -174z
m-5025 -20 c0 -78 -4 -115 -12 -118 -8 -2 -12 17 -13 65 0 37 -2 88 -4 113 -4
48 1 63 18 57 8 -2 12 -40 11 -117z m5290 -110 c8 -52 20 -142 26 -200 14
-134 35 -291 61 -453 12 -70 18 -135 14 -145 -12 -31 -22 6 -39 143 -9 72 -28
200 -41 285 -13 85 -34 217 -45 294 -20 129 -20 201 0 180 4 -5 15 -52 24
-104z m-7594 -233 c-12 -67 -37 -186 -56 -264 -35 -144 -98 -435 -114 -528
-44 -240 -78 -368 -87 -325 -3 14 15 110 71 365 15 66 40 190 56 275 60 318
117 586 131 610 23 43 23 -1 -1 -133z m67 -229 c-4 -62 -20 -192 -37 -288 -58
-337 -85 -473 -102 -502 -21 -40 -21 1 3 103 32 143 48 225 59 319 6 47 15
108 20 135 6 28 14 107 19 177 9 115 21 168 38 168 3 0 3 -51 0 -112z m63
-340 c0 -110 -69 -574 -90 -609 -22 -35 -21 11 3 133 31 161 34 182 47 375 6
84 13 160 16 168 14 36 24 9 24 -67z m160 -205 c0 -43 -22 -172 -47 -280 -5
-23 -30 -49 -38 -41 -2 2 7 39 21 83 18 58 26 107 28 186 2 59 7 113 11 119
13 21 25 -11 25 -67z m1943 -225 c17 -66 27 -213 22 -297 -17 -261 -60 -531
-85 -531 -13 0 -13 13 6 95 39 180 46 263 40 513 -4 217 1 286 17 220z m-509
-602 c-3 -370 -5 -429 -18 -415 -2 2 -7 198 -10 435 -5 329 -4 437 5 460 l13
29 6 -50 c4 -27 6 -234 4 -459z m242 360 c-3 -72 -10 -196 -16 -276 -5 -80 -9
-203 -10 -275 -1 -128 -9 -181 -24 -157 -3 6 -2 177 4 379 12 449 15 483 42
467 7 -5 9 -49 4 -138z m462 -107 c-2 -152 -7 -232 -13 -229 -11 5 -12 31 -15
286 -1 95 1 177 5 184 20 32 25 -25 23 -241z m396 194 c4 -16 2 -43 -4 -62 -5
-19 -13 -74 -16 -123 -6 -82 -15 -110 -28 -90 -5 9 12 267 19 290 7 21 23 13
29 -15z m-1689 -314 c-20 -134 -38 -250 -41 -258 -13 -38 -46 -376 -59 -616
-17 -292 -20 -319 -36 -309 -32 19 84 1214 132 1364 15 44 29 73 35 67 2 -2
-12 -114 -31 -248z m-649 -79 c-6 -144 -33 -566 -42 -656 -6 -63 -18 -94 -30
-82 -4 4 1 81 11 170 11 101 19 284 22 478 6 332 18 434 35 290 5 -41 7 -131
4 -200z m174 -100 c-20 -169 -44 -345 -76 -574 -8 -60 -21 -123 -29 -140 l-13
-31 -1 35 c0 19 6 73 14 120 40 232 68 482 85 761 5 80 15 159 22 175 23 50
22 -147 -2 -346z m-339 175 c2 -233 -59 -717 -79 -622 -2 9 2 48 8 85 6 37 15
94 21 127 5 33 12 171 14 308 2 136 7 253 12 260 12 20 22 -49 24 -158z m-599
-27 c-11 -34 -40 -117 -65 -183 -61 -163 -84 -236 -126 -399 -21 -82 -42 -141
-50 -144 -17 -6 -14 9 65 283 100 349 169 533 191 511 3 -2 -4 -33 -15 -68z
m438 5 c0 -53 -46 -325 -70 -414 -10 -36 -26 -57 -36 -47 -2 2 7 45 21 94 14
50 32 156 40 244 17 168 19 180 35 180 6 0 10 -25 10 -57z m-120 -6 c0 -17 -5
-48 -10 -67 -6 -19 -13 -72 -17 -117 -4 -64 -9 -83 -21 -83 -12 0 -13 9 -8 48
3 26 8 85 11 132 7 102 12 120 31 120 9 0 14 -11 14 -33z m821 -164 c-1 -54
-6 -129 -12 -168 -14 -105 -49 -493 -49 -547 0 -26 -5 -59 -12 -75 l-12 -28
-4 25 c-2 14 1 77 7 140 6 63 16 185 21 270 25 407 37 506 57 487 3 -4 5 -50
4 -104z m-1156 -269 c-47 -199 -58 -234 -75 -234 -13 0 -14 -7 15 91 30 98 51
206 66 339 14 119 33 151 37 62 2 -45 -9 -112 -43 -258z m8772 119 c28 -109
61 -243 73 -298 55 -253 98 -435 211 -889 21 -87 39 -170 39 -183 0 -57 -21
-1 -60 164 -51 212 -190 773 -265 1073 -55 220 -75 330 -59 330 5 0 32 -89 61
-197z m197 7 c19 -96 42 -220 51 -275 38 -243 110 -645 156 -865 26 -129 37
-220 28 -226 -13 -8 -30 70 -79 361 -11 66 -43 235 -70 375 -117 600 -131 679
-137 750 -9 121 11 73 51 -120z m-344 -1 c15 -68 42 -198 60 -289 17 -91 56
-280 87 -420 52 -241 57 -257 87 -284 30 -29 30 -30 9 -35 l-21 -6 34 -130
c42 -163 54 -224 43 -231 -5 -2 -15 19 -23 48 -30 107 -64 244 -70 283 l-7 41
-100 38 c-55 21 -103 36 -106 33 -3 -3 5 -50 17 -104 12 -54 26 -118 31 -143
4 -25 19 -99 33 -165 27 -127 33 -196 16 -179 -5 5 -23 79 -40 164 -38 199
-58 299 -76 381 l-15 66 -80 23 c-44 12 -82 20 -86 17 -5 -6 14 -100 78 -390
11 -49 22 -118 25 -155 9 -111 -14 -50 -46 126 -50 267 -82 416 -94 429 -14
14 -250 63 -254 52 -2 -4 13 -61 33 -126 20 -65 42 -138 49 -163 8 -25 30 -98
50 -163 38 -124 42 -147 27 -147 -6 0 -21 37 -35 83 -40 131 -138 470 -143
495 -7 29 -11 31 -88 41 l-65 7 0 -25 c0 -56 88 -418 150 -616 36 -115 46
-165 32 -165 -6 0 -21 33 -32 73 -12 39 -27 92 -35 117 -8 25 -46 173 -85 329
-39 156 -73 287 -75 291 -5 8 -233 45 -240 39 -3 -3 9 -43 26 -89 17 -47 36
-107 44 -135 7 -27 50 -171 94 -320 85 -282 102 -353 83 -341 -12 7 -34 75
-77 241 -31 117 -167 526 -201 603 l-23 52 -47 0 c-39 0 -46 -3 -41 -17 12
-43 57 -226 77 -308 25 -108 85 -336 111 -424 20 -68 26 -132 10 -115 -6 5
-30 89 -55 188 -25 98 -62 235 -81 305 -20 69 -50 180 -69 246 -38 136 -32
131 -152 134 l-61 1 29 -102 c81 -286 105 -368 160 -542 35 -112 55 -193 50
-198 -11 -11 -22 15 -57 137 -24 81 -110 358 -188 605 -16 52 -32 98 -36 102
-11 12 -463 28 -798 28 -903 0 -1448 -23 -1998 -85 -235 -27 -465 -38 -558
-27 -151 17 -132 35 63 62 388 54 542 72 812 96 286 26 312 26 1036 25 500 -1
839 -6 1035 -16 161 -8 314 -15 340 -15 l48 0 -7 45 c-9 61 10 59 31 -4 l16
-48 96 -6 c66 -5 99 -3 104 4 5 8 8 8 13 0 4 -6 29 -11 56 -11 27 0 52 5 56
11 5 8 8 8 14 0 4 -7 45 -16 91 -21 46 -5 105 -12 132 -16 56 -8 56 -10 28
121 -26 121 -34 189 -26 215 4 12 9 20 11 17 4 -3 52 -238 68 -328 5 -27 13
-38 29 -43 29 -8 107 -8 107 0 0 3 -12 45 -26 93 -14 47 -34 118 -46 156 -11
39 -38 126 -60 195 -36 114 -59 230 -45 230 7 0 99 -280 132 -405 15 -55 38
-141 52 -190 l24 -91 131 -22 c72 -12 133 -21 134 -19 3 3 -110 458 -146 587
-11 41 -19 93 -18 115 3 37 6 32 37 -65 35 -112 94 -344 131 -525 13 -60 27
-114 31 -119 8 -9 161 -57 166 -52 4 4 -131 519 -168 641 -36 116 -62 260 -45
244 22 -21 129 -404 202 -726 l39 -172 45 -17 c25 -9 71 -30 104 -46 32 -16
59 -28 61 -26 2 2 -23 113 -55 248 -92 382 -160 714 -160 776 0 32 3 55 6 52
3 -3 18 -61 34 -129z m-8541 -110 c-5 -28 -15 -72 -23 -98 -14 -45 -39 -147
-54 -225 -4 -22 -13 -41 -20 -44 -16 -5 -15 16 7 106 10 42 27 115 36 162 24
118 35 150 49 150 10 0 11 -12 5 -51z m91 -181 c0 -21 -18 -127 -27 -157 -2
-9 -7 -11 -13 -5 -8 8 3 136 15 172 7 20 25 14 25 -10z m34 -220 c-3 -29 -17
-107 -30 -173 -42 -205 -84 -436 -84 -457 0 -13 5 -18 14 -15 8 3 64 18 124
33 l110 27 11 76 c20 146 30 247 36 375 7 135 11 156 27 156 19 0 2 -301 -26
-455 -14 -77 -23 -142 -20 -144 4 -4 154 25 160 32 8 7 36 225 43 333 8 122
14 149 32 139 20 -13 3 -214 -34 -402 l-15 -72 47 5 c93 11 87 5 100 101 6 49
16 119 21 157 5 42 16 76 26 85 15 15 16 10 9 -69 -3 -47 -13 -116 -21 -155
-8 -38 -14 -75 -14 -82 0 -8 25 -10 93 -7 164 9 152 3 166 89 7 43 20 84 31
97 14 16 19 19 20 8 0 -18 -19 -139 -25 -160 -4 -13 5 -14 74 -6 l79 9 5 49
c6 47 30 98 40 81 2 -4 1 -34 -2 -66 l-7 -58 50 6 c76 10 85 14 92 43 3 15 11
41 19 57 14 30 14 29 14 -28 l1 -58 43 5 c23 3 119 13 212 21 94 9 208 21 255
26 47 6 146 15 220 19 74 5 191 14 260 20 140 14 315 9 350 -10 20 -11 21 -13
7 -28 -12 -11 -48 -17 -129 -23 -349 -24 -469 -30 -489 -24 -12 4 -70 2 -128
-4 -421 -44 -597 -64 -602 -67 -3 -2 -9 -25 -13 -51 -22 -152 -37 -276 -50
-416 -15 -149 -26 -201 -39 -180 -3 5 -2 45 3 89 5 43 18 171 29 284 11 113
23 220 26 239 6 32 5 33 -19 27 -14 -3 -47 -9 -72 -13 -37 -5 -48 -11 -56 -32
-12 -31 -51 -239 -68 -363 -12 -90 -39 -153 -40 -93 0 17 7 62 15 100 13 61
55 339 55 363 0 10 -150 -14 -161 -25 -6 -8 -36 -138 -79 -347 -11 -55 -24
-104 -30 -110 -16 -16 -12 40 9 129 23 94 61 290 61 311 0 10 -13 14 -47 14
-51 0 -163 -17 -180 -28 -6 -4 -16 -52 -22 -107 -16 -140 -21 -165 -31 -165
-14 0 -12 50 5 155 8 50 15 94 15 99 0 10 -132 -2 -144 -14 -5 -5 -19 -49 -32
-99 -27 -104 -53 -171 -65 -171 -14 0 -11 19 26 133 19 60 35 115 35 122 0 10
-19 8 -80 -7 l-80 -20 -11 -42 c-28 -106 -55 -180 -68 -184 -10 -3 -11 2 -5
19 17 55 52 194 49 197 -1 2 -45 -6 -96 -18 -52 -12 -104 -23 -116 -26 -16 -3
-25 -16 -33 -44 -14 -50 -35 -54 -26 -5 4 19 4 35 1 35 -21 0 -88 -45 -97 -66
-15 -32 -32 -26 -36 14 -4 38 50 103 112 134 23 11 42 21 43 22 5 4 23 104 48
261 39 250 65 394 75 420 17 43 29 28 24 -27z m-427 -129 c-11 -141 -95 -610
-119 -651 -12 -22 -13 -22 -16 -2 -1 11 8 67 22 125 14 57 29 133 35 169 25
164 32 223 40 322 9 109 14 128 33 128 8 0 9 -28 5 -91z m199 -16 c-4 -27 -20
-102 -36 -168 -32 -132 -52 -225 -70 -325 -16 -86 -30 -130 -41 -130 -13 0
-11 19 12 117 18 78 68 331 89 453 11 60 27 100 41 100 8 0 9 -15 5 -47z
m-677 -355 c6 -27 11 -132 11 -246 0 -183 2 -200 19 -216 11 -10 22 -29 26
-43 6 -27 112 -153 128 -153 5 0 21 -8 35 -19 15 -10 35 -20 45 -22 21 -4 55
-55 44 -65 -3 -4 -13 -2 -20 5 -8 6 -37 18 -64 26 -103 31 -240 142 -275 224
-40 94 -40 405 1 511 12 30 21 57 21 59 0 19 19 -23 29 -61z m2197 -105 c9
-62 0 -210 -26 -413 -23 -180 -36 -240 -50 -240 -13 0 -13 16 4 97 25 118 36
248 37 406 0 155 5 197 19 197 5 0 12 -21 16 -47z m213 -437 c0 -372 -5 -457
-22 -429 -9 14 -11 828 -3 842 22 35 26 -30 25 -413z m551 -157 c0 -116 -3
-150 -12 -147 -10 4 -14 45 -16 151 -2 126 0 147 13 147 13 0 15 -22 15 -151z
m-213 46 c3 -9 1 -35 -5 -58 -6 -23 -14 -69 -17 -102 -4 -32 -9 -63 -11 -67
-9 -14 -25 3 -20 20 3 10 8 60 11 112 4 52 9 98 11 102 8 13 24 9 31 -7z
m6703 -29 c0 -38 -121 -135 -232 -185 -102 -47 -364 -129 -465 -146 -50 -8
-111 -22 -135 -31 -49 -17 -424 -104 -710 -164 -279 -59 -574 -110 -638 -110
-30 0 -93 -7 -140 -15 -47 -8 -141 -19 -210 -25 -69 -5 -183 -17 -255 -25
-217 -26 -457 -31 -547 -11 -41 9 -84 23 -94 31 -18 13 -18 14 6 23 14 5 84
12 155 15 72 4 166 11 210 16 44 5 199 19 345 31 146 11 303 25 350 31 47 6
148 14 225 19 284 18 1063 164 1280 240 33 12 103 30 155 41 168 35 454 148
600 237 68 42 100 51 100 28z m-7843 -186 c464 -93 548 -111 638 -135 50 -13
120 -28 157 -34 37 -7 96 -20 130 -31 91 -28 175 -44 538 -106 369 -63 669
-104 751 -104 31 0 92 -6 135 -14 44 -8 124 -18 179 -21 407 -25 555 -49 555
-91 0 -15 -13 -16 -152 -11 -215 9 -476 34 -590 57 -53 11 -115 20 -137 20
-21 0 -102 9 -178 20 -76 10 -257 35 -403 55 -466 63 -613 86 -705 110 -49 13
-124 28 -165 34 -41 6 -122 22 -180 35 -58 14 -201 43 -318 66 -117 23 -258
56 -313 74 -100 34 -215 99 -204 116 8 13 -20 17 262 -40z"/>
<path d="M13550 19554 c34 -7 158 -9 154 -2 -3 4 -42 7 -87 7 -45 -1 -75 -3
-67 -5z"/>
<path d="M8710 19530 c-10 -7 4 -8 45 -4 33 4 62 8 64 10 10 9 -96 3 -109 -6z"/>
<path d="M13801 19536 c2 -2 33 -6 69 -10 44 -4 60 -3 50 4 -14 9 -129 15
-119 6z"/>
<path d="M8590 19510 c-12 -8 -11 -10 5 -9 11 1 34 5 50 9 l30 8 -35 1 c-19 0
-42 -4 -50 -9z"/>
<path d="M13971 19516 c2 -2 28 -6 57 -10 37 -5 52 -4 47 4 -3 5 -29 10 -57
10 -28 0 -49 -2 -47 -4z"/>
<path d="M8475 19490 c-7 -12 29 -12 65 0 21 7 19 8 -17 9 -23 1 -45 -3 -48
-9z"/>
<path d="M14111 19496 c2 -2 26 -7 53 -10 33 -5 46 -4 41 3 -3 6 -27 11 -52
11 -26 0 -44 -2 -42 -4z"/>
<path d="M8370 19470 c-12 -8 -10 -9 10 -9 14 1 39 5 55 9 29 7 29 8 -10 9
-22 0 -47 -4 -55 -9z"/>
<path d="M14265 19470 c17 -4 41 -8 55 -9 20 0 22 1 10 9 -8 5 -33 9 -55 9
-39 -1 -39 -2 -10 -9z"/>
<path d="M8265 19450 c-7 -11 16 -11 60 0 28 7 28 8 -12 9 -23 0 -45 -3 -48
-9z"/>
<path d="M14385 19450 c17 -4 41 -8 55 -9 20 0 22 1 10 9 -8 5 -33 9 -55 9
-39 -1 -39 -2 -10 -9z"/>
<path d="M8160 19430 c-12 -8 -10 -10 10 -9 14 1 36 5 50 9 23 7 22 8 -10 9
-19 0 -42 -4 -50 -9z"/>
<path d="M14595 19405 c166 -42 248 -69 301 -99 26 -15 41 -19 37 -10 -4 12
-116 63 -188 86 -31 10 -97 25 -153 35 -18 3 -35 9 -38 14 -3 5 -24 9 -47 8
-33 0 -14 -8 88 -34z"/>
<path d="M8040 19410 c-8 -5 -26 -10 -40 -10 -14 0 -32 -5 -40 -11 -18 -13 47
-5 130 15 l55 14 -45 1 c-25 0 -52 -4 -60 -9z"/>
<path d="M11065 19410 c-256 -8 -744 -39 -1030 -65 -88 -8 -261 -21 -385 -30
-124 -8 -286 -24 -360 -35 -74 -12 -216 -30 -315 -40 -198 -22 -860 -133
-1082 -181 l-51 -12 15 -41 c9 -27 15 -87 16 -173 l2 -133 122 0 121 0 -10 38
c-5 20 -18 64 -29 96 -22 69 -24 99 -6 94 13 -5 24 -39 52 -159 l18 -76 136
-7 c326 -15 591 -19 591 -8 0 6 -5 33 -12 61 -9 39 -9 54 0 63 15 15 32 -28
32 -80 0 -20 4 -42 8 -48 13 -20 509 -41 1217 -51 711 -9 1870 26 2354 72 86
8 196 17 244 21 l88 6 -6 111 c-3 62 -11 186 -17 277 -6 91 -11 188 -11 217 0
48 -2 52 -26 58 -95 21 -1273 38 -1676 25z m1635 -114 c0 -18 -6 -71 -14 -117
-16 -94 -32 -220 -41 -321 -6 -60 -17 -89 -31 -75 -2 2 2 60 10 128 24 210 36
323 36 346 0 30 17 73 30 73 5 0 10 -15 10 -34z m-149 -63 c3 -76 -3 -388 -7
-392 -14 -14 -18 30 -21 197 -2 103 -1 197 2 210 9 35 25 26 26 -15z m-152
-228 c0 -134 -3 -165 -14 -165 -11 0 -15 31 -17 153 -3 167 -2 177 18 177 11
0 14 -31 13 -165z m-4123 -2 c17 -59 22 -275 7 -280 -10 -4 -13 15 -14 69 0
40 -4 96 -9 123 -23 124 -24 138 -9 133 7 -2 19 -23 25 -45z m123 -5 c5 -29
18 -93 27 -143 9 -49 19 -100 21 -112 4 -16 1 -23 -10 -23 -10 0 -17 15 -22
48 -4 26 -18 94 -31 151 -14 58 -23 110 -20 118 11 27 25 11 35 -39z m270 20
c5 -18 17 -85 27 -148 9 -63 19 -130 21 -147 6 -37 -14 -47 -21 -10 -47 240
-61 317 -58 326 7 21 20 11 31 -21z m-124 -8 c4 -6 15 -63 26 -128 32 -191 32
-192 21 -192 -6 0 -14 17 -18 38 -3 20 -17 83 -30 139 -13 57 -24 114 -24 128
0 25 14 33 25 15z"/>
<path d="M7870 19370 c-12 -8 -11 -10 5 -9 11 1 31 5 45 9 24 8 24 8 -5 9 -16
0 -37 -4 -45 -9z"/>
<path d="M7790 19350 c-12 -8 -12 -10 5 -9 11 0 29 4 40 9 18 8 18 9 -5 9 -14
0 -32 -4 -40 -9z"/>
<path d="M7685 19322 c-27 -8 -45 -16 -40 -18 6 -2 37 5 70 15 33 11 51 19 40
19 -11 0 -42 -7 -70 -16z"/>
<path d="M7568 19283 c6 -2 18 -2 25 0 6 3 1 5 -13 5 -14 0 -19 -2 -12 -5z"/>
<path d="M14485 19256 c7 -33 9 -80 13 -238 1 -32 6 -58 12 -58 6 0 7 41 3
110 -5 86 -3 113 8 126 12 15 14 13 21 -17 4 -19 4 -73 1 -121 l-6 -86 34 7
c43 9 46 23 24 157 -10 57 -15 110 -12 118 5 11 -4 17 -31 22 -20 3 -45 8 -55
11 -16 4 -17 0 -12 -31z"/>
<path d="M7460 19260 c-13 -9 -13 -10 0 -9 8 1 26 5 40 9 l25 8 -25 1 c-14 0
-32 -4 -40 -9z"/>
<path d="M14600 19268 c0 -2 7 -25 15 -52 8 -27 15 -87 15 -133 l0 -83 33 0
c19 0 36 2 39 5 10 11 -15 111 -33 131 -24 25 -24 53 -2 61 21 8 169 -22 189
-38 22 -18 114 -59 114 -51 0 4 -9 22 -20 40 -15 25 -18 37 -10 52 5 10 10 31
10 46 0 26 -1 26 -18 11 -28 -25 -181 -21 -309 8 -13 3 -23 4 -23 3z"/>
<path d="M7375 19240 c-7 -11 9 -11 45 0 24 8 24 8 -7 9 -17 1 -35 -3 -38 -9z"/>
<path d="M7315 19220 c-7 -12 2 -12 30 0 19 8 19 9 -2 9 -12 1 -25 -3 -28 -9z"/>
<path d="M7225 19198 c-16 -6 -37 -13 -45 -16 -8 -2 -10 -6 -5 -8 6 -2 35 4
65 15 30 11 46 19 35 19 -11 0 -33 -5 -50 -10z"/>
<path d="M8048 19193 c7 -3 16 -2 19 1 4 3 -2 6 -13 5 -11 0 -14 -3 -6 -6z"/>
<path d="M7095 19160 c-3 -5 -21 -10 -40 -10 -19 0 -37 -4 -40 -10 -3 -5 -40
-10 -81 -10 -41 0 -82 -4 -92 -9 -9 -5 -37 -15 -62 -22 -81 -24 -295 -154
-442 -271 -38 -29 -103 -80 -145 -113 -146 -112 -183 -171 -183 -291 0 -72 10
-124 31 -166 25 -49 38 -67 89 -118 122 -122 201 -177 410 -288 47 -25 128
-70 180 -101 80 -48 193 -106 300 -154 14 -6 36 -19 50 -28 41 -27 111 -67
180 -103 83 -43 334 -288 399 -388 42 -66 63 -90 40 -45 -45 84 -122 177 -200
240 -25 20 -67 63 -93 96 -33 41 -66 69 -109 91 -34 18 -102 58 -152 88 -49
31 -137 78 -195 105 -86 40 -303 157 -546 293 -120 67 -289 216 -324 284 -24
47 -50 151 -50 201 0 98 55 187 159 258 31 21 91 68 134 104 79 68 299 218
372 255 68 34 204 72 256 72 44 0 206 34 218 46 2 2 -10 4 -27 4 -17 0 -34 -4
-37 -10z"/>
<path d="M14720 19101 c0 -37 13 -81 24 -81 6 0 42 12 81 27 65 25 68 27 42
34 -16 4 -34 12 -40 17 -7 5 -33 12 -59 15 -42 6 -48 4 -48 -12z"/>
<path d="M15334 19082 c-7 -4 55 -7 136 -7 82 0 144 3 137 7 -15 10 -258 10
-273 0z"/>
<path d="M7438 19063 c7 -3 16 -2 19 1 4 3 -2 6 -13 5 -11 0 -14 -3 -6 -6z"/>
<path d="M14943 19048 c-22 -23 -22 -24 -2 -36 22 -14 33 0 27 38 l-3 22 -22
-24z"/>
<path d="M15715 19060 c75 -12 113 -12 95 0 -8 5 -44 9 -80 9 l-65 -2 50 -7z"/>
<path d="M7280 19040 c-52 -10 -140 -21 -195 -25 -95 -6 -104 -9 -180 -52 -77
-44 -389 -246 -410 -266 -22 -21 113 60 160 96 67 51 200 117 236 117 31 0 39
-19 16 -38 -10 -9 -11 -30 -5 -94 12 -127 12 -128 48 -115 36 14 37 26 14 139
-12 60 -13 83 -5 91 19 19 28 -6 35 -100 3 -47 9 -89 11 -94 3 -4 19 -3 36 3
33 11 33 8 8 125 -7 34 -10 66 -6 70 15 14 29 -17 37 -82 10 -78 17 -89 54
-79 30 7 31 14 11 91 -9 34 -11 61 -6 66 17 17 28 -3 34 -64 8 -71 12 -79 37
-79 17 0 18 6 13 69 -4 48 -2 70 6 76 21 12 26 -5 23 -80 l-2 -73 70 -7 c39
-4 73 -5 76 -3 2 3 -1 28 -7 57 -6 28 -8 60 -4 69 12 32 35 -17 35 -74 0 -54
8 -64 52 -64 19 0 20 4 14 43 -12 85 -17 112 -21 125 -5 15 4 42 16 42 12 0
27 -67 28 -134 1 -32 4 -63 7 -67 3 -5 21 -9 41 -9 l36 0 -7 38 c-21 113 -25
157 -15 167 17 17 26 -12 33 -108 4 -53 12 -95 19 -99 7 -4 38 -8 70 -8 l57 0
0 68 c0 81 -29 242 -44 242 -6 0 -101 -16 -211 -35 -216 -37 -448 -60 -472
-46 -23 12 38 33 227 76 91 20 167 39 169 41 8 8 -46 2 -139 -16z"/>
<path d="M15875 19044 c17 -3 91 -14 165 -26 74 -11 149 -23 165 -25 20 -4 27
-2 20 5 -5 5 -30 13 -55 16 -25 4 -74 11 -110 16 -36 6 -99 12 -140 14 -41 2
-61 2 -45 0z"/>
<path d="M7763 19033 c-27 -5 -27 -2 -8 -46 8 -20 15 -60 15 -89 0 -29 3 -83
7 -120 l6 -68 35 0 35 0 -6 113 c-7 135 -25 218 -47 216 -8 -1 -25 -4 -37 -6z"/>
<path d="M16241 18986 c2 -2 42 -13 89 -25 187 -49 412 -147 559 -245 203
-136 383 -323 546 -571 217 -330 331 -573 480 -1023 37 -112 69 -201 71 -199
8 8 -170 531 -215 632 -65 145 -206 410 -280 526 -9 14 -26 41 -38 60 -116
181 -279 370 -413 479 -30 25 -63 52 -72 60 -83 75 -416 233 -588 280 -25 7
-55 16 -68 21 -22 9 -80 13 -71 5z"/>
<path d="M6823 18819 c-28 -18 -31 -23 -27 -62 16 -150 17 -152 63 -136 33 12
33 12 28 63 -11 96 -20 146 -26 151 -4 2 -21 -5 -38 -16z"/>
<path d="M16250 18796 c0 -8 63 -36 81 -36 10 0 34 -9 54 -20 20 -11 43 -20
51 -20 9 0 33 -9 53 -19 20 -10 70 -35 111 -55 41 -20 100 -50 130 -67 34 -18
45 -22 30 -10 -40 33 -296 158 -403 196 -102 36 -107 38 -107 31z"/>
<path d="M6724 18762 c-19 -15 -22 -28 -23 -109 -1 -51 1 -93 4 -93 3 0 24 9
45 20 43 22 46 32 31 103 -6 23 -12 54 -16 70 -6 31 -12 33 -41 9z"/>
<path d="M6607 18693 c-41 -20 -46 -26 -37 -43 5 -10 15 -41 21 -69 6 -28 12
-51 13 -51 25 0 65 26 68 44 6 30 -3 146 -11 145 -3 -1 -27 -13 -54 -26z"/>
<path d="M6509 18626 c-21 -18 -25 -30 -24 -74 1 -37 -3 -52 -12 -52 -9 0 -13
14 -13 40 0 22 -5 40 -10 40 -14 0 -110 -94 -110 -108 0 -6 10 -16 22 -23 18
-9 36 -5 115 26 l93 38 0 41 c0 23 -8 53 -18 68 l-17 26 -26 -22z"/>
<path d="M16793 18542 c4 -6 22 -21 39 -34 17 -12 28 -17 25 -10 -4 6 -22 21
-39 34 -17 12 -28 17 -25 10z"/>
<path d="M15755 18090 c-24 -5 -3 -6 55 -3 128 6 308 -16 395 -49 22 -8 58
-21 80 -28 46 -15 128 -51 135 -60 3 -4 12 -9 20 -12 25 -9 137 -97 162 -126
13 -16 30 -32 38 -36 41 -24 -95 102 -158 145 -130 90 -264 140 -449 168 -79
12 -216 12 -278 1z"/>
<path d="M15620 18070 c-24 -8 -24 -8 5 -8 17 0 39 3 50 8 18 8 18 9 -5 8 -14
0 -36 -4 -50 -8z"/>
<path d="M15525 18050 c-17 -7 -15 -9 12 -9 17 -1 35 4 38 9 7 12 -22 12 -50
0z"/>
<path d="M15415 18022 c-28 -9 -43 -17 -33 -19 9 -3 26 1 37 6 11 6 31 11 45
11 14 0 28 5 31 10 9 14 -21 11 -80 -8z"/>
<path d="M15325 17990 c-13 -6 -15 -9 -5 -9 8 0 22 4 30 9 18 12 2 12 -25 0z"/>
<path d="M15250 17960 c-19 -11 -32 -19 -29 -20 11 0 79 30 79 35 0 9 -14 5
-50 -15z"/>
<path d="M15190 17930 c-9 -6 -10 -10 -3 -10 6 0 15 5 18 10 8 12 4 12 -15 0z"/>
<path d="M15150 17910 c-9 -6 -10 -10 -3 -10 6 0 15 5 18 10 8 12 4 12 -15 0z"/>
<path d="M15096 17874 c-23 -23 -20 -30 4 -9 11 10 20 20 20 22 0 7 -9 2 -24
-13z"/>
<path d="M16665 17740 c10 -11 20 -20 23 -20 3 0 -3 9 -13 20 -10 11 -20 20
-23 20 -3 0 3 -9 13 -20z"/>
<path d="M15025 17739 c-4 -6 -5 -12 -2 -15 2 -3 7 2 10 11 7 17 1 20 -8 4z"/>
<path d="M16750 17619 c58 -87 95 -136 75 -99 -23 41 -117 180 -127 186 -5 4
18 -36 52 -87z"/>
<path d="M14997 17664 c-4 -4 -7 -14 -7 -23 0 -11 3 -12 11 -4 6 6 10 16 7 23
-2 6 -7 8 -11 4z"/>
<path d="M14977 17577 c-5 -27 -6 -51 -3 -54 8 -8 18 42 14 73 -3 24 -5 20
-11 -19z"/>
<path d="M16843 17475 c9 -16 23 -39 32 -50 9 -11 7 -2 -6 20 -27 49 -47 72
-26 30z"/>
<path d="M14941 17392 c-13 -56 -21 -105 -17 -109 3 -3 6 2 6 12 0 10 4 32 9
49 27 88 33 114 29 132 -2 10 -14 -28 -27 -84z"/>
<path d="M16890 17398 c0 -4 15 -33 34 -65 50 -86 150 -300 181 -388 4 -11 9
-15 12 -9 6 17 -86 225 -152 346 -54 98 -75 130 -75 116z"/>
<path d="M14893 17238 c-10 -13 -24 -58 -18 -58 2 0 11 14 19 32 17 33 16 48
-1 26z"/>
<path d="M14820 17095 c-9 -11 -8 -32 5 -97 17 -87 33 -125 20 -48 -5 25 -9
71 -9 103 -1 31 -2 57 -2 57 -1 0 -7 -7 -14 -15z"/>
<path d="M7700 16992 c0 -4 4 -12 8 -17 5 -6 19 -37 32 -70 26 -68 48 -101 27
-40 -17 49 -58 135 -63 135 -2 0 -4 -4 -4 -8z"/>
<path d="M17120 16908 c0 -17 24 -86 33 -94 4 -4 7 -20 7 -35 0 -15 5 -31 10
-34 6 -3 10 -17 10 -30 0 -13 5 -27 10 -30 6 -3 10 -17 10 -31 0 -13 4 -32 9
-42 5 -9 12 -26 16 -36 3 -10 8 -16 11 -13 6 6 -103 357 -111 357 -3 0 -5 -6
-5 -12z"/>
<path d="M17990 16909 c0 -15 33 -99 37 -95 6 5 -17 76 -29 91 -4 5 -8 7 -8 4z"/>
<path d="M14850 16894 c1 -20 38 -148 39 -132 1 19 -26 128 -34 136 -3 3 -5 1
-5 -4z"/>
<path d="M7781 16809 c-1 -9 11 -29 25 -44 36 -39 31 -92 -27 -266 -11 -31
-19 -65 -19 -77 0 -11 -4 -24 -10 -27 -5 -3 -10 -19 -10 -34 0 -15 -5 -32 -11
-38 -6 -6 -9 -23 -7 -39 2 -19 18 24 47 131 24 88 57 198 73 244 31 93 33 105
18 96 -15 -9 -59 22 -70 48 -6 15 -9 17 -9 6z"/>
<path d="M18033 16785 c11 -40 69 -200 74 -205 10 -9 -4 42 -35 128 -26 74
-53 127 -39 77z"/>
<path d="M14893 16727 c2 -7 10 -39 18 -72 7 -33 14 -53 16 -43 4 17 -25 128
-34 128 -3 0 -3 -6 0 -13z"/>
<path d="M14934 16545 c4 -22 13 -65 21 -95 12 -47 14 -49 10 -15 -6 62 -21
134 -30 143 -4 4 -4 -11 -1 -33z"/>
<path d="M18113 16558 c3 -9 11 -35 17 -58 6 -23 14 -39 17 -36 8 7 -17 87
-30 101 -7 7 -8 4 -4 -7z"/>
<path d="M17243 16525 c3 -16 16 -68 30 -115 14 -47 33 -114 42 -150 10 -36
21 -73 26 -82 5 -10 9 -25 9 -35 0 -16 14 -66 31 -108 4 -11 10 -31 13 -45 2
-14 10 -43 16 -65 13 -44 28 -113 37 -163 3 -18 9 -35 14 -38 5 -3 9 -23 9
-44 0 -21 5 -42 10 -45 6 -3 10 -19 10 -35 0 -16 5 -32 10 -35 6 -3 10 -2 10
3 0 25 -135 545 -195 747 -64 218 -84 277 -72 210z"/>
<path d="M18150 16443 c0 -20 38 -126 39 -110 1 19 -28 117 -35 117 -2 0 -4
-3 -4 -7z"/>
<path d="M14977 16335 c3 -22 7 -42 9 -44 8 -9 2 45 -6 64 -7 14 -8 8 -3 -20z"/>
<path d="M18191 16295 c0 -11 4 -29 9 -40 8 -18 9 -18 9 5 0 14 -4 32 -9 40
-8 12 -10 12 -9 -5z"/>
<path d="M14992 16265 c0 -11 4 -31 8 -45 6 -20 8 -21 8 -5 0 11 -4 31 -8 45
-6 20 -8 21 -8 5z"/>
<path d="M7705 16224 c-4 -16 -10 -38 -15 -49 -5 -11 -11 -33 -15 -50 -16 -75
-26 -119 -56 -237 -6 -24 -14 -65 -19 -93 -13 -74 -44 -226 -60 -300 -6 -27
-17 -90 -26 -140 -36 -210 -19 -147 55 210 43 209 95 447 115 529 20 82 34
151 32 154 -3 2 -8 -9 -11 -24z"/>
<path d="M18212 16215 c0 -11 4 -31 8 -45 6 -20 8 -21 8 -5 0 11 -4 31 -8 45
-6 20 -8 21 -8 5z"/>
<path d="M15011 16160 c1 -8 5 -26 9 -40 l8 -25 1 25 c0 14 -4 32 -9 40 -9 13
-10 13 -9 0z"/>
<path d="M18232 16110 c0 -14 2 -19 5 -12 2 6 2 18 0 25 -3 6 -5 1 -5 -13z"/>
<path d="M14821 16104 c0 -11 3 -14 6 -6 3 7 2 16 -1 19 -3 4 -6 -2 -5 -13z"/>
<path d="M15032 16075 c0 -11 3 -29 8 -40 11 -25 11 1 0 35 -6 20 -8 21 -8 5z"/>
<path d="M18242 16065 c0 -11 4 -33 8 -50 l8 -30 0 30 c0 17 -3 39 -8 50 l-9
20 1 -20z"/>
<path d="M18261 15964 c0 -11 3 -14 6 -6 3 7 2 16 -1 19 -3 4 -6 -2 -5 -13z"/>
<path d="M15062 15930 c0 -14 2 -19 5 -12 2 6 2 18 0 25 -3 6 -5 1 -5 -13z"/>
<path d="M18271 15925 c0 -11 6 -42 13 -70 8 -27 14 -41 15 -30 0 11 -6 43
-14 70 -7 28 -14 41 -14 30z"/>
<path d="M15072 15875 c0 -16 2 -22 5 -12 2 9 2 23 0 30 -3 6 -5 -1 -5 -18z"/>
<path d="M15092 15770 c0 -14 2 -19 5 -12 2 6 2 18 0 25 -3 6 -5 1 -5 -13z"/>
<path d="M18311 15760 c-1 -21 67 -279 68 -260 1 17 -36 177 -55 235 -7 22
-13 33 -13 25z"/>
<path d="M15101 15714 c0 -11 3 -14 6 -6 3 7 2 16 -1 19 -3 4 -6 -2 -5 -13z"/>
<path d="M15112 15660 c0 -14 2 -19 5 -12 2 6 2 18 0 25 -3 6 -5 1 -5 -13z"/>
<path d="M15132 15550 c0 -14 2 -19 5 -12 2 6 2 18 0 25 -3 6 -5 1 -5 -13z"/>
<path d="M17511 15526 c-1 -16 4 -46 10 -65 7 -20 14 -42 16 -50 2 -8 5 -12 8
-10 2 3 -4 38 -14 79 -12 48 -19 64 -20 46z"/>
<path d="M18380 15474 c2 -26 38 -156 39 -137 1 23 -25 132 -34 141 -3 3 -5 1
-5 -4z"/>
<path d="M15152 15445 c0 -16 2 -22 5 -12 2 9 2 23 0 30 -3 6 -5 -1 -5 -18z"/>
<path d="M17550 15354 c0 -16 5 -36 11 -44 7 -11 8 -4 3 25 -8 50 -14 58 -14
19z"/>
<path d="M15172 15335 c0 -16 2 -22 5 -12 2 9 2 23 0 30 -3 6 -5 -1 -5 -18z"/>
<path d="M18420 15299 c1 -26 38 -154 39 -132 1 12 -6 48 -14 79 -15 57 -25
80 -25 53z"/>
<path d="M15187 15250 c3 -25 7 -47 9 -49 8 -9 2 55 -6 74 -6 13 -7 5 -3 -25z"/>
<path d="M17570 15269 c0 -13 5 -31 10 -39 7 -11 8 -5 4 20 -8 43 -14 51 -14
19z"/>
<path d="M17592 15170 c0 -19 6 -51 13 -70 17 -45 17 -12 0 55 -12 47 -13 48
-13 15z"/>
<path d="M7477 15160 c-20 -88 -34 -168 -41 -235 -3 -27 8 15 24 95 16 80 28
150 26 155 -2 6 -6 -1 -9 -15z"/>
<path d="M15212 15125 c0 -16 2 -22 5 -12 2 9 2 23 0 30 -3 6 -5 -1 -5 -18z"/>
<path d="M18461 15124 c1 -37 37 -159 38 -132 1 27 -24 137 -34 146 -3 3 -5
-3 -4 -14z"/>
<path d="M15221 15070 c1 -14 5 -36 9 -50 7 -23 8 -22 9 10 0 19 -4 42 -9 50
-8 12 -10 10 -9 -10z"/>
<path d="M17621 15046 c-2 -18 20 -141 29 -161 5 -11 11 -36 13 -55 3 -19 10
-53 17 -75 6 -22 14 -53 17 -70 2 -16 8 -39 13 -50 5 -11 11 -33 15 -50 3 -16
10 -48 15 -70 4 -22 13 -56 20 -75 7 -19 16 -53 20 -75 5 -22 12 -53 15 -70
10 -46 15 -58 21 -52 4 3 -33 167 -81 364 -92 375 -112 454 -114 439z"/>
<path d="M15241 14970 c1 -14 5 -36 9 -50 7 -23 8 -22 9 10 0 19 -4 42 -9 50
-8 12 -10 10 -9 -10z"/>
<path d="M18500 14944 c1 -10 10 -53 20 -94 19 -72 19 -48 2 53 -9 49 -22 75
-22 41z"/>
<path d="M17895 14873 c-4 -38 -13 -103 -21 -147 -13 -65 -13 -87 -3 -128 19
-72 25 -41 34 165 7 181 3 230 -10 110z"/>
<path d="M15261 14870 c1 -14 5 -36 9 -50 7 -23 8 -22 9 10 0 19 -4 42 -9 50
-8 12 -10 10 -9 -10z"/>
<path d="M7417 14850 c-4 -14 -6 -36 -6 -50 1 -18 4 -14 10 14 10 44 6 75 -4
36z"/>
<path d="M17932 14741 c-1 -24 -7 -94 -14 -155 -8 -76 -8 -124 -1 -151 8 -34
11 -17 17 115 4 85 6 173 4 195 l-5 40 -1 -44z"/>
<path d="M15286 14735 c8 -50 14 -58 14 -19 0 16 -5 36 -11 44 -7 11 -8 4 -3
-25z"/>
<path d="M18541 14755 c0 -11 6 -45 14 -75 7 -30 14 -44 14 -30 0 14 -6 48
-13 75 -8 28 -14 41 -15 30z"/>
<path d="M7396 14749 c-3 -8 -7 -32 -11 -54 -3 -22 -10 -65 -16 -95 -23 -127
-45 -299 -34 -275 9 21 75 428 71 433 -3 3 -8 -1 -10 -9z"/>
<path d="M15301 14650 c1 -14 5 -38 9 -55 7 -29 8 -29 9 10 0 22 -4 47 -9 55
-8 12 -9 10 -9 -10z"/>
<path d="M18577 14585 c9 -65 31 -152 32 -128 1 23 -15 96 -30 143 -6 18 -7
13 -2 -15z"/>
<path d="M15326 14475 c3 -33 8 -62 10 -64 9 -10 3 96 -7 109 -7 11 -8 -3 -3
-45z"/>
<path d="M18617 14396 c3 -21 11 -61 18 -90 10 -39 13 -44 14 -22 1 28 -3 45
-28 121 -10 28 -10 27 -4 -9z"/>
<path d="M15342 14370 c0 -19 4 -48 8 -65 7 -27 8 -26 8 15 0 25 -3 54 -8 65
-7 16 -9 13 -8 -15z"/>
<path d="M7315 14274 c-3 -22 -11 -55 -16 -74 -6 -19 -9 -55 -7 -80 2 -38 6
-27 22 68 10 62 16 115 13 118 -3 3 -8 -11 -12 -32z"/>
<path d="M15360 14239 c0 -28 30 -182 36 -188 4 -3 4 12 0 34 -4 22 -11 66
-16 99 -8 54 -20 87 -20 55z"/>
<path d="M18654 14215 c4 -22 13 -65 21 -95 12 -44 14 -47 10 -15 -9 71 -22
135 -30 143 -4 4 -4 -11 -1 -33z"/>
<path d="M17821 14193 c-1 -23 3 -44 8 -47 4 -3 12 -20 16 -38 4 -18 9 -28 11
-23 2 6 -5 42 -15 80 -18 67 -19 68 -20 28z"/>
<path d="M18141 14200 c-1 -8 -6 -53 -11 -100 -5 -47 -14 -147 -20 -224 -9
-128 -8 -144 12 -225 l22 -86 8 45 c10 64 9 517 -1 565 -5 22 -9 33 -10 25z"/>
<path d="M7277 14050 c-4 -14 -6 -38 -6 -55 1 -27 2 -26 10 10 11 45 7 85 -4
45z"/>
<path d="M17861 14048 c-1 -15 3 -37 8 -50 5 -13 13 -36 17 -53 3 -16 8 -25
10 -20 2 6 -5 42 -15 80 -12 42 -20 59 -20 43z"/>
<path d="M18691 14035 c1 -11 5 -33 9 -50 l8 -30 1 35 c0 19 -4 42 -9 50 -8
12 -10 11 -9 -5z"/>
<path d="M15402 14010 c0 -19 2 -27 5 -17 2 9 2 25 0 35 -3 9 -5 1 -5 -18z"/>
<path d="M15417 13935 c3 -22 7 -42 9 -44 8 -9 2 45 -6 64 -7 14 -8 8 -3 -20z"/>
<path d="M7257 13937 c-4 -10 -7 -33 -6 -50 l1 -32 9 33 c12 40 8 79 -4 49z"/>
<path d="M18711 13928 c1 -13 5 -34 9 -48 7 -21 8 -19 9 17 1 23 -3 45 -9 48
-6 3 -10 -4 -9 -17z"/>
<path d="M18182 13698 l-12 -233 24 -90 24 -90 3 120 c1 66 1 173 0 238 -2 69
2 123 8 130 10 13 -16 157 -29 157 -3 0 -11 -105 -18 -232z"/>
<path d="M17901 13887 c-1 -16 8 -59 18 -95 11 -37 27 -103 36 -147 21 -104
35 -156 46 -177 5 -10 9 -33 9 -52 0 -19 5 -38 10 -41 6 -3 10 -19 10 -35 0
-16 5 -32 10 -35 6 -3 10 0 10 7 -2 32 -149 600 -149 575z"/>
<path d="M7221 13733 c-35 -192 -63 -373 -59 -384 2 -6 23 102 47 240 24 138
42 254 39 256 -3 3 -15 -47 -27 -112z"/>
<path d="M18731 13825 c1 -11 5 -33 9 -50 l8 -30 1 35 c0 19 -4 42 -9 50 -8
12 -10 11 -9 -5z"/>
<path d="M15442 13810 c0 -14 2 -19 5 -12 2 6 2 18 0 25 -3 6 -5 1 -5 -13z"/>
<path d="M15456 13735 c8 -50 14 -58 14 -19 0 16 -5 36 -11 44 -7 11 -8 4 -3
-25z"/>
<path d="M18751 13720 c1 -14 5 -38 9 -55 7 -29 8 -29 9 10 0 22 -4 47 -9 55
-8 12 -9 10 -9 -10z"/>
<path d="M7422 13680 c0 -14 2 -19 5 -12 2 6 2 18 0 25 -3 6 -5 1 -5 -13z"/>
<path d="M15477 13625 c7 -49 13 -58 13 -19 0 16 -5 36 -10 44 -6 10 -7 2 -3
-25z"/>
<path d="M18261 13620 c-1 -19 -6 -120 -12 -224 -10 -170 -10 -202 7 -313 26
-177 36 -127 30 144 -4 145 -2 230 4 245 8 17 6 43 -9 103 -14 61 -19 72 -20
45z"/>
<path d="M7411 13624 c0 -11 3 -14 6 -6 3 7 2 16 -1 19 -3 4 -6 -2 -5 -13z"/>
<path d="M18770 13609 c1 -8 10 -52 20 -99 16 -69 18 -76 16 -35 -5 56 -20
133 -30 142 -3 4 -6 0 -6 -8z"/>
<path d="M7401 13574 c0 -11 3 -14 6 -6 3 7 2 16 -1 19 -3 4 -6 -2 -5 -13z"/>
<path d="M15496 13495 c4 -33 8 -62 10 -64 9 -10 3 96 -6 109 -7 10 -8 -4 -4
-45z"/>
<path d="M7391 13514 c0 -11 3 -14 6 -6 3 7 2 16 -1 19 -3 4 -6 -2 -5 -13z"/>
<path d="M7382 13460 c0 -14 2 -19 5 -12 2 6 2 18 0 25 -3 6 -5 1 -5 -13z"/>
<path d="M7372 13400 c0 -14 2 -19 5 -12 2 6 2 18 0 25 -3 6 -5 1 -5 -13z"/>
<path d="M18816 13375 c8 -62 32 -153 33 -128 1 23 -15 97 -30 143 -7 19 -7
15 -3 -15z"/>
<path d="M7362 13345 c0 -16 2 -22 5 -12 2 9 2 23 0 30 -3 6 -5 -1 -5 -18z"/>
<path d="M15523 13295 c0 -27 2 -38 4 -22 2 15 2 37 0 50 -2 12 -4 0 -4 -28z"/>
<path d="M7147 13317 c-4 -10 -7 -37 -6 -60 l1 -42 9 45 c10 52 8 87 -4 57z"/>
<path d="M18055 13245 c5 -73 20 -154 29 -162 11 -10 -1 87 -19 157 l-14 55 4
-50z"/>
<path d="M7127 13190 c-4 -14 -6 -38 -6 -55 1 -24 3 -21 10 15 10 49 7 80 -4
40z"/>
<path d="M15535 13154 c10 -77 15 -81 15 -11 0 31 -5 59 -11 63 -7 4 -9 -11
-4 -52z"/>
<path d="M18851 13190 c0 -8 6 -42 14 -75 l15 -60 -6 53 c-4 50 -23 113 -23
82z"/>
<path d="M7106 13068 c-3 -13 -5 -34 -5 -48 1 -15 5 -7 10 19 9 47 6 68 -5 29z"/>
<path d="M15551 13053 c1 -10 5 -31 9 -48 7 -28 8 -28 9 12 0 23 -3 45 -9 48
-5 3 -9 -2 -9 -12z"/>
<path d="M18091 13025 c0 -27 4 -57 9 -65 8 -12 10 -10 9 10 0 14 -4 43 -8 65
l-9 40 -1 -50z"/>
<path d="M18892 12980 c0 -14 2 -19 5 -12 2 6 2 18 0 25 -3 6 -5 1 -5 -13z"/>
<path d="M7086 12959 c-3 -13 -8 -40 -11 -59 -3 -19 -10 -57 -16 -85 -11 -52
-22 -167 -14 -150 9 21 56 308 51 312 -3 3 -7 -5 -10 -18z"/>
<path d="M15571 12950 c1 -14 5 -38 9 -55 7 -29 8 -29 9 10 0 22 -4 47 -9 55
-8 12 -9 10 -9 -10z"/>
<path d="M18902 12935 c0 -11 4 -33 8 -50 l8 -30 0 30 c0 17 -3 39 -8 50 l-9
20 1 -20z"/>
<path d="M18110 12884 c0 -27 5 -56 11 -64 7 -11 8 3 3 45 -8 75 -14 83 -14
19z"/>
<path d="M15590 12846 c0 -4 8 -49 17 -100 11 -57 19 -81 21 -63 2 16 -1 42
-7 59 -6 17 -11 43 -11 57 0 23 -19 69 -20 47z"/>
<path d="M18131 12753 c-1 -28 4 -55 9 -58 6 -3 10 -21 10 -38 0 -18 5 -39 10
-47 14 -22 12 -3 -10 105 -18 87 -18 88 -19 38z"/>
<path d="M18931 12790 c0 -8 6 -40 14 -70 10 -41 13 -47 14 -25 0 17 -6 48
-14 70 -8 22 -14 33 -14 25z"/>
<path d="M15441 12774 c0 -11 3 -14 6 -6 3 7 2 16 -1 19 -3 4 -6 -2 -5 -13z"/>
<path d="M15452 12720 c0 -14 2 -19 5 -12 2 6 2 18 0 25 -3 6 -5 1 -5 -13z"/>
<path d="M7027 12630 c-3 -14 -9 -45 -12 -70 -4 -25 -11 -67 -17 -95 -5 -27
-11 -77 -13 -110 -2 -35 8 9 25 105 17 91 28 172 27 180 -2 9 -6 5 -10 -10z"/>
<path d="M18966 12620 c8 -43 14 -51 14 -19 0 13 -5 31 -10 39 -7 11 -8 5 -4
-20z"/>
<path d="M15631 12620 c1 -14 5 -36 9 -50 7 -23 8 -22 9 10 0 19 -4 42 -9 50
-8 12 -10 10 -9 -10z"/>
<path d="M18171 12553 c0 -23 4 -45 9 -48 11 -7 11 16 0 60 -7 28 -8 28 -9
-12z"/>
<path d="M18981 12555 c1 -11 5 -31 9 -45 8 -24 8 -24 9 5 0 17 -4 37 -9 45
-8 12 -10 11 -9 -5z"/>
<path d="M15651 12520 c1 -14 5 -36 9 -50 7 -23 8 -22 9 10 0 19 -4 42 -9 50
-8 12 -10 10 -9 -10z"/>
<path d="M18190 12464 c0 -16 5 -36 11 -44 7 -11 8 -4 3 25 -8 50 -14 58 -14
19z"/>
<path d="M19007 12440 c4 -19 12 -57 19 -85 9 -39 12 -44 13 -21 1 28 -10 73
-30 121 -5 13 -6 7 -2 -15z"/>
<path d="M15670 12408 c1 -7 12 -67 25 -133 17 -84 23 -102 19 -60 -5 63 -33
205 -40 205 -2 0 -4 -6 -4 -12z"/>
<path d="M18210 12354 c0 -21 5 -46 11 -54 7 -11 8 -1 3 35 -8 62 -14 70 -14
19z"/>
<path d="M6965 12245 c-4 -25 -5 -48 -2 -51 2 -3 8 16 12 41 3 26 4 49 2 52
-3 3 -9 -16 -12 -42z"/>
<path d="M19046 12250 c8 -43 14 -51 14 -19 0 13 -5 31 -10 39 -7 11 -8 5 -4
-20z"/>
<path d="M18232 12240 c-1 -19 3 -53 7 -75 8 -35 9 -36 9 -10 0 17 -3 50 -7
75 -8 42 -9 43 -9 10z"/>
<path d="M19061 12178 c1 -13 5 -36 9 -53 7 -27 8 -25 9 17 0 26 -3 50 -9 53
-6 3 -9 -4 -9 -17z"/>
<path d="M6947 12140 c-4 -14 -6 -36 -6 -50 1 -18 4 -14 10 14 10 44 6 75 -4
36z"/>
<path d="M18542 12125 c0 -16 2 -22 5 -12 2 9 2 23 0 30 -3 6 -5 -1 -5 -18z"/>
<path d="M15727 12100 c3 -25 7 -47 9 -49 8 -9 2 55 -6 74 -6 13 -7 5 -3 -25z"/>
<path d="M18252 12080 c0 -19 2 -27 5 -17 2 9 2 25 0 35 -3 9 -5 1 -5 -18z"/>
<path d="M19085 12025 c4 -22 13 -80 20 -130 l13 -90 -3 70 c-4 81 -18 171
-29 182 -4 4 -4 -11 -1 -32z"/>
<path d="M6925 12024 c-3 -16 -10 -49 -15 -74 -16 -75 -42 -251 -38 -256 3 -2
19 75 38 171 18 97 30 178 27 182 -3 3 -9 -8 -12 -23z"/>
<path d="M15752 11965 c0 -16 2 -22 5 -12 2 9 2 23 0 30 -3 6 -5 -1 -5 -18z"/>
<path d="M15766 11885 c4 -27 8 -52 10 -54 8 -9 2 65 -7 84 -6 13 -7 4 -3 -30z"/>
<path d="M18261 11834 c0 -54 4 -119 9 -144 5 -29 6 6 3 95 -3 77 -7 142 -9
144 -2 2 -4 -40 -3 -95z"/>
<path d="M15792 11765 c0 -16 2 -22 5 -12 2 9 2 23 0 30 -3 6 -5 -1 -5 -18z"/>
<path d="M15807 11685 c3 -22 7 -42 9 -44 8 -9 2 45 -6 64 -7 14 -8 8 -3 -20z"/>
<path d="M19125 11447 c0 -375 -22 -511 -142 -881 -118 -363 -210 -576 -360
-829 -329 -557 -623 -841 -948 -917 -142 -34 -158 -40 -90 -33 33 3 68 9 77
14 9 5 28 9 42 9 15 0 34 4 44 8 166 81 217 111 318 193 120 95 269 265 383
433 218 323 336 537 427 773 49 128 63 168 105 298 23 72 45 139 49 150 19 52
30 93 30 113 0 11 4 23 9 26 5 3 12 23 15 43 4 21 11 63 17 93 5 30 15 84 21
120 13 78 22 608 11 638 -4 11 -8 -102 -8 -251z"/>
<path d="M6855 11640 c-4 -23 -5 -43 -2 -46 2 -3 7 14 11 37 4 23 5 44 2 46
-2 2 -7 -14 -11 -37z"/>
<path d="M15827 11578 c8 -44 13 -48 13 -10 0 17 -4 34 -10 37 -6 4 -7 -6 -3
-27z"/>
<path d="M6837 11560 c-4 -14 -6 -36 -6 -50 1 -18 4 -14 10 14 10 44 6 75 -4
36z"/>
<path d="M15841 11510 c1 -14 5 -38 9 -55 7 -29 8 -29 9 10 0 22 -4 47 -9 55
-8 12 -9 10 -9 -10z"/>
<path d="M18284 11285 c0 -115 2 -161 3 -102 2 59 2 154 0 210 -1 56 -3 8 -3
-108z"/>
<path d="M6816 11458 c-3 -13 -5 -32 -5 -43 1 -11 5 -2 10 19 10 42 6 62 -5
24z"/>
<path d="M15861 11400 c1 -14 5 -38 9 -55 7 -29 8 -29 9 10 0 22 -4 47 -9 55
-8 12 -9 10 -9 -10z"/>
<path d="M6796 11365 c-3 -9 -6 -29 -5 -43 1 -22 3 -19 10 12 10 40 6 60 -5
31z"/>
<path d="M15886 11255 c4 -27 8 -52 10 -54 9 -10 3 76 -7 89 -7 11 -8 1 -3
-35z"/>
<path d="M6775 11254 c-3 -16 -11 -45 -16 -65 -6 -19 -9 -46 -7 -60 2 -14 10
10 21 60 9 47 15 86 12 89 -2 2 -7 -9 -10 -24z"/>
<path d="M15906 11135 c8 -50 14 -58 14 -19 0 16 -5 36 -11 44 -7 11 -8 4 -3
-25z"/>
<path d="M6737 11080 c-4 -14 -6 -36 -6 -50 1 -18 4 -14 10 14 10 44 6 75 -4
36z"/>
<path d="M15921 11055 c1 -11 5 -33 9 -50 l8 -30 1 35 c0 19 -4 42 -9 50 -8
12 -10 11 -9 -5z"/>
<path d="M6717 10976 c-4 -10 -7 -32 -6 -49 1 -31 1 -31 10 7 10 43 7 72 -4
42z"/>
<path d="M18268 10940 c-4 -25 -9 -81 -12 -125 -5 -78 -5 -78 10 25 8 58 13
114 11 125 -1 11 -6 0 -9 -25z"/>
<path d="M15947 10905 c7 -49 13 -58 13 -19 0 16 -5 36 -10 44 -6 10 -7 2 -3
-25z"/>
<path d="M6697 10860 c-16 -70 -19 -89 -22 -130 -2 -26 4 -7 15 45 11 50 18
95 16 100 -2 6 -6 -1 -9 -15z"/>
<path d="M15962 10825 c0 -11 4 -31 8 -45 l8 -25 0 25 c0 14 -3 34 -8 45 l-9
20 1 -20z"/>
<path d="M18237 10701 c-4 -18 -7 -48 -6 -65 1 -26 3 -24 10 14 5 25 8 54 6
65 -2 14 -5 9 -10 -14z"/>
<path d="M15985 10685 c17 -95 33 -158 34 -133 1 28 -27 159 -36 168 -2 3 -2
-13 2 -35z"/>
<path d="M6656 10638 c-3 -13 -5 -32 -5 -43 1 -11 5 -2 10 19 10 42 6 62 -5
24z"/>
<path d="M18412 10504 c-13 -71 -26 -142 -29 -158 -4 -20 -2 -27 6 -22 6 4 11
21 11 38 0 29 7 62 32 148 5 19 8 55 6 79 -2 36 -7 20 -26 -85z"/>
<path d="M18217 10587 c-4 -10 -7 -35 -6 -55 l1 -37 9 40 c11 45 8 82 -4 52z"/>
<path d="M6634 10516 c-3 -21 -4 -39 -1 -42 2 -3 8 11 11 32 4 20 5 38 2 41
-2 3 -8 -11 -12 -31z"/>
<path d="M16022 10485 c0 -16 2 -22 5 -12 2 9 2 23 0 30 -3 6 -5 -1 -5 -18z"/>
<path d="M18197 10476 c-4 -10 -7 -34 -6 -54 l1 -37 9 45 c10 48 7 75 -4 46z"/>
<path d="M16031 10434 c0 -11 3 -14 6 -6 3 7 2 16 -1 19 -3 4 -6 -2 -5 -13z"/>
<path d="M6617 10410 c-16 -72 -19 -89 -22 -135 -3 -35 2 -21 15 45 11 52 18
100 16 105 -2 6 -6 -1 -9 -15z"/>
<path d="M16042 10380 c0 -19 2 -27 5 -17 2 9 2 25 0 35 -3 9 -5 1 -5 -18z"/>
<path d="M18175 10354 c-4 -16 -9 -36 -12 -44 -6 -16 -20 -83 -30 -138 -3 -18
-9 -35 -14 -38 -5 -3 -9 -18 -9 -34 0 -16 -4 -32 -10 -35 -5 -3 -10 -17 -10
-30 0 -13 -4 -27 -10 -30 -5 -3 -10 -15 -10 -26 0 -10 -5 -29 -12 -42 -23 -44
-28 -57 -28 -67 0 -5 -12 -35 -26 -66 -32 -70 -55 -136 -50 -141 6 -6 105 239
147 366 40 118 94 339 85 348 -3 3 -8 -8 -11 -23z"/>
<path d="M18348 10204 c-29 -114 -32 -155 -3 -57 9 32 21 74 27 94 5 20 9 44
7 53 -2 10 -16 -31 -31 -90z"/>
<path d="M16061 10264 c0 -11 3 -14 6 -6 3 7 2 16 -1 19 -3 4 -6 -2 -5 -13z"/>
<path d="M16072 10225 c0 -11 4 -33 8 -50 l8 -30 0 30 c0 17 -3 39 -8 50 l-9
20 1 -20z"/>
<path d="M6576 10169 c-4 -23 -5 -44 -2 -46 2 -2 7 14 11 37 4 23 5 43 2 46
-2 3 -7 -14 -11 -37z"/>
<path d="M18655 10114 c-25 -54 -64 -128 -86 -165 -43 -74 -53 -107 -13 -44
38 61 156 296 151 302 -3 2 -26 -39 -52 -93z"/>
<path d="M6562 10070 c0 -14 2 -19 5 -12 2 6 2 18 0 25 -3 6 -5 1 -5 -13z"/>
<path d="M16101 10064 c0 -11 3 -14 6 -6 3 7 2 16 -1 19 -3 4 -6 -2 -5 -13z"/>
<path d="M18300 10039 c-8 -24 -27 -75 -42 -113 -15 -38 -28 -72 -28 -75 1
-14 22 29 46 94 14 39 30 80 36 92 6 11 8 27 6 33 -2 7 -10 -7 -18 -31z"/>
<path d="M6551 10024 c0 -11 3 -14 6 -6 3 7 2 16 -1 19 -3 4 -6 -2 -5 -13z"/>
<path d="M16117 9995 c3 -22 7 -42 9 -44 8 -9 2 45 -6 64 -7 14 -8 8 -3 -20z"/>
<path d="M6542 9965 c0 -16 2 -22 5 -12 2 9 2 23 0 30 -3 6 -5 -1 -5 -18z"/>
<path d="M6527 9916 c-4 -10 -7 -32 -6 -49 1 -31 1 -31 10 7 10 43 7 72 -4 42z"/>
<path d="M16141 9875 c0 -11 6 -47 14 -80 13 -56 14 -57 11 -15 -5 51 -24 126
-25 95z"/>
<path d="M18492 9818 c-49 -71 -113 -181 -108 -185 2 -2 12 11 23 29 11 18 43
70 72 116 54 86 62 112 13 40z"/>
<path d="M18216 9823 c-6 -14 -5 -15 5 -6 7 7 10 15 7 18 -3 3 -9 -2 -12 -12z"/>
<path d="M6511 9814 c0 -11 3 -14 6 -6 3 7 2 16 -1 19 -3 4 -6 -2 -5 -13z"/>
<path d="M18196 9783 c-6 -14 -5 -15 5 -6 7 7 10 15 7 18 -3 3 -9 -2 -12 -12z"/>
<path d="M6502 9770 c0 -14 2 -19 5 -12 2 6 2 18 0 25 -3 6 -5 1 -5 -13z"/>
<path d="M18147 9684 c-21 -42 -33 -73 -28 -70 11 7 74 136 69 142 -2 2 -21
-31 -41 -72z"/>
<path d="M6485 9704 c-8 -38 -24 -102 -36 -140 -5 -17 -9 -41 -9 -53 0 -12 -5
-31 -11 -42 -5 -11 -9 -32 -7 -47 2 -15 20 45 41 137 21 90 36 166 33 168 -3
3 -8 -8 -11 -23z"/>
<path d="M16170 9716 c0 -4 8 -49 18 -100 13 -72 18 -83 20 -54 2 20 -2 46 -7
57 -6 11 -11 32 -11 48 0 24 -19 72 -20 49z"/>
<path d="M18340 9578 c-144 -200 -145 -202 -280 -341 -106 -110 -166 -159
-257 -210 -73 -41 -124 -60 -145 -52 -31 12 -44 95 -15 95 7 0 42 27 77 60
l65 60 -68 -50 c-37 -27 -72 -50 -78 -50 -14 0 -11 27 6 60 9 17 14 30 12 30
-2 0 -23 -22 -46 -50 -23 -27 -35 -47 -27 -44 24 9 30 -20 12 -55 -9 -16 -16
-49 -16 -72 l0 -41 33 6 c56 11 209 92 292 154 136 101 302 286 444 495 40 58
33 63 -9 5z"/>
<path d="M18080 9560 c-6 -11 -8 -20 -6 -20 3 0 10 9 16 20 6 11 8 20 6 20 -3
0 -10 -9 -16 -20z"/>
<path d="M17885 9539 c-4 -6 -5 -12 -2 -15 2 -3 7 2 10 11 7 17 1 20 -8 4z"/>
<path d="M18050 9508 c-12 -22 -12 -22 6 -6 10 10 15 20 12 24 -4 3 -12 -5
-18 -18z"/>
<path d="M17784 9378 c-110 -163 -109 -162 -97 -155 15 9 199 287 190 287 -2
0 -44 -60 -93 -132z"/>
<path d="M16211 9494 c0 -5 9 -49 19 -99 14 -67 18 -77 15 -40 -3 56 -19 133
-29 142 -3 4 -6 2 -5 -3z"/>
<path d="M6407 9376 c-4 -10 -7 -30 -6 -44 1 -25 1 -25 10 6 11 37 7 67 -4 38z"/>
<path d="M17885 9293 l-68 -78 66 65 c57 56 85 90 73 90 -1 0 -33 -35 -71 -77z"/>
<path d="M6377 9244 c-9 -30 -17 -67 -16 -82 1 -15 10 9 20 52 23 93 20 109
-4 30z"/>
<path d="M16251 9275 c1 -11 5 -31 9 -45 8 -24 8 -24 9 5 0 17 -4 37 -9 45 -8
12 -10 11 -9 -5z"/>
<path d="M16271 9180 c0 -14 4 -34 9 -45 7 -17 9 -16 9 10 0 17 -4 37 -9 45
-8 12 -10 10 -9 -10z"/>
<path d="M6346 9105 c-3 -9 -6 -26 -5 -38 1 -16 4 -12 10 12 10 34 6 55 -5 26z"/>
<path d="M16290 9093 c0 -4 16 -71 34 -148 38 -154 48 -163 16 -14 -12 52 -23
109 -27 127 -5 29 -23 56 -23 35z"/>
<path d="M17500 9023 c-38 -60 -42 -146 -9 -200 29 -47 34 -36 8 22 -28 62
-22 129 15 185 14 22 24 40 21 40 -3 0 -19 -21 -35 -47z"/>
<path d="M6326 9015 c-3 -9 -6 -29 -5 -43 1 -22 3 -19 10 12 10 40 6 60 -5 31z"/>
<path d="M6306 8919 c-2 -13 -10 -49 -16 -80 -7 -30 -10 -64 -8 -75 2 -10 12
23 21 75 10 51 16 96 13 98 -3 3 -7 -5 -10 -18z"/>
<path d="M16372 8740 c0 -14 2 -19 5 -12 2 6 2 18 0 25 -3 6 -5 1 -5 -13z"/>
<path d="M6272 8710 c0 -14 2 -19 5 -12 2 6 2 18 0 25 -3 6 -5 1 -5 -13z"/>
<path d="M16386 8665 c4 -27 8 -52 10 -54 8 -9 2 65 -7 84 -6 13 -7 4 -3 -30z"/>
<path d="M16407 8540 c3 -30 7 -57 9 -59 7 -8 2 64 -6 89 -6 16 -7 6 -3 -30z"/>
<path d="M6222 8471 c-7 -29 -12 -62 -11 -74 0 -12 7 7 15 43 8 36 13 69 11
74 -2 5 -8 -15 -15 -43z"/>
<path d="M16427 8390 c3 -36 7 -67 9 -69 8 -9 2 95 -6 114 -6 13 -7 -3 -3 -45z"/>
<path d="M6192 8305 c0 -16 2 -22 5 -12 2 9 2 23 0 30 -3 6 -5 -1 -5 -18z"/>
<path d="M16440 8280 c0 -24 71 -365 77 -370 6 -6 -1 48 -17 125 -23 106 -30
142 -38 192 -8 50 -22 83 -22 53z"/>
<path d="M6176 8238 c-3 -13 -5 -34 -5 -48 1 -15 5 -7 10 19 9 47 6 68 -5 29z"/>
<path d="M6156 8135 c-4 -16 -11 -44 -16 -61 -6 -17 -10 -41 -9 -55 0 -13 9 8
20 46 10 39 17 77 15 85 -1 8 -6 2 -10 -15z"/>
<path d="M6117 7976 c-4 -10 -7 -25 -6 -34 0 -11 4 -9 10 7 5 13 8 29 6 35 -2
5 -6 2 -10 -8z"/>
<path d="M6095 7894 c-4 -16 -11 -41 -17 -56 -5 -15 -8 -33 -6 -39 2 -7 12 15
22 50 10 35 15 65 12 68 -3 3 -8 -8 -11 -23z"/>
<path d="M16520 7889 c1 -26 38 -154 39 -132 1 12 -6 48 -14 79 -15 57 -25 80
-25 53z"/>
<path d="M6057 7766 c-4 -10 -7 -25 -6 -34 0 -11 4 -9 10 7 5 13 8 29 6 35 -2
5 -6 2 -10 -8z"/>
<path d="M16566 7685 c4 -20 13 -60 20 -89 12 -45 13 -46 9 -11 -10 86 -18
126 -27 131 -6 4 -6 -9 -2 -31z"/>
<path d="M6036 7695 c-3 -9 -6 -24 -5 -33 0 -9 5 -4 10 12 9 32 6 48 -5 21z"/>
<path d="M6016 7625 c-3 -9 -6 -22 -5 -28 0 -7 5 -1 10 12 5 13 8 26 5 28 -2
2 -6 -3 -10 -12z"/>
<path d="M5987 7527 c-23 -72 -39 -138 -34 -143 2 -2 16 40 31 92 29 103 31
138 3 51z"/>
<path d="M16604 7500 c3 -14 10 -56 17 -95 7 -38 15 -61 17 -51 5 22 -17 134
-30 156 -7 11 -8 8 -4 -10z"/>
<path d="M5936 7339 c-3 -18 -4 -34 -2 -36 2 -3 7 10 11 27 4 17 5 34 2 36 -2
3 -7 -10 -11 -27z"/>
<path d="M16642 7310 c0 -14 4 -36 8 -50 l8 -25 0 25 c0 14 -4 36 -8 50 l-8
25 0 -25z"/>
<path d="M5921 7264 c0 -11 3 -14 6 -6 3 7 2 16 -1 19 -3 4 -6 -2 -5 -13z"/>
<path d="M5906 7215 c-3 -9 -5 -29 -5 -43 1 -20 3 -17 9 13 8 43 7 57 -4 30z"/>
<path d="M16662 7205 c0 -16 2 -22 5 -12 2 9 2 23 0 30 -3 6 -5 -1 -5 -18z"/>
<path d="M16682 7090 c0 -14 2 -19 5 -12 2 6 2 18 0 25 -3 6 -5 1 -5 -13z"/>
<path d="M5882 7050 c0 -14 2 -19 5 -12 2 6 2 18 0 25 -3 6 -5 1 -5 -13z"/>
<path d="M16691 7045 c1 -11 5 -31 9 -45 8 -24 8 -24 9 5 0 17 -4 37 -9 45 -8
12 -10 11 -9 -5z"/>
<path d="M16717 6925 c7 -49 13 -58 13 -19 0 16 -5 36 -10 44 -6 10 -7 2 -3
-25z"/>
<path d="M5861 6749 c0 -79 4 -153 9 -164 4 -11 5 52 3 140 -3 88 -7 162 -9
164 -2 2 -4 -61 -3 -140z"/>
<path d="M16581 6814 c0 -11 3 -14 6 -6 3 7 2 16 -1 19 -3 4 -6 -2 -5 -13z"/>
<path d="M16742 6709 c-1 -53 -4 -112 -7 -130 -5 -31 -5 -32 5 -10 6 14 9 70
7 130 l-3 106 -2 -96z"/>
<path d="M16589 6725 c-3 -16 -7 -64 -7 -105 -1 -75 -1 -75 9 -26 6 27 9 74 7
105 -2 44 -4 50 -9 26z"/>
<path d="M5881 6542 c-1 -22 54 -142 64 -142 3 0 -2 14 -11 32 -9 18 -25 55
-35 82 -11 33 -18 43 -18 28z"/>
<path d="M16721 6527 c-1 -25 -45 -109 -77 -146 -14 -17 -45 -42 -68 -56 -55
-32 -260 -85 -330 -85 -46 0 -78 -9 -169 -49 -157 -68 -377 -149 -687 -251
-372 -124 -637 -199 -1013 -286 -106 -24 -169 -42 -142 -39 50 4 103 15 180
34 22 5 63 15 90 21 28 7 66 16 85 21 19 4 49 11 65 14 17 4 39 10 50 15 11 5
31 11 45 14 14 2 43 10 65 16 22 7 57 14 78 17 20 3 40 9 43 14 3 5 18 9 35 9
16 0 37 4 47 9 38 19 70 30 182 61 25 6 53 16 62 21 10 5 27 9 37 9 11 0 22 4
25 8 3 5 31 15 63 22 32 7 62 17 68 22 5 4 15 8 23 8 7 0 41 11 75 24 34 12
103 37 152 55 50 18 98 36 107 41 10 6 26 10 36 10 10 0 22 4 27 8 6 4 28 14
50 21 41 14 117 46 147 62 10 5 24 9 33 9 8 0 30 9 50 20 26 15 54 20 105 20
38 0 71 4 74 9 3 5 23 11 43 14 119 17 191 48 254 109 49 47 103 148 96 176
-4 15 -5 15 -6 -1z"/>
<path d="M5971 6360 c27 -36 176 -158 195 -159 6 -1 19 -10 29 -21 10 -11 24
-20 31 -20 7 0 29 -9 49 -20 20 -11 40 -20 45 -20 6 0 29 -8 53 -19 23 -10 62
-24 87 -31 25 -7 54 -16 65 -20 21 -8 133 -36 200 -50 22 -4 63 -16 90 -25 28
-10 68 -21 90 -26 22 -4 54 -11 70 -14 17 -4 39 -10 50 -15 11 -5 36 -11 55
-13 19 -3 53 -10 75 -17 22 -6 60 -15 85 -20 25 -5 63 -14 85 -20 22 -7 63
-15 90 -20 28 -5 68 -14 90 -20 22 -6 63 -16 90 -20 28 -5 66 -12 85 -15 19
-4 44 -10 55 -15 11 -5 40 -11 65 -14 55 -5 98 -15 125 -26 11 -5 43 -11 70
-14 28 -2 73 -9 100 -16 28 -6 73 -15 100 -20 28 -5 70 -15 95 -20 25 -6 59
-13 75 -16 17 -3 59 -10 95 -15 36 -6 80 -15 98 -21 18 -5 56 -14 85 -18 29
-5 72 -14 97 -20 41 -10 66 -15 180 -35 19 -4 44 -10 55 -15 11 -5 43 -11 70
-14 28 -2 70 -9 95 -16 25 -7 79 -16 120 -21 133 -15 165 -20 185 -29 11 -5
56 -11 100 -14 44 -2 109 -10 145 -16 36 -6 110 -13 165 -15 86 -3 68 0 -125
25 -293 39 -651 99 -920 154 -118 25 -377 77 -575 116 -874 171 -1669 363
-1918 462 -70 28 -130 54 -132 59 -3 4 -37 29 -75 54 -39 26 -91 68 -117 93
-40 40 -43 42 -22 12z"/>
<path d="M14090 5594 c-62 -13 -573 -99 -970 -163 -149 -23 -173 -29 -125 -30
34 -1 65 3 70 8 6 5 35 12 65 15 30 3 89 10 130 16 41 5 100 12 130 15 30 3
64 10 75 15 11 5 38 11 60 14 22 3 67 10 100 15 33 6 89 15 125 21 104 16 172
27 215 35 63 11 215 47 215 51 0 6 -20 4 -90 -12z"/>
<path d="M12825 5390 c-38 -7 -36 -7 20 -8 33 -1 67 3 75 8 18 11 -31 11 -95
0z"/>
<path d="M10003 5373 c13 -12 135 -23 307 -28 l155 -3 -165 13 c-91 7 -196 16
-235 20 -38 4 -66 3 -62 -2z"/>
<path d="M12650 5370 l-55 -7 75 -1 c41 0 84 3 95 8 24 10 -30 10 -115 0z"/>
<path d="M12370 5350 c-63 -4 -212 -9 -330 -10 l-215 -3 215 -7 c118 -4 240
-3 270 1 30 5 93 9 140 10 47 0 94 4 105 9 24 10 -12 10 -185 0z"/>
<path d="M10575 5329 c79 -9 763 -9 793 -1 13 4 -174 7 -415 7 -241 0 -411 -3
-378 -6z"/>
<path d="M11458 5333 c23 -2 59 -2 80 0 20 2 1 4 -43 4 -44 0 -61 -2 -37 -4z"/>
</g>
</svg>
